<?xml version="1.0" encoding="UTF-8" standalone="no"?>
<!-- Created with Inkscape (http://www.inkscape.org/) -->

<svg
   width="300"
   height="300"
   viewBox="0 0 79.374998 79.375"
   version="1.1"
   id="svg5"
   inkscape:version="1.2.1 (9c6d41e4, 2022-07-14)"
   sodipodi:docname="scrollborder.svg"
   inkscape:export-filename="scrollborder.png"
   inkscape:export-xdpi="96"
   inkscape:export-ydpi="96"
   xmlns:inkscape="http://www.inkscape.org/namespaces/inkscape"
   xmlns:sodipodi="http://sodipodi.sourceforge.net/DTD/sodipodi-0.dtd"
   xmlns:xlink="http://www.w3.org/1999/xlink"
   xmlns="http://www.w3.org/2000/svg"
   xmlns:svg="http://www.w3.org/2000/svg">
  <sodipodi:namedview
     id="namedview7"
     pagecolor="#ffffff"
     bordercolor="#000000"
     borderopacity="0.25"
     inkscape:showpageshadow="2"
     inkscape:pageopacity="0.0"
     inkscape:pagecheckerboard="0"
     inkscape:deskcolor="#d1d1d1"
     inkscape:document-units="mm"
     showgrid="false"
     inkscape:zoom="1.5625561"
     inkscape:cx="135.67513"
     inkscape:cy="112.31597"
     inkscape:window-width="1390"
     inkscape:window-height="1027"
     inkscape:window-x="38"
     inkscape:window-y="67"
     inkscape:window-maximized="0"
     inkscape:current-layer="layer1" />
  <defs
     id="defs2">
    <linearGradient
       inkscape:collect="always"
       id="linearGradient1411">
      <stop
         style="stop-color:#5a350c;stop-opacity:1;"
         offset="0"
         id="stop1407" />
      <stop
         style="stop-color:#a9651b;stop-opacity:1;"
         offset="0.0462779"
         id="stop1541" />
      <stop
         style="stop-color:#a7641a;stop-opacity:1;"
         offset="0.94211572"
         id="stop1409" />
      <stop
         style="stop-color:#e69037;stop-opacity:1;"
         offset="1"
         id="stop1539" />
    </linearGradient>
    <linearGradient
       inkscape:collect="always"
       xlink:href="#linearGradient1411"
       id="linearGradient1413"
       x1="39.622482"
       y1="1.198929"
       x2="39.622482"
       y2="78.581482"
       gradientUnits="userSpaceOnUse" />
  </defs>
  <g
     inkscape:label="Layer 1"
     inkscape:groupmode="layer"
     id="layer1">
    <path
       id="rect234"
       style="fill:url(#linearGradient1413);stroke-width:0.297131;stroke-linecap:round;stroke-linejoin:round;fill-opacity:1"
       d="m 0.7303515,0.61517291 c -0.0346421,0.006031 -0.0531368,0.0281792 -0.0531368,0.0281792 0,0 0.071867,0.0160658 0.19855926,0.0414252 -0.0404056,-0.0381767 -0.0770758,-0.0632028 -0.10557217,-0.0688844 -0.0150853,-0.002983 -0.0283036,-0.00275 -0.0398509,-7.4573e-4 z M 0.87577528,0.6847797 C 1.0685318,0.86690577 1.3901196,1.5344686 1.7888684,3.7118297 L 10.212609,4.709446 2.0748217,5.4710256 c 0.00467,0.031572 0.00967,0.076665 0.014334,0.1086247 L 12.732706,6.8402791 2.3841984,7.8087519 C 2.499503,8.7624075 3.261331,9.829776 3.3825885,11.060759 c 0.021167,0.214864 -0.020531,0.495283 0,0.726897 l 3.6230089,0.498085 -3.6230089,0.386812 c 0.085084,1.081811 -0.072593,2.323218 0,3.669888 l 5.4554882,0.678485 -5.4554882,0.53036 c 0.015342,0.31502 -0.014693,0.628398 0,0.954263 l 7.2883165,0.883211 -7.2883165,0.69149 c 0.047813,1.195705 -0.039547,2.495701 0,3.797543 l 4.768221,0.561669 -4.768221,0.441243 c 0.04117,1.459265 -0.030665,2.951315 0,4.500594 L 11.1292,30.279683 3.3825885,30.986592 c 0.010708,0.62466 -0.00898,1.219402 0,1.852884 l 6.6010494,0.754836 -6.6010494,0.594668 c 0.015998,1.321791 -0.00827,2.663842 0,4.004438 l 8.0902445,0.925361 -8.0902445,0.730027 c 0.00359,0.963192 5.5e-4,1.922847 0,2.883984 l 4.4245877,0.489655 -4.4245877,0.38681 c -0.00325,1.716886 0.017061,3.411567 0,5.085868 l 6.0284433,0.683059 -6.0284433,0.540957 c -0.012569,1.017053 0.017974,1.990168 0,2.976231 l 6.4863888,0.744717 -6.4863888,0.590576 c -0.00541,0.257994 0.00582,0.518976 0,0.774103 l 3.9666422,0.529398 -3.9666422,0.421253 c -0.018968,0.751298 0.022547,1.48661 0,2.207427 L 15.825408,59.322312 3.3825885,60.243576 c -0.034588,0.908004 0.041096,1.792056 0,2.630125 l 8.5481895,1.025796 -8.5481895,0.819626 c -0.056269,0.950371 -0.3265436,1.841707 -0.3929237,2.659506 l 5.2758059,0.624776 -5.3736873,0.502901 c -0.048665,0.510773 -0.099224,0.991405 -0.1527648,1.428984 -0.1580001,1.291304 -0.3062333,2.383955 -0.4460599,3.326673 l 7.5760186,0.897181 -7.8357539,0.733401 c -0.3260613,1.897111 -0.5941408,2.8741 -0.8029764,3.33558 1.3961851,-0.189937 6.8378144,-1.528586 13.879669,-1.505818 h 48.796219 c 8.565481,0.473911 13.208754,1.302467 14.22915,1.498594 -0.212845,-0.651982 -0.518421,-2.2798 -0.923925,-5.584437 l -9.897209,-0.927285 9.700742,-0.718226 c -0.01786,-0.157852 -0.03247,-0.26011 -0.05067,-0.424385 C 76.812378,69.195509 76.66996,67.42753 76.53844,65.38099 l -6.70417,-0.93259 6.60734,-0.726172 c -0.0041,-0.0663 -0.0078,-0.12999 -0.01157,-0.196779 L 68.230725,62.554328 76.15387,61.79588 c -0.0412,-0.80981 0.03809,-1.640207 0,-2.502954 l -8.38144,-1.000265 8.38144,-0.783495 c -0.05459,-1.359422 0.04647,-2.76705 0,-4.208679 L 66.168922,52.136922 76.15387,51.22312 c -0.02381,-0.824142 0.02104,-1.634642 0,-2.476216 l -6.319637,-0.71389 6.319637,-0.560947 c -0.03552,-1.534419 0.02564,-3.084285 0,-4.636916 L 67.199824,42.035035 76.15387,41.40448 c -0.01157,-0.797781 0.0088,-1.596205 0,-2.391678 l -5.976003,-0.765915 5.976003,-0.603579 c -0.0014,-0.150977 0.0014,-0.299466 0,-0.450154 l -7.579511,-0.840339 7.579511,-0.662831 c -0.0054,-0.912926 0.0014,-1.811568 0,-2.706717 l -8.037807,-0.89212 8.037807,-0.7045 c 0.002,-1.508012 -0.01488,-2.952615 0,-4.366195 l -9.641314,-1.085044 9.641314,-0.859611 c 0.0014,-0.106513 -0.002,-0.220955 0,-0.326839 L 69.834233,24.19909 76.15387,23.763627 c 0.008,-0.427284 -0.0095,-0.859802 0,-1.27315 l -5.976003,-0.658978 5.976003,-0.523618 c 0.0047,-0.161711 -0.0047,-0.323788 0,-0.48291 l -3.3416,-0.414028 3.3416,-0.329247 c 0.0113,-0.346975 -0.01258,-0.682816 0,-1.01568 l -4.945101,-0.549147 4.945101,-0.437872 c 0.05128,-1.175251 -0.06914,-2.249158 0,-3.193962 l -5.403397,-0.629832 5.403397,-0.505552 c 0.156333,-1.821975 0.32497,-3.400402 0.498851,-4.7611973 L 69.146968,8.0994626 76.873652,7.3764194 c 0.166304,-1.11876 0.33302,-2.053613 0.494305,-2.8413513 L 72.812273,3.9955552 77.583995,3.5490124 c 0.549809,-2.3312953 0.984056,-2.90565933 0.984056,-2.90565933 0,0 -7.892629,1.43579953 -12.829105,1.42055543 H 14.651879 C 5.2827475,1.6278833 1.6834085,0.84645276 0.87577528,0.6847797 Z M 78.135285,78.220901 c 0.305691,0.93636 0.43278,0.07972 0.43278,0.07972 0,0 -0.29802,-0.05382 -0.43278,-0.07972 z m -76.9050393,0.0072 c -0.1324768,0.01804 -0.55302968,0.0725 -0.55302968,0.0725 0,0 0.18619607,0.73815 0.55302968,-0.0725 z"
       sodipodi:nodetypes="cccsscccccccsccccccccccccccccccccccccccccccccccccccccccsccccssccccsccccccccccccccccccccccccccccccccccccccccccccccccccccsscccccccc" />
  </g>
</svg>
