<?xml version="1.0" encoding="UTF-8" standalone="no"?>
<!-- Created with Inkscape (http://www.inkscape.org/) -->

<svg
   width="100"
   height="100"
   viewBox="0 0 26.458333 26.458333"
   version="1.1"
   id="svg5"
   inkscape:export-filename="favicon.svg"
   inkscape:export-xdpi="96"
   inkscape:export-ydpi="96"
   xmlns:inkscape="http://www.inkscape.org/namespaces/inkscape"
   xmlns:sodipodi="http://sodipodi.sourceforge.net/DTD/sodipodi-0.dtd"
   xmlns="http://www.w3.org/2000/svg"
   xmlns:svg="http://www.w3.org/2000/svg">
  <sodipodi:namedview
     id="namedview7"
     pagecolor="#ffffff"
     bordercolor="#000000"
     borderopacity="0.25"
     inkscape:showpageshadow="2"
     inkscape:pageopacity="0.0"
     inkscape:pagecheckerboard="0"
     inkscape:deskcolor="#d1d1d1"
     inkscape:document-units="mm"
     showgrid="false" />
  <defs
     id="defs2">
    <rect
       x="1.1859244"
       y="2.5695028"
       width="96.65284"
       height="94.083336"
       id="rect265" />
  </defs>
  <g
     inkscape:label="Layer 1"
     inkscape:groupmode="layer"
     id="layer1">
    <circle
       style="fill:#e1ffc6;fill-opacity:1;stroke:none;stroke-width:1.21708;stroke-linejoin:round;stroke-dasharray:none;stroke-opacity:1;paint-order:stroke fill markers"
       id="path2870"
       cx="13.229167"
       cy="13.229167"
       r="13.126289" />
    <g
       aria-label="B"
       transform="matrix(0.5798759,0,0,0.5798759,-15.133563,-4.2705091)"
       id="text263"
       style="font-size:48px;font-family:'Baker Signet';-inkscape-font-specification:'Baker Signet';text-align:center;text-anchor:middle;white-space:pre;shape-inside:url(#rect265);fill:#823b2f;fill-opacity:1;stroke:none;stroke-width:1.9141;stroke-linejoin:round;stroke-dasharray:none;stroke-opacity:1;paint-order:stroke fill markers">
      <path
         d="m 41.159724,49.546312 q -2.64,0 -3.984,-0.912 -1.344,-0.864 -1.344,-2.928 0,-0.144 0.24,-0.144 0.336,0 1.2,0.24 0.864,0.24 3.312,0.24 4.128,0 7.632,-0.912 3.504,-0.96 6.048,-2.592 2.592,-1.632 3.984,-3.648 1.44,-2.064 1.44,-4.224 0,-1.968 -1.104,-3.168 -1.104,-1.2 -2.928,-1.824 -1.776,-0.624 -3.888,-0.816 -2.112,-0.24 -4.176,-0.24 -0.912,0 -1.872,0.048 -0.912,0 -1.728,0 -1.104,3.888 -2.16,7.824001 -1.056,3.935999 -2.16,7.631999 -1.2,0 -2.016,-0.672 -0.816,-0.672 -0.816,-1.632 0,-0.576 0.24,-1.344 0.24,-0.768 0.432,-1.392 0.288,-0.96 1.008,-3.216 0.72,-2.256 1.728,-5.28 1.056,-3.024 2.304,-6.336 1.248,-3.312 2.544,-6.48 1.344,-3.168 2.592,-5.616 -2.016,0.336 -3.408,0.96 -1.344,0.624 -2.112,1.152 -0.768,0.48 -1.104,0.48 -0.24,0 -0.624,-0.192 -0.336,-0.24 -0.624,-0.528 -0.288,-0.336 -0.288,-0.576 2.4,-1.008 4.992,-1.824 2.64,-0.816 6.384,-0.816 1.584,0 3.504,0.288 1.92,0.240001 3.648,1.056 1.728,0.768 2.832,2.304 1.104,1.488 1.104,3.984 0,2.352 -1.008,4.032 -1.008,1.632 -2.64,2.736 -1.632,1.056 -3.552,1.68 -1.92,0.624 -3.792,0.912 3.552,0.192 5.712,1.008 2.208,0.816 3.312,1.968 1.152,1.104 1.536,2.352 0.384,1.248 0.384,2.4 0,2.784 -1.44,5.04 -1.44,2.256 -3.792,3.936 -2.352,1.68 -5.136,2.784 -2.784,1.152 -5.52,1.68 -2.736,0.576 -4.896,0.576 z m 3.12,-21.984 q 2.64,-0.096 5.232,-0.576 2.64,-0.528 4.8,-1.632 2.16,-1.104 3.456,-2.88 1.344,-1.776 1.344,-4.416 0,-2.496 -1.2,-3.84 -1.152,-1.344 -3.024,-1.872 -1.824,-0.528 -3.888,-0.528 -0.24,0 -0.48,0 -0.192,0 -0.432,0.048 -1.728,3.36 -3.168,7.392 -1.392,4.032 -2.64,8.304 z"
         style="font-family:'Dancing Script';-inkscape-font-specification:'Dancing Script';fill:#823b2f;fill-opacity:1;stroke:none;stroke-width:1.9141;stroke-dasharray:none;stroke-opacity:1;paint-order:stroke fill markers"
         id="path1083" />
    </g>
  </g>
</svg>
