<?xml version="1.0" encoding="UTF-8" standalone="no"?>
<!-- Created with Inkscape (http://www.inkscape.org/) -->

<svg
   width="93.377831"
   height="98.510147"
   viewBox="0 0 24.706217 26.064143"
   version="1.1"
   id="svg9801"
   inkscape:export-filename="logo.svg"
   inkscape:export-xdpi="96"
   inkscape:export-ydpi="96"
   inkscape:version="1.2.1 (9c6d41e4, 2022-07-14)"
   sodipodi:docname="bountifull-logo-testchange.svg"
   xmlns:inkscape="http://www.inkscape.org/namespaces/inkscape"
   xmlns:sodipodi="http://sodipodi.sourceforge.net/DTD/sodipodi-0.dtd"
   xmlns:xlink="http://www.w3.org/1999/xlink"
   xmlns="http://www.w3.org/2000/svg"
   xmlns:svg="http://www.w3.org/2000/svg">
  <sodipodi:namedview
     id="namedview9803"
     pagecolor="#ffffff"
     bordercolor="#000000"
     borderopacity="0.25"
     inkscape:showpageshadow="2"
     inkscape:pageopacity="0.0"
     inkscape:pagecheckerboard="0"
     inkscape:deskcolor="#d1d1d1"
     inkscape:document-units="mm"
     showgrid="false"
     inkscape:zoom="5.5274488"
     inkscape:cx="67.571861"
     inkscape:cy="137.67654"
     inkscape:window-width="2560"
     inkscape:window-height="1080"
     inkscape:window-x="0"
     inkscape:window-y="0"
     inkscape:window-maximized="0"
     inkscape:current-layer="layer1" />
  <defs
     id="defs9798">
    <linearGradient
       inkscape:collect="always"
       id="linearGradient10265">
      <stop
         style="stop-color:#000000;stop-opacity:0.2109375;"
         offset="0"
         id="stop10261" />
      <stop
         style="stop-color:#000000;stop-opacity:0.0390625;"
         offset="1"
         id="stop10263" />
    </linearGradient>
    <linearGradient
       inkscape:collect="always"
       id="linearGradient10024">
      <stop
         style="stop-color:#e52626;stop-opacity:1;"
         offset="0"
         id="stop10020" />
      <stop
         style="stop-color:#851717;stop-opacity:1;"
         offset="1"
         id="stop10022" />
    </linearGradient>
    <linearGradient
       inkscape:collect="always"
       xlink:href="#linearGradient10024"
       id="linearGradient10026"
       x1="11.963027"
       y1="27.202602"
       x2="11.657241"
       y2="35.864269"
       gradientUnits="userSpaceOnUse"
       gradientTransform="translate(-0.07218024)" />
    <linearGradient
       inkscape:collect="always"
       xlink:href="#linearGradient10265"
       id="linearGradient10267"
       x1="13.082937"
       y1="19.188309"
       x2="12.99987"
       y2="26.332006"
       gradientUnits="userSpaceOnUse" />
  </defs>
  <g
     inkscape:label="Layer 1"
     inkscape:groupmode="layer"
     id="layer1"
     transform="translate(-0.90545095,-0.3093969)">
    <path
       style="fill:url(#linearGradient10267);fill-opacity:1;stroke-width:1.21708;stroke-linejoin:round;paint-order:stroke fill markers"
       d="m 1.6197922,20.600435 10.6324828,5.773105 0.622997,-0.332265 0.830662,0.332265 10.632483,-4.527112 -11.79541,-5.108575 z"
       id="path10259"
       sodipodi:nodetypes="ccccccc" />
    <g
       id="g10257"
       transform="matrix(0.96474965,0,0,0.96474965,2.1984863,-25.298557)">
      <path
         style="fill:#c87137;fill-opacity:1;stroke-width:1.21708;stroke-linejoin:round;paint-order:stroke fill markers"
         d="m -1.3402807,31.496599 0.67014036,-0.478672 0.2393358,0.09573 -0.095734,-0.67014 11.20091854,-2.536961 0.622273,0.478672 1.00521,-0.33507 10.913714,2.632694 -0.09573,0.478672 h 0.622273 l 0.526539,0.478672 -1.100945,4.020842 -0.622273,0.239336 0.861609,0.382937 -1.100945,3.829374 -0.33507,0.287203 0.33507,0.287203 -1.100945,3.781507 -0.574406,0.33507 0.382937,0.718007 -1.00521,3.781507 -8.089551,3.302835 -0.861613,-0.622274 -0.574406,0.526539 -8.7596925,-4.930318 -0.6701404,-2.53696 0.7658746,-0.239336 -0.622273,-0.287203 -1.05307794,-4.06871 0.5265389,-0.382937 -0.3829373,-0.239336 -0.6701404,-4.06871 0.287203,-0.239335 -0.2393359,-0.191469 z"
         id="path4044" />
      <path
         id="path23587-0-8-1"
         style="fill:url(#linearGradient10026);fill-opacity:1;stroke:none;stroke-width:1.414;stroke-linejoin:round;stroke-opacity:1"
         d="m 12.920461,26.543626 a 1.8954432,1.8954432 0 0 0 -1.745113,1.158069 1.8954432,1.8954432 0 0 0 -1.4309202,-0.652673 1.8954432,1.8954432 0 0 0 -1.875338,1.62109 1.8954432,1.8954432 0 0 0 -1.156519,-0.393775 1.8954432,1.8954432 0 0 0 -1.535306,0.785999 1.8954432,1.8954432 0 0 0 -1.279509,-0.497644 1.8954432,1.8954432 0 0 0 -1.895491,1.895491 1.8954432,1.8954432 0 0 0 0.596346,1.374593 v 0.429948 l 7.395414,2.564702 -0.10542,-1.157036 1.5880172,-0.361218 1.876888,0.433049 v 1.076936 l 7.00164,-2.123384 -0.688847,-0.426331 a 1.8954432,1.8954432 0 0 0 0.274402,-0.981335 1.8954432,1.8954432 0 0 0 -1.895492,-1.894975 1.8954432,1.8954432 0 0 0 -0.635103,0.110588 1.8954432,1.8954432 0 0 0 -1.891358,-1.770952 1.8954432,1.8954432 0 0 0 -0.780314,0.169499 1.8954432,1.8954432 0 0 0 -1.817977,-1.360641 z" />
      <g
         id="g7192">
        <path
           id="path22149-7"
           style="fill:#c87137;fill-opacity:1;stroke:none;stroke-width:0.405424;stroke-linejoin:round;stroke-opacity:1"
           d="m 21.590325,30.224221 -1.188558,0.702283 -0.165881,1.511535 2.627746,-0.808736 0.115239,-0.749308 z" />
        <path
           id="path22417-2"
           style="fill:#a05a2c;fill-opacity:1;stroke:none;stroke-width:0.405424;stroke-linejoin:round;stroke-opacity:1"
           d="m 20.533542,31.020038 -0.160714,1.413867 1.060917,-0.326595 0.07597,-0.572058 z" />
        <path
           style="fill:#d38d5f;fill-opacity:1;stroke-width:1.21708;stroke-linejoin:round;paint-order:stroke fill markers"
           d="m 20.72007,30.963175 0.841898,-0.561266 1.075759,0.514493 -1.075759,0.561266 z"
           id="path6512" />
      </g>
      <path
         style="fill:#d38d5f;fill-opacity:1;stroke:none;stroke-width:0.387674;stroke-linejoin:round;stroke-opacity:1"
         d="m 23.41577,31.307089 0.637469,0.293654 -11.540492,3.592949 -0.698401,-0.294204 z"
         id="path16932"
         sodipodi:nodetypes="ccccc" />
      <path
         style="fill:#d38d5f;fill-opacity:1;stroke:none;stroke-width:0.387674;stroke-linejoin:round;stroke-opacity:1"
         d="m 22.500984,36.019248 0.637469,0.336468 -10.352451,3.348492 -0.877,-0.379825 z"
         id="path16932-8"
         sodipodi:nodetypes="ccccc" />
      <path
         style="fill:#d38d5f;fill-opacity:1;stroke:none;stroke-width:0.387674;stroke-linejoin:round;stroke-opacity:1"
         d="m 21.61767,40.334747 0.423152,0.464897 -9.754514,3.550137 -0.80556,-0.551067 z"
         id="path16932-5"
         sodipodi:nodetypes="ccccc" />
      <path
         style="fill:#d38d5f;fill-opacity:1;stroke:none;stroke-width:0.387674;stroke-linejoin:round;stroke-opacity:1"
         d="m 20.405756,44.981964 0.423152,0.464897 -8.54005,3.207648 -0.805558,-0.508257 z"
         id="path16932-56"
         sodipodi:nodetypes="ccccc" />
      <path
         style="fill:#a05a2c;fill-opacity:1;stroke:none;stroke-width:0.387674;stroke-linejoin:round;stroke-opacity:1"
         d="m -0.13992524,35.899531 c 0.176315,0.12679 10.61133024,3.50678 10.61133024,3.50678 l -0.04349,3.592398 -9.86487124,-3.248268 z"
         id="path15865-8-1"
         sodipodi:nodetypes="ccccc" />
      <path
         style="fill:#d38d5f;fill-opacity:1;stroke:none;stroke-width:0.387674;stroke-linejoin:round;stroke-opacity:1"
         d="m 0.40135446,35.445839 -0.63747,0.293654 10.71894554,3.678572 0.6984,-0.294206 z"
         id="path16932-6-6"
         sodipodi:nodetypes="ccccc" />
      <path
         style="fill:#a05a2c;fill-opacity:1;stroke:none;stroke-width:0.387674;stroke-linejoin:round;stroke-opacity:1"
         d="m 1.3124286,45.275164 c 0.176315,0.126791 9.0396684,3.207102 9.0396684,3.207102 L 10.237173,52.031853 1.8725196,47.41363 Z"
         id="path15865-8-14"
         sodipodi:nodetypes="ccccc" />
      <path
         style="fill:#d38d5f;fill-opacity:1;stroke:none;stroke-width:0.387674;stroke-linejoin:round;stroke-opacity:1"
         d="m 1.7358472,44.816416 -0.423152,0.336465 9.0758448,3.16484 0.6984,-0.294206 z"
         id="path16932-6-0"
         sodipodi:nodetypes="ccccc" />
      <path
         style="fill:#a05a2c;fill-opacity:1;stroke:none;stroke-width:0.387674;stroke-linejoin:round;stroke-opacity:1"
         d="m 0.32370826,40.727074 c 0.176315,0.12679 9.96837474,3.07867 9.96837474,3.07867 L 10.17716,47.483763 1.2767163,44.278307 Z"
         id="path15865-8-4"
         sodipodi:nodetypes="ccccc" />
      <path
         style="fill:#d38d5f;fill-opacity:1;stroke:none;stroke-width:0.387674;stroke-linejoin:round;stroke-opacity:1"
         d="M 1.007865,40.134834 0.22751596,40.514113 10.30351,43.721764 11.00191,43.427557 Z"
         id="path16932-6-8"
         sodipodi:nodetypes="ccccc" />
      <path
         style="fill:#a05a2c;fill-opacity:1;stroke:none;stroke-width:0.387674;stroke-linejoin:round;stroke-opacity:1"
         d="m -1.0686332,31.6764 c 0.17631496,0.126791 11.3257202,3.506781 11.3257202,3.506781 l 0.170832,3.763641 -10.54354424,-3.719188 z"
         id="path15865-8"
         sodipodi:nodetypes="ccccc" />
      <g
         id="g7187">
        <path
           id="path22149-7-4"
           style="fill:#c87137;fill-opacity:1;stroke:none;stroke-width:0.405424;stroke-linejoin:round;stroke-opacity:1"
           d="m 1.263329,30.136899 1.188558,0.702283 0.165881,1.511535 -2.627746,-0.808736 -0.115239,-0.749308 z" />
        <g
           id="g7181">
          <path
             style="fill:#d38d5f;fill-opacity:1;stroke-width:1.21708;stroke-linejoin:round;paint-order:stroke fill markers"
             d="M 2.133584,30.875853 1.291686,30.314587 0.215927,30.82908 1.291686,31.390346 Z"
             id="path6512-6" />
          <path
             style="fill:#a05a2c;fill-opacity:1;stroke-width:1.21708;stroke-linejoin:round;paint-order:stroke fill markers"
             d="m 0.28063301,31.10349 1.02898769,0.467723 0.046772,0.420949 -1.16930413,-0.420949 z"
             id="path6832" />
        </g>
      </g>
      <path
         style="fill:#a05a2c;fill-opacity:1;stroke-width:1.21708;stroke-linejoin:round;paint-order:stroke fill markers"
         d="m 10.204525,33.897792 0.04511,0.667668 0.956392,0.24361 0.261655,0.09925 0.03609,-0.424061 z"
         id="path7334" />
      <path
         style="fill:#d38d5f;fill-opacity:1;stroke:none;stroke-width:0.387674;stroke-linejoin:round;stroke-opacity:1"
         d="m -0.44304584,31.212597 -0.63746896,0.293654 11.5404958,3.59295 0.6984,-0.294206 z"
         id="path16932-6"
         sodipodi:nodetypes="ccccc" />
      <path
         style="fill:#a05a2c;fill-opacity:1;stroke-width:1.21708;stroke-linejoin:round;paint-order:stroke fill markers"
         d="m 11.82319,34.990902 c 0.09573,0.191468 0.670142,0.430805 0.670142,0.430805 l -0.143603,3.685773 -0.765873,-0.52654 z"
         id="path5894" />
      <path
         style="fill:#a05a2c;fill-opacity:1;stroke-width:1.21708;stroke-linejoin:round;paint-order:stroke fill markers"
         d="m 11.775325,39.490416 0.670139,0.574405 -0.09573,3.446436 -0.718008,-0.430805 z"
         id="path5896" />
      <path
         style="fill:#a05a2c;fill-opacity:1;stroke-width:1.21708;stroke-linejoin:round;paint-order:stroke fill markers"
         d="m 11.440253,43.894196 0.622274,0.574406 -0.09573,3.254967 -0.622274,-0.382937 z"
         id="path5898" />
      <path
         style="fill:#a05a2c;fill-opacity:1;stroke-width:1.21708;stroke-linejoin:round;paint-order:stroke fill markers"
         d="m 11.918926,52.366686 0.191469,-3.350701 -0.574405,-0.574408 -0.239337,3.590039 z"
         id="path5900" />
      <path
         style="fill:#d38d5f;fill-opacity:1;stroke-width:1.21708;stroke-linejoin:round;paint-order:stroke fill markers"
         d="m 11.412409,33.535643 1.73057,0.327406 -1.590254,0.561266 -1.356393,-0.654812 z"
         id="path7194" />
      <ellipse
         style="fill:#e56161;fill-opacity:1;stroke-width:1.21708;stroke-linejoin:round;paint-order:stroke fill markers"
         id="path9828"
         cx="3.8255692"
         cy="29.503799"
         rx="0.6857152"
         ry="0.70376033" />
      <ellipse
         style="fill:#e56161;fill-opacity:1;stroke-width:1.21708;stroke-linejoin:round;paint-order:stroke fill markers"
         id="path9828-1"
         cx="6.8932424"
         cy="29.305304"
         rx="0.6857152"
         ry="0.70376033" />
      <ellipse
         style="fill:#e56161;fill-opacity:1;stroke-width:1.21708;stroke-linejoin:round;paint-order:stroke fill markers"
         id="path9828-7"
         cx="9.7443743"
         cy="28.366955"
         rx="0.6857152"
         ry="0.70376033" />
      <ellipse
         style="fill:#e56161;fill-opacity:1;stroke-width:1.21708;stroke-linejoin:round;paint-order:stroke fill markers"
         id="path9828-18"
         cx="12.956409"
         cy="27.789513"
         rx="0.6857152"
         ry="0.70376033" />
      <ellipse
         style="fill:#e56161;fill-opacity:1;stroke-width:1.21708;stroke-linejoin:round;paint-order:stroke fill markers"
         id="path9828-78"
         cx="15.69927"
         cy="28.944401"
         rx="0.6857152"
         ry="0.70376033" />
      <ellipse
         style="fill:#e56161;fill-opacity:1;stroke-width:1.21708;stroke-linejoin:round;paint-order:stroke fill markers"
         id="path9828-77"
         cx="18.40604"
         cy="30.532373"
         rx="0.6857152"
         ry="0.70376033" />
      <ellipse
         style="fill:#e56161;fill-opacity:1;stroke-width:1.21708;stroke-linejoin:round;paint-order:stroke fill markers"
         id="path9828-4"
         cx="13.786486"
         cy="29.882748"
         rx="0.6857152"
         ry="0.70376033" />
      <ellipse
         style="fill:#e56161;fill-opacity:1;stroke-width:1.21708;stroke-linejoin:round;paint-order:stroke fill markers"
         id="path9828-49"
         cx="11.007534"
         cy="30.24365"
         rx="0.6857152"
         ry="0.70376033" />
      <ellipse
         style="fill:#e56161;fill-opacity:1;stroke-width:1.21708;stroke-linejoin:round;paint-order:stroke fill markers"
         id="path9828-15"
         cx="8.6255751"
         cy="31.001547"
         rx="0.6857152"
         ry="0.70376033" />
      <ellipse
         style="fill:#e56161;fill-opacity:1;stroke-width:1.21708;stroke-linejoin:round;paint-order:stroke fill markers"
         id="path9828-5"
         cx="14.508291"
         cy="32.409065"
         rx="0.6857152"
         ry="0.70376033" />
    </g>
  </g>
</svg>
