<?xml version="1.0" encoding="UTF-8" standalone="no"?>
<!-- Created with Inkscape (http://www.inkscape.org/) -->

<svg
   width="210mm"
   height="297mm"
   viewBox="0 0 210 297"
   version="1.1"
   id="svg6455"
   inkscape:version="1.2.1 (9c6d41e4, 2022-07-14)"
   sodipodi:docname="Fremont Stake Logo.svg"
   xmlns:inkscape="http://www.inkscape.org/namespaces/inkscape"
   xmlns:sodipodi="http://sodipodi.sourceforge.net/DTD/sodipodi-0.dtd"
   xmlns:xlink="http://www.w3.org/1999/xlink"
   xmlns="http://www.w3.org/2000/svg"
   xmlns:svg="http://www.w3.org/2000/svg">
  <sodipodi:namedview
     id="namedview6457"
     pagecolor="#ffffff"
     bordercolor="#000000"
     borderopacity="0.25"
     inkscape:showpageshadow="2"
     inkscape:pageopacity="0.0"
     inkscape:pagecheckerboard="0"
     inkscape:deskcolor="#d1d1d1"
     inkscape:document-units="mm"
     showgrid="false"
     inkscape:zoom="0.57478776"
     inkscape:cx="836.83063"
     inkscape:cy="534.98008"
     inkscape:window-width="1891"
     inkscape:window-height="935"
     inkscape:window-x="53"
     inkscape:window-y="50"
     inkscape:window-maximized="0"
     inkscape:current-layer="layer1" />
  <defs
     id="defs6452">
    <rect
       x="932.51812"
       y="1664.9624"
       width="605.44087"
       height="66.111359"
       id="rect9264" />
    <rect
       x="789.85677"
       y="1607.5499"
       width="762.02041"
       height="133.96249"
       id="rect9206" />
    <rect
       x="-83.509086"
       y="1151.7295"
       width="1958.984"
       height="368.83179"
       id="rect6929" />
    <linearGradient
       inkscape:collect="always"
       xlink:href="#linearGradient5990"
       id="linearGradient2438"
       gradientUnits="userSpaceOnUse"
       gradientTransform="matrix(0.68572036,0,0,0.68572036,-199.85724,-172.81752)"
       x1="446.02621"
       y1="403.88202"
       x2="446.90424"
       y2="314.32556" />
    <linearGradient
       inkscape:collect="always"
       id="linearGradient5990">
      <stop
         style="stop-color:#ffffff;stop-opacity:0;"
         offset="0"
         id="stop5986" />
      <stop
         style="stop-color:#7fc1dc;stop-opacity:0.60597825;"
         offset="1"
         id="stop5988" />
    </linearGradient>
    <mask
       maskUnits="userSpaceOnUse"
       id="mask2693">
      <circle
         style="fill:#ffffff;fill-opacity:1;stroke-width:1.08432;stroke-linecap:round;stroke-linejoin:round"
         id="circle2695"
         cx="86.750931"
         cy="-95.939285"
         r="51.177406" />
    </mask>
  </defs>
  <g
     inkscape:label="Logo"
     inkscape:groupmode="layer"
     id="layer1">
    <g
       id="g9738">
      <g
         id="g9387"
         transform="matrix(0.97727364,0,0,1,1.6907035,0)">
        <ellipse
           style="fill:#193469;fill-opacity:1;stroke:none;stroke-width:10.8092;stroke-linecap:round;stroke-linejoin:round;stroke-dasharray:none;stroke-opacity:1"
           id="BadgeBG-7"
           cx="104.77593"
           cy="147.52809"
           rx="90.380844"
           ry="88.603294"
           inkscape:label="Blue Circle" />
        <ellipse
           style="fill:none;stroke:#ffffff;stroke-width:1.53029;stroke-linecap:round;stroke-linejoin:round;stroke-dasharray:none;stroke-opacity:1"
           id="ColorCircle-30"
           cx="104.77593"
           cy="147.52809"
           rx="90.380844"
           ry="88.603294"
           inkscape:label="Circle Outline" />
        <g
           id="g6780"
           transform="translate(0,46.104815)">
          <ellipse
             style="fill:url(#linearGradient2438);fill-opacity:1;stroke:none;stroke-width:7.78351;stroke-linecap:round;stroke-linejoin:round;stroke-dasharray:none;stroke-opacity:1"
             id="Gradient"
             cx="104.77593"
             cy="101.42327"
             rx="65.081078"
             ry="63.801105"
             inkscape:label="Gradient" />
          <g
             id="g2645"
             transform="matrix(1.2655622,0,0,1.2655622,-5.0127665,219.26999)"
             style="fill:#ffffff;fill-opacity:1"
             mask="url(#mask2693)"
             inkscape:label="Building">
            <path
               style="fill:#ffffff;fill-opacity:1;stroke-width:1.95173;stroke-linecap:round;stroke-linejoin:round"
               d="m 90.582443,-106.9141 33.532567,9.843089 0.30459,5.8879 11.13833,2.622401 15.65386,-2.913779 3.61244,78.380699 -62.850632,0.867261 z"
               id="path2208-3"
               sodipodi:nodetypes="cccccccc" />
            <path
               style="fill:#ffffff;fill-opacity:1;stroke-width:1.95173;stroke-linecap:round;stroke-linejoin:round"
               d="m 82.575595,-141.47427 c -4.209792,1.03823 -8.062994,2.6755 -7.936511,9.48483 l -5.911144,2.6358 1.92734,1.67457 10.716172,-4.29697 v -1.74827 l 16.255942,3.49654 -4.730169,-2.39186 -10.667643,-2.46113 c -0.465106,-4.52269 -6.3e-4,-5.57486 0.346013,-6.39351 z"
               id="path2273-8"
               sodipodi:nodetypes="cccccccccc" />
            <path
               style="fill:#ffffff;fill-opacity:1;stroke-width:1.95173;stroke-linecap:round;stroke-linejoin:round"
               d="m 74.762469,-127.79288 -2.318331,0.84396 0.498306,8.37627 -2.408289,2.33103 11.138333,-4.0793 0.723196,-1.34309 -0.512116,-8.56376 -3.23525,1.09181 0.64705,7.37495 -3.944637,1.44009 z"
               id="path2275-4"
               sodipodi:nodetypes="ccccccccccc" />
            <path
               id="path2277-0"
               style="fill:#ffffff;fill-opacity:1;stroke-width:1.95173;stroke-linecap:round;stroke-linejoin:round"
               d="m 82.405306,-118.40363 -9.238713,3.17914 v 2.78226 l -3.644738,2.25412 2.829284,3.96307 -0.281119,7.045564 -19.793624,18.009754 0.02532,4.99246 -9.033557,6.705533 -8.161259,3.281971 0.07803,52.908398 50.505445,0.794784 -2.874243,-96.974964 -1.026811,-2.18591 v -2.5833 l 0.821655,-1.78852 z m -4.539775,27.964189 c 1.034623,0.01498 1.995263,0.875348 2.022616,2.774508 l 0.0987,17.263029 -4.70824,0.225309 0.02842,-16.960205 c -0.04649,-2.107239 1.309818,-3.320718 2.5585,-3.302641 z" />
          </g>
        </g>
        <g
           aria-label="FREMONT CALIFORNIA STAKE"
           transform="matrix(0.4454727,-0.71208739,0.71208739,0.4454727,-47.898043,221.69886)"
           id="text1123-2"
           style="font-size:14.1111px;font-family:Monaco;-inkscape-font-specification:Monaco;white-space:pre;fill:#ffffff;stroke-width:40.063;stroke-linecap:round;stroke-linejoin:round">
          <path
             d="m 118.94874,33.582805 2.11381,3.03926 q 1.28149,1.842551 2.14857,2.197745 l -2.54538,1.770313 q -0.0313,-0.936491 -1.31278,-2.779042 l -4.96744,-7.14226 q -0.0264,-0.03799 -0.17175,-0.24694 -0.14532,-0.208949 -0.18496,-0.265935 -0.0528,-0.07598 -0.18496,-0.265935 -0.14532,-0.208949 -0.21716,-0.27172 -0.0528,-0.07598 -0.19074,-0.233728 -0.1189,-0.170958 -0.20396,-0.252724 -0.085,-0.08177 -0.22873,-0.207306 -0.14368,-0.12554 -0.24773,-0.194095 -0.085,-0.08177 -0.2213,-0.156104 -0.13626,-0.07434 -0.2593,-0.129681 l 5.88857,-4.0955 q 0.87378,-0.60772 0.99268,-0.436761 l 1.03048,1.481639 -0.095,0.06606 q -0.52438,-0.227156 -1.18258,-0.0794 -0.65241,0.115549 -1.04553,0.360779 -0.40633,0.226236 -1.01418,0.648997 l -1.95653,1.360763 3.3953,4.881811 q 3.00127,-2.087385 4.37144,-3.237622 0.0363,0.538443 -0.26686,1.115665 -0.29735,0.545016 -0.91513,1.115599 -0.59878,0.557372 -1.00347,0.867016 -0.40468,0.309644 -1.05053,0.758828 z"
             style="font-size:23.1379px;font-family:'Baker Signet';-inkscape-font-specification:'Baker Signet, Normal'"
             id="path6647" />
          <path
             d="m 130.87998,25.276427 6.09967,3.1368 q 1.25516,0.635467 2.70581,1.042336 l -1.69287,0.856727 q -0.59869,0.302988 -1.10612,0.222669 -0.49723,-0.111412 -1.20267,-0.480507 l -4.33658,-2.317538 q -1.32804,-0.728243 -1.69045,-0.778223 -0.53878,-0.142253 -1.37526,0.20328 l 1.88062,3.716048 q 1.01344,2.002537 1.82285,2.474604 l -2.86961,1.452256 q 0.049,-0.569362 -0.1197,-1.210101 -0.14803,-0.651187 -0.28385,-0.919569 -0.11518,-0.278829 -0.47041,-0.980749 l -3.86571,-7.638544 q -1.01345,-2.002537 -1.82286,-2.474604 0.88772,-0.449259 2.48706,-1.388313 1.61998,-0.949502 2.40448,-1.346521 1.52771,-0.773143 2.74007,-0.427204 1.23301,0.335491 1.85988,1.574174 0.66866,1.321262 0.26154,2.720177 -0.40712,1.398916 -1.42589,2.562802 z m -5.2,-3.25499 2.19406,4.33539 q 0.48553,-0.167919 0.96036,-0.408221 1.50706,-0.762695 1.89454,-1.944213 0.40812,-1.191967 -0.33368,-2.657742 -0.7209,-1.424485 -1.66287,-1.492348 -0.93177,-0.09896 -2.54231,0.664242 l -0.9703,0.49105 q 0.27214,0.640237 0.4602,1.011842 z"
             style="font-size:23.1379px;font-family:'Baker Signet';-inkscape-font-specification:'Baker Signet, Normal'"
             id="path6649" />
          <path
             d="m 140.63878,21.721664 1.97754,5.901585 2.52298,-0.845416 q 2.39135,-0.801308 3.37641,-2.522322 l 0.28144,2.150712 q -1.4551,0.609593 -2.06939,0.815434 l -6.34036,2.124567 q 0.26176,-1.039406 -0.41457,-3.057792 l -2.76414,-8.249055 q -0.71309,-2.128081 -1.4457,-2.712274 l 7.65671,-2.565654 0.65381,1.659895 q -1.21538,-0.49563 -3.51897,0.276272 l -2.04032,0.683684 1.75699,5.243416 q 3.46636,-1.161529 5.1042,-1.881163 -0.11624,0.526997 -0.56914,0.99599 -0.43832,0.439702 -1.19137,0.814049 -0.73111,0.366996 -1.20641,0.550666 -0.47531,0.183671 -1.22123,0.43362 z"
             style="font-size:23.1379px;font-family:'Baker Signet';-inkscape-font-specification:'Baker Signet, Normal'"
             id="path6651" />
          <path
             d="m 161.55197,9.2284677 2.33426,-0.3480651 q -0.0871,0.200141 -0.14795,0.4197546 -0.0414,0.1933163 -0.0462,0.4747597 -0.008,0.2585581 -0.0267,0.4484621 0.001,0.163607 0.0293,0.510293 0.0512,0.343273 0.0682,0.457697 0.0171,0.114425 0.0785,0.526353 0.0614,0.411927 0.0717,0.480582 0.0819,0.549237 0.27741,2.017282 0.21498,1.441748 0.33442,2.242719 0.11602,0.778086 0.33923,1.961275 0.2198,1.160304 0.47755,2.104407 0.54961,2.117055 1.15646,2.892136 l -3.36408,0.501623 q 0.24131,-1.205668 -0.20231,-4.180702 l -1.13291,-7.597782 q -0.0751,-0.503467 -0.23527,-0.47958 -0.1602,0.02389 -0.24632,0.387634 l -3.32105,12.870482 -6.02362,-10.588121 q -0.0628,-0.1076 -0.15537,-0.257557 -0.0697,-0.153369 -0.12908,-0.238084 -0.0365,-0.08813 -0.12225,-0.192314 -0.0662,-0.130485 -0.12225,-0.192315 -0.0331,-0.06524 -0.0891,-0.127072 -0.0331,-0.06524 -0.0823,-0.0813 -0.0526,-0.03895 -0.0984,-0.03212 -0.20596,0.03071 -0.0933,0.785913 l 1.08614,7.440999 q 0.17403,1.167129 0.28223,1.735839 0.10478,0.545825 0.32158,1.215309 0.2168,0.669485 0.50024,1.001519 l -2.7233,0.406076 0.1616,-0.328215 q 0.73695,-1.490117 -0.15027,-7.440187 l -0.8531,-5.721221 q -0.0785,-0.526352 -0.20756,-0.764436 -0.13249,-0.260969 -0.55566,-0.431807 l 2.83773,-0.423138 q 0.595,-0.08872 0.76061,0.237489 l 4.87477,9.472773 q 0.0331,0.06524 0.0765,0.199139 0.0662,0.130485 0.0994,0.195727 0.056,0.06183 0.0925,0.149957 0.0594,0.08471 0.11202,0.12366 0.0492,0.01606 0.095,0.0092 0.18308,-0.0273 0.33003,-0.61066 l 2.53611,-10.133343 q 0.21119,-0.7800896 0.44245,-0.9549353 0.14655,-0.1154264 0.35251,-0.146138 z"
             style="font-size:23.1379px;font-family:'Baker Signet';-inkscape-font-specification:'Baker Signet, Normal'"
             id="path6653" />
          <path
             d="m 180.25605,17.054033 q 0.066,-1.247699 -0.10386,-2.415208 -0.1699,-1.167508 -0.62073,-2.280378 -0.44962,-1.135974 -1.40891,-1.835523 -0.93496,-0.7214312 -2.25198,-0.7911481 -2.35676,-0.1247565 -3.6561,1.6600861 -1.29811,1.761737 -1.44122,4.465086 -0.066,1.2477 0.10386,2.415208 0.1699,1.167509 0.61951,2.303484 0.45084,1.112869 1.3858,1.8343 0.95929,0.699549 2.27631,0.769266 2.35676,0.124756 3.65488,-1.636981 1.29933,-1.784843 1.44244,-4.488192 z m 2.43722,-0.519752 q -0.18224,3.442726 -2.24542,5.650541 -2.06195,2.184708 -5.52778,2.001243 -3.46584,-0.183465 -5.11178,-2.355921 -1.64594,-2.172455 -1.47226,-5.453443 0.18224,-3.442727 2.24419,-5.627436 2.06318,-2.2078139 5.52901,-2.0243484 3.46584,0.1834654 5.11178,2.3559204 1.64594,2.172456 1.47226,5.453444 z"
             style="font-size:23.1379px;font-family:'Baker Signet';-inkscape-font-specification:'Baker Signet, Normal'"
             id="path6655" />
          <path
             d="m 186.5733,25.131497 -2.5873,-0.62135 q 1.23049,-1.655747 2.36513,-6.380371 l 1.15085,-4.792119 q 0.54571,-2.272319 -0.001,-3.165159 l 2.27232,0.545707 q 0.35997,0.08645 0.52375,0.197168 0.16918,0.08822 0.28973,0.378925 0.17184,0.374409 0.79524,2.237417 0.6288,1.84051 0.84741,2.416516 l 2.95889,7.397203 q 0.25279,0.631809 0.34278,0.653421 0.15749,0.03782 0.26015,-0.389645 l 1.90727,-7.941868 q 0.44846,-1.867352 0.15164,-3.009444 l 2.33981,0.561916 q -0.98832,1.142805 -1.48,3.190143 l -2.16122,8.999284 q -0.1783,0.742441 -0.45748,2.10314 l -1.59738,-0.383616 -5.41936,-13.699082 q -0.0981,-0.285302 -0.18804,-0.306914 -0.13499,-0.03242 -0.21604,0.305055 l -1.38858,5.78204 q -0.34039,1.417387 -0.48627,2.024839 -0.12339,0.612855 -0.24686,1.820583 -0.12347,1.207728 0.0249,2.076211 z"
             style="font-size:23.1379px;font-family:'Baker Signet';-inkscape-font-specification:'Baker Signet, Normal'"
             id="path6657" />
          <path
             d="m 204.55244,30.794826 -2.85908,-1.199429 q 0.77374,-0.528517 1.64198,-2.598149 l 4.09059,-9.750743 -2.83774,-1.190478 q -0.89613,-0.37594 -1.71181,-0.166117 l 1.0712,-1.357203 10.73222,4.502334 q -0.87428,0.887801 -2.98659,0.0017 l -2.347,-0.984605 -4.09059,9.750742 q -0.86824,2.069633 -0.70318,2.991992 z"
             style="font-size:23.1379px;font-family:'Baker Signet';-inkscape-font-specification:'Baker Signet, Normal'"
             id="path6659" />
          <path
             d="m 233.05655,30.548948 -1.77238,2.316602 -0.0564,-0.04041 q 0.0815,-0.709999 0.0148,-1.213051 -0.0344,-0.508396 -0.49084,-1.26202 -0.43761,-0.740155 -1.34065,-1.38668 -1.411,-1.010195 -2.89578,-0.963408 -1.48478,0.04679 -2.67455,0.873919 -1.18977,0.827131 -2.19996,2.238131 -1.65672,2.314039 -1.52209,4.630042 0.13464,2.316003 2.35461,3.905377 2.06947,1.481619 4.18409,1.032064 l -0.0808,0.11288 q -0.57918,0.808973 -2.39213,0.876918 -1.79413,0.08141 -3.76953,-1.332859 -2.52099,-1.804882 -2.77341,-4.632062 -0.25243,-2.827181 1.66555,-5.466391 2.10121,-2.934879 4.9718,-3.526161 2.90287,-0.596626 5.74368,1.437233 0.52677,0.377139 1.45119,1.152795 0.92441,0.775655 1.58288,1.247079 z"
             style="font-size:23.1379px;font-family:'Baker Signet';-inkscape-font-specification:'Baker Signet, Normal'"
             id="path6661" />
          <path
             d="m 237.11344,44.599686 2.34846,-4.650323 q 0.27731,-0.507639 0.11344,-0.670984 -0.11471,-0.114341 -0.67062,0.115613 l -4.92128,2.085812 z m -1.39236,9.066241 -1.76985,-1.764122 2.78742,-6.368936 -3.68717,-3.675253 q -4.34963,1.47953 -5.39503,2.528326 -0.29402,0.294974 -0.57155,0.671726 l -2.04843,-2.041808 0.81789,-0.09949 q 1.73394,-0.199139 7.30971,-2.253289 5.57577,-2.05415 6.52317,-3.004621 l 0.45742,-0.426126 1.93372,1.927466 q -0.19575,0.360259 -0.94602,1.80124 -0.73389,1.457316 -1.01115,1.997678 -0.26088,0.556696 -0.91325,1.833909 -0.61965,1.27716 -0.96198,2.04668 -0.326,0.753134 -0.81503,1.866472 -0.45631,1.113286 -0.81466,2.095526 -0.34201,0.965852 -0.61859,1.931597 z"
             style="font-size:23.1379px;font-family:'Baker Signet';-inkscape-font-specification:'Baker Signet, Normal'"
             id="path6663" />
          <path
             d="m 240.93675,52.127401 5.15989,-3.917646 q 1.78753,-1.357184 2.10628,-2.238318 l 1.87487,2.469376 q -0.93437,0.07029 -2.72191,1.427478 l -8.60596,6.534073 1.06336,1.400542 q 1.38517,1.82439 3.24709,2.095703 l -1.99809,0.965074 q -0.47503,-0.51087 -0.90877,-1.082144 l -3.87567,-5.104605 q 1.28655,0.01093 4.65891,-2.549533 z"
             style="font-size:23.1379px;font-family:'Baker Signet';-inkscape-font-specification:'Baker Signet, Normal'"
             id="path6665" />
          <path
             d="m 245.01487,61.627874 7.37826,-4.609633 q 1.90343,-1.189188 2.3009,-2.037723 l 1.6428,2.629485 q -0.9369,-0.01488 -2.84033,1.17431 l -7.37826,4.609633 q -1.90343,1.189188 -2.3009,2.037723 l -1.6428,-2.629486 q 0.9369,0.01488 2.84033,-1.174309 z"
             style="font-size:23.1379px;font-family:'Baker Signet';-inkscape-font-specification:'Baker Signet, Normal'"
             id="path6667" />
          <path
             d="m 252.37017,66.943021 -3.31096,1.656136 q -2.00727,1.004032 -2.48314,1.811218 l -1.38701,-2.772933 q 0.9313,0.103329 2.93857,-0.900703 l 7.78077,-3.891919 q 0.0414,-0.0207 0.26902,-0.134561 0.22763,-0.11386 0.28971,-0.144912 0.0828,-0.0414 0.28971,-0.144912 0.22762,-0.11386 0.30005,-0.175956 0.0828,-0.0414 0.25866,-0.155255 0.18625,-0.09316 0.27936,-0.165605 0.0931,-0.07245 0.23797,-0.196642 0.14484,-0.124194 0.22761,-0.217335 0.0931,-0.07245 0.18622,-0.196634 0.0931,-0.124185 0.16553,-0.23802 l 3.20876,6.414995 q 0.47614,0.951903 0.2899,1.04506 l -1.6141,0.807366 -0.0518,-0.103467 q 0.3,-0.486384 0.24816,-1.158969 -0.0208,-0.662242 -0.20713,-1.086463 -0.16563,-0.434573 -0.49685,-1.096766 l -1.06614,-2.131434 -5.31824,2.660168 q 1.63544,3.269579 2.57731,4.790525 -0.53809,-0.04131 -1.06587,-0.424083 -0.49675,-0.372435 -0.97284,-1.065647 -0.46575,-0.67252 -0.71416,-1.117427 -0.24842,-0.444907 -0.60034,-1.148487 z"
             style="font-size:23.1379px;font-family:'Baker Signet';-inkscape-font-specification:'Baker Signet, Normal'"
             id="path6669" />
          <path
             d="m 260.05908,85.676571 q 1.18965,-0.381908 2.22045,-0.955832 1.03081,-0.573923 1.91065,-1.390996 0.90187,-0.824146 1.21461,-1.969485 0.34185,-1.13038 -0.0613,-2.38612 -0.72139,-2.247114 -2.85159,-2.826911 -2.10818,-0.58687 -4.68575,0.240597 -1.18965,0.381908 -2.22045,0.955832 -1.0308,0.573924 -1.93267,1.398069 -0.87985,0.817073 -1.22169,1.947454 -0.31274,1.145339 0.0904,2.401079 0.72138,2.247113 2.82956,2.833983 2.1302,0.579798 4.70777,-0.24767 z m 1.35238,2.093148 q -3.28254,1.053783 -6.07967,-0.08954 -2.77511,-1.1504 -3.83596,-4.454978 -1.06086,-3.304579 0.38439,-5.615412 1.44525,-2.310833 4.57358,-3.31511 3.28255,-1.053783 6.05765,0.09662 2.79713,1.143327 3.85799,4.447906 1.06085,3.304578 -0.38439,5.615411 -1.44525,2.310833 -4.57359,3.31511 z"
             style="font-size:23.1379px;font-family:'Baker Signet';-inkscape-font-specification:'Baker Signet, Normal'"
             id="path6671" />
          <path
             d="m 262.8264,96.692338 -4.91631,4.782822 q -1.00217,0.98737 -1.84991,2.23286 l -0.27289,-1.87758 q -0.0965,-0.66402 0.14126,-1.11943 0.26399,-0.43585 0.83855,-0.986974 l 3.57814,-3.372521 q 1.11333,-1.026905 1.27614,-1.354521 0.30646,-0.465398 0.24536,-1.368377 l -4.12152,0.599013 q -2.22104,0.322802 -2.92633,0.93969 l -0.46258,-3.182729 q 0.52411,0.227781 1.1852,0.271985 0.66442,0.0671 0.96209,0.02384 0.30099,-0.02036 1.0795,-0.133512 l 8.47201,-1.231305 q 2.22104,-0.322802 2.92634,-0.93969 0.1431,0.984585 0.52381,2.799732 0.38405,1.838045 0.5105,2.708143 0.24627,1.694403 -0.46782,2.733427 -0.71076,1.061921 -2.0846,1.261592 -1.46543,0.212983 -2.6618,-0.618521 -1.19638,-0.831504 -1.97514,-2.167943 z m 4.74178,-3.892357 -4.80844,0.69885 q 0.005,0.513724 0.0811,1.040363 0.24293,1.671505 1.23949,2.415145 0.99989,0.766538 2.6256,0.53026 1.57991,-0.229622 1.94428,-1.100913 0.3906,-0.851722 0.18015,-2.621472 l -0.15641,-1.076175 q -0.69358,0.05404 -1.10573,0.113942 z"
             style="font-size:23.1379px;font-family:'Baker Signet';-inkscape-font-specification:'Baker Signet, Normal'"
             id="path6673" />
          <path
             d="m 256.03131,106.81333 0.0459,-2.66046 q 1.88304,0.84247 6.74128,0.92636 l 4.92764,0.0851 q 2.33658,0.0403 3.08966,-0.68717 l -0.0403,2.33658 q -0.006,0.37015 -0.079,0.55403 -0.0495,0.18427 -0.30714,0.36495 -0.32827,0.24889 -2.01193,1.26118 -1.66052,1.01268 -2.17547,1.35091 l -6.58028,4.4915 q -0.56202,0.3837 -0.56362,0.47624 -0.003,0.16194 0.43676,0.16953 l 8.16646,0.14102 q 1.92016,0.0332 2.9708,-0.50409 l -0.0415,2.40598 q -1.32981,-0.71721 -3.43505,-0.75356 l -9.25378,-0.15979 q -0.76343,-0.0132 -2.1523,0.009 l 0.0284,-1.64254 12.19926,-8.25908 q 0.25728,-0.15755 0.25888,-0.25008 0.002,-0.13881 -0.34462,-0.1448 l -5.94556,-0.10267 q -1.45747,-0.0252 -2.0821,-0.036 -0.62503,0.0123 -1.83081,0.15352 -1.20579,0.14117 -2.02149,0.4742 z"
             style="font-size:23.1379px;font-family:'Baker Signet';-inkscape-font-specification:'Baker Signet, Normal'"
             id="path6675" />
          <path
             d="m 258.28254,120.56159 8.61291,1.2269 q 2.22194,0.31651 3.07255,-0.0765 l -0.43724,3.0695 q -0.70704,-0.61489 -2.92899,-0.93141 l -8.6129,-1.22689 q -2.22195,-0.31651 -3.07256,0.0765 l 0.43725,-3.06949 q 0.70704,0.61489 2.92898,0.9314 z"
             style="font-size:23.1379px;font-family:'Baker Signet';-inkscape-font-specification:'Baker Signet, Normal'"
             id="path6677" />
          <path
             d="m 259.80816,134.68014 5.20198,-0.28305 q 0.57831,-0.0127 0.63819,-0.23623 0.0419,-0.15645 -0.43459,-0.52365 l -4.26187,-3.22585 z m -8.55307,3.31366 0.6467,-2.41376 6.91059,-0.75948 1.3473,-5.02867 q -3.4513,-3.03263 -4.88167,-3.41586 -0.4023,-0.10778 -0.86725,-0.16049 l 0.7485,-2.79371 0.49405,0.65936 q 1.03719,1.40372 5.59796,5.21269 4.56076,3.80896 5.85704,4.15626 l 0.59745,0.18403 -0.70658,2.63725 q -0.40988,0.01 -2.03306,0.0781 -1.62916,0.0905 -2.2358,0.1196 -0.61264,0.0514 -2.04504,0.1228 -1.41604,0.0997 -2.25377,0.18664 -0.81538,0.0929 -2.02428,0.22417 -1.19255,0.15957 -2.22265,0.33871 -1.00776,0.18512 -1.9828,0.42692 z"
             style="font-size:23.1379px;font-family:'Baker Signet';-inkscape-font-specification:'Baker Signet, Normal'"
             id="path6679" />
          <path
             d="m 249.05057,144.13284 2.1667,1.14923 q -0.62316,0.0885 -1.00814,0.17243 -0.36455,0.0948 -0.971,0.34929 -0.60645,0.25454 -1.10483,0.74974 -0.50922,0.51565 -0.91036,1.27195 -0.63967,1.20599 -0.36627,2.32007 0.27339,1.11409 1.47939,1.75375 0.94027,0.49872 1.9605,0.25412 1.02983,-0.21331 1.93488,-0.8333 0.90505,-0.61998 1.83054,-1.22913 0.94592,-0.5983 2.02748,-0.81037 1.09115,-0.1808 2.13363,0.37214 1.69657,0.89986 1.98757,2.5733 0.291,1.67343 -0.63055,3.41088 -0.28188,0.53146 -0.89613,1.54141 -0.6251,1.03038 -0.89614,1.5414 l -1.90098,-1.00829 q 1.08404,-0.31552 1.6329,-0.75775 0.53801,-0.4218 1.0801,-1.44383 0.5963,-1.12423 0.39258,-2.12278 -0.21455,-0.97811 -1.31835,-1.56357 -0.8585,-0.45535 -1.82701,-0.20951 -0.95892,0.27712 -1.86396,0.89711 -0.90505,0.61999 -1.85098,1.21829 -0.92549,0.60914 -2.03708,0.77909 -1.102,0.20123 -2.18535,-0.37338 -1.79877,-0.95408 -2.11236,-2.97997 -0.31359,-2.0259 0.67301,-3.886 0.94324,-1.77833 2.58021,-3.13632 z"
             style="font-size:23.1379px;font-family:'Baker Signet';-inkscape-font-specification:'Baker Signet, Normal'"
             id="path6681" />
          <path
             d="m 239.33992,159.32564 1.81337,-2.51488 q 0.34039,0.873 2.16086,2.18566 l 8.57689,6.18441 1.79984,-2.49612 q 0.56837,-0.78825 0.54793,-1.63023 l 1.08063,1.3497 -6.80691,9.44021 q -0.66774,-1.05199 0.67199,-2.91 l 1.48859,-2.06446 -8.57689,-6.1844 q -1.82048,-1.31267 -2.7563,-1.35989 z"
             style="font-size:23.1379px;font-family:'Baker Signet';-inkscape-font-specification:'Baker Signet, Normal'"
             id="path6683" />
          <path
             d="m 236.28607,173.90986 4.65828,2.33263 q 0.50858,0.27559 0.67136,0.11116 0.11395,-0.1151 -0.11789,-0.67022 l -2.10253,-4.91416 z m -9.07093,-1.36153 1.7581,-1.77583 6.37837,2.76575 3.6627,-3.69965 q -1.49431,-4.34457 -2.54666,-5.38641 -0.29597,-0.29301 -0.67366,-0.56925 l 2.03483,-2.05536 0.10227,0.81754 q 0.20503,1.73326 2.27813,7.30201 2.07309,5.56875 3.02678,6.51292 l 0.42768,0.45596 -1.92088,1.94026 q -0.36092,-0.19452 -1.80445,-0.93989 -1.4598,-0.72893 -2.0011,-1.00435 -0.55758,-0.25898 -1.837,-0.907 -1.27926,-0.61531 -2.04994,-0.95502 -0.75424,-0.32344 -1.86924,-0.80868 -1.11483,-0.45252 -2.09828,-0.80753 -0.96701,-0.33873 -1.93369,-0.61202 z"
             style="font-size:23.1379px;font-family:'Baker Signet';-inkscape-font-specification:'Baker Signet, Normal'"
             id="path6685" />
          <path
             d="m 227.58552,175.89987 5.13523,7.02258 q 1.32479,1.81168 2.20004,2.14623 l -2.50273,1.83012 q -0.0535,-0.93549 -1.37824,-2.74717 l -2.13058,-2.91363 q -0.35627,0.37518 -0.58016,1.28417 -0.22389,0.90899 -0.27327,1.54704 -0.0681,0.65171 -0.16682,1.92782 -0.0759,0.91541 -0.10879,1.34078 -0.0193,0.44405 -0.0349,0.97144 -0.002,0.54607 0.0549,0.81981 0.0518,0.30607 0.17475,0.47416 0.20486,0.28016 0.27817,0.34121 l -2.31596,1.69354 q 0.0538,-0.24 0.23393,-0.97366 0.16144,-0.72 0.24397,-1.03833 0.0639,-0.30467 0.15421,-0.88669 0.0853,-0.54969 0.15199,-1.08572 l 0.60048,-5.25467 -6.33724,-2.15932 q -1.08292,-0.38335 -3.25658,-0.88635 l 1.9611,-1.43404 q 0.35486,-0.2595 1.07848,-0.0147 l 7.07673,2.62181 q 0.38662,0.17591 0.49868,0.094 0.0747,-0.0546 -0.0482,-0.22272 l -2.39007,-3.2685 q -1.32478,-1.81167 -2.20004,-2.14623 l 2.50273,-1.83011 q 0.0535,0.93549 1.37825,2.74717 z"
             style="font-size:23.1379px;font-family:'Baker Signet';-inkscape-font-specification:'Baker Signet, Normal'"
             id="path6687" />
          <path
             d="m 217.48457,187.59241 -2.92841,-5.49216 -2.34795,1.25193 q -2.22545,1.1866 -2.91161,3.04709 l -0.63404,-2.07431 q 1.33392,-0.84236 1.9056,-1.14717 l 5.90049,-3.14613 q -0.0858,1.06841 0.91568,2.94677 l 4.09324,7.67677 q 1.05597,1.98044 1.87528,2.43512 l -7.12551,3.79931 -0.91992,-1.52856 q 1.28072,0.28732 3.4245,-0.85574 l 1.89878,-1.01242 -2.60182,-4.87965 q -3.22588,1.72003 -4.72178,2.70119 0.0273,-0.53897 0.39618,-1.07655 0.35937,-0.50627 1.03995,-1.00026 0.66016,-0.48311 1.09845,-0.74302 0.43829,-0.25992 1.13246,-0.63005 z"
             style="font-size:23.1379px;font-family:'Baker Signet';-inkscape-font-specification:'Baker Signet, Normal'"
             id="path6689" />
        </g>
      </g>
      <g
         aria-label="Alvarado - Bayside - Central Park"
         id="text6927"
         style="font-size:25.4px;line-height:0.5;font-family:'Baker Signet';-inkscape-font-specification:'Baker Signet, Normal';white-space:pre;fill:#ffffff;stroke-width:7.55906;stroke-linecap:round;stroke-linejoin:round">
        <path
           d="m 49.714071,189.16291 1.455434,-2.08383 q 0.168998,-0.22603 0.10113,-0.31624 -0.04751,-0.0632 -0.331879,0.01 l -2.520952,0.66753 z m -1.298639,4.28269 -0.732968,-0.97428 1.78614,-2.88358 -1.527017,-2.02974 q -2.202981,0.41419 -2.780328,0.84854 -0.162379,0.12216 -0.32244,0.28496 l -0.848343,-1.12763 0.401898,0.008 q 0.851219,0.0236 3.686092,-0.58347 2.834874,-0.60704 3.358095,-1.00067 l 0.250355,-0.17422 0.800836,1.06449 q -0.119424,0.16048 -0.581313,0.80463 -0.455103,0.65317 -0.626335,0.89501 -0.164446,0.25086 -0.56774,0.82268 -0.387486,0.57405 -0.605974,0.92207 -0.209467,0.34124 -0.522551,0.84519 -0.297276,0.50618 -0.538191,0.95584 -0.231894,0.44287 -0.432172,0.89021 z"
           style="font-weight:500;font-size:11.2889px;-inkscape-font-specification:'Baker Signet, Medium';text-align:center;text-anchor:middle"
           id="path9389" />
        <path
           d="m 49.719228,194.84607 -0.810559,-0.94075 q 0.372101,-0.0524 1.056282,-0.64188 l 4.070879,-3.50751 q 0.230911,-0.19895 0.343274,-0.31067 0.112363,-0.11171 0.222092,-0.29566 0.109728,-0.18395 0.09827,-0.3529 l 0.873708,0.73733 -5.062942,4.36228 q -0.684181,0.5895 -0.791008,0.94976 z"
           style="font-weight:500;font-size:11.2889px;-inkscape-font-specification:'Baker Signet, Medium';text-align:center;text-anchor:middle"
           id="path9391" />
        <path
           d="m 56.130395,194.36751 0.745581,0.7865 q -0.424838,0.0605 -1.134717,0.32903 -2.282315,0.84138 -3.989672,1.68214 l -0.442688,-0.46698 0.402204,-0.70794 q 0.134068,-0.23598 0.527653,-0.92019 0.393585,-0.6842 0.528506,-0.9521 0.15088,-0.26747 0.39529,-0.74805 0.26037,-0.48014 0.389229,-0.82007 0.144818,-0.3395 0.23314,-0.65655 0.561744,0.49412 0.616109,0.55147 0.100964,0.1065 0.08202,0.21779 -0.01118,0.11948 -0.178442,0.40249 l -1.700642,2.981 q -0.02501,0.0393 -0.0582,0.0863 -0.01724,0.0474 -0.03405,0.0789 -0.01681,0.0315 -0.03362,0.063 -0.0086,0.0237 -0.01724,0.0474 -4.26e-4,0.016 0.01511,0.0324 0.0466,0.0492 0.345894,-0.0946 0.202261,-0.0984 0.978109,-0.44501 0.783613,-0.3384 1.278256,-0.62065 0.502409,-0.27405 0.821926,-0.57694 0.08193,-0.0777 0.23025,-0.24938 z"
           style="font-weight:500;font-size:11.2889px;-inkscape-font-specification:'Baker Signet, Medium';text-align:center;text-anchor:middle"
           id="path9393" />
        <path
           d="m 54.866909,198.43097 q -0.269825,0.28863 -0.235414,0.59897 0.03441,0.31033 0.323041,0.58016 0.354603,0.3315 0.790972,0.24492 0.452324,-0.0871 0.806952,-0.46646 l 0.778638,-0.8329 -0.653466,-0.19365 q -0.782725,-0.23721 -1.150247,-0.24081 -0.359813,-0.0118 -0.660476,0.30977 z m 1.362598,2.98917 -0.788447,-0.64435 q 0.08319,-0.13858 0.189508,-0.3019 0.114028,-0.17157 0.14379,-0.23647 0.04572,-0.0654 0.01273,-0.0963 -0.02474,-0.0231 -0.07261,-0.0215 -0.332924,0.0751 -0.507901,0.097 -0.167268,0.0136 -0.442279,-0.0889 -0.274474,-0.0866 -0.546611,-0.34101 -0.445315,-0.4163 -0.510376,-0.92528 -0.06506,-0.50897 0.343532,-0.94604 0.161895,-0.17318 0.382591,-0.26048 0.228942,-0.0796 0.420413,-0.086 0.199179,-0.0147 0.496781,0.0472 0.305311,0.0536 0.474728,0.10382 0.169417,0.0502 0.484586,0.15939 0.315169,0.10919 0.420226,0.14559 0.573149,0.18038 0.724461,0.16729 0.238801,-0.024 0.585719,-0.39511 0.678418,-0.7257 0.03518,-1.32702 -0.263891,-0.2467 -0.527968,-0.26177 -0.255832,-0.007 -0.435832,0.10253 -0.171753,0.11761 -0.386352,0.14879 -0.214598,0.0312 -0.387776,-0.13071 -0.305124,-0.28524 -0.0353,-0.57387 0.354627,-0.37934 0.969547,-0.14446 0.630875,0.23434 1.199889,0.76628 1.088549,1.01762 0.464096,1.6856 l -1.696044,1.81424 q -0.02313,0.0247 -0.154186,0.16494 -0.123349,0.13194 -0.154186,0.16493 -0.03084,0.033 -0.146477,0.15668 -0.09968,0.12316 -0.145939,0.17264 -0.0303,0.0489 -0.114565,0.15561 -0.07602,0.11438 -0.11349,0.18753 -0.02976,0.0649 -0.08212,0.17049 -0.04464,0.0973 -0.06562,0.18591 -0.02098,0.0886 -0.03371,0.18483 z"
           style="font-weight:500;font-size:11.2889px;-inkscape-font-specification:'Baker Signet, Medium';text-align:center;text-anchor:middle"
           id="path9395" />
        <path
           d="m 57.876396,201.19309 1.280639,-1.53379 q 0.340056,-0.40727 0.505037,-0.62248 0.16498,-0.21521 0.315575,-0.50125 0.150594,-0.28605 0.11896,-0.45952 0.189211,0.14327 0.45498,0.33576 0.265769,0.19249 0.309097,0.22867 0.08665,0.0724 -0.08556,0.29622 -0.163551,0.23111 -0.120223,0.26729 0.0087,0.007 0.22118,-0.0359 0.212514,-0.0432 0.520349,-0.007 0.307834,0.0364 0.533137,0.22455 0.476601,0.39794 0.201661,0.72722 -0.238763,0.28597 -0.542054,0.0327 -0.07799,-0.0651 -0.252729,-0.22572 -0.158839,-0.16204 -0.271491,-0.2561 -0.294626,-0.24599 -0.534651,-0.15227 -0.240025,0.0937 -0.5222,0.43167 l -1.490461,1.78509 q -0.57882,0.69324 -0.632663,1.07477 l -0.953203,-0.79587 q 0.365801,-0.12107 0.944621,-0.81431 z"
           style="font-weight:500;font-size:11.2889px;-inkscape-font-specification:'Baker Signet, Medium';text-align:center;text-anchor:middle"
           id="path9397" />
        <path
           d="m 60.939726,203.64896 q -0.235824,0.31702 -0.166894,0.62155 0.06893,0.30453 0.385947,0.54036 0.389479,0.28972 0.813415,0.15485 0.439732,-0.1372 0.749672,-0.55385 l 0.680521,-0.91482 -0.671034,-0.11929 q -0.804358,-0.14811 -1.169973,-0.11055 -0.358878,0.0285 -0.621654,0.38175 z m 1.688608,2.81787 -0.855615,-0.55205 q 0.06716,-0.14702 0.154527,-0.32122 0.09411,-0.18325 0.116419,-0.25107 0.03811,-0.0701 0.0019,-0.0971 -0.02717,-0.0202 -0.07456,-0.0133 -0.322426,0.1119 -0.493857,0.15321 -0.164692,0.0323 -0.449454,-0.0389 -0.282442,-0.0553 -0.581344,-0.27769 -0.489113,-0.36384 -0.610733,-0.86233 -0.121621,-0.4985 0.235484,-0.97856 0.141494,-0.19021 0.351032,-0.30166 0.218595,-0.10472 0.408141,-0.13256 0.196283,-0.0369 0.498939,-0.009 0.309393,0.0191 0.483365,0.05 0.173972,0.0309 0.499382,0.10416 0.32541,0.0732 0.433881,0.0976 0.589737,0.11509 0.738634,0.0851 0.234612,-0.0506 0.537814,-0.45818 0.592929,-0.79708 -0.113567,-1.32263 -0.289845,-0.21561 -0.55395,-0.20102 -0.255047,0.0213 -0.421616,0.15067 -0.157512,0.13608 -0.367271,0.19109 -0.209759,0.055 -0.39997,-0.0865 -0.335132,-0.2493 -0.09931,-0.56632 0.30994,-0.41665 0.947285,-0.25208 0.65314,0.16226 1.278118,0.62717 1.195609,0.88939 0.649845,1.62306 l -1.482323,1.99268 q -0.02021,0.0272 -0.134756,0.18116 -0.107806,0.14492 -0.134757,0.18115 -0.02695,0.0362 -0.128019,0.1721 -0.08527,0.13354 -0.125699,0.18789 -0.02463,0.052 -0.09643,0.16745 -0.06274,0.12217 -0.09179,0.19905 -0.02231,0.0678 -0.06252,0.17861 -0.03347,0.10173 -0.0444,0.19209 -0.01094,0.0904 -0.01281,0.18744 z"
           style="font-weight:500;font-size:11.2889px;-inkscape-font-specification:'Baker Signet, Medium';text-align:center;text-anchor:middle"
           id="path9399" />
        <path
           d="m 67.010352,209.3177 -0.918796,-0.4285 0.193631,-0.38544 q 0.05486,-0.0855 0.0074,-0.116 -0.0095,-0.006 -0.23127,0.026 -0.215674,0.0226 -0.598971,-0.049 -0.373796,-0.0654 -0.763364,-0.31537 -0.788637,-0.50594 -0.807798,-1.41686 -0.0036,-0.91432 0.532861,-1.75047 0.725391,-1.1307 1.805016,-1.35011 1.089127,-0.21331 2.229325,0.51817 0.17103,0.10973 0.469703,0.35499 l 0.768062,-1.19721 q 0.487658,-0.76013 0.400536,-1.08427 l 1.00969,0.43316 -3.608669,5.62498 q -0.493754,0.76963 -0.487309,1.1359 z m -0.04513,-1.85303 1.328868,-2.07136 q 0.231637,-0.36106 0.211743,-0.60184 -0.01989,-0.24077 -0.361953,-0.46021 -0.769634,-0.49376 -1.532474,-0.24547 -0.762839,0.24828 -1.299263,1.08442 -0.469371,0.73163 -0.471362,1.50827 0.01361,0.77323 0.697726,1.21212 0.399069,0.25602 0.778786,0.12408 0.379717,-0.13194 0.647929,-0.55001 z"
           style="font-weight:500;font-size:11.2889px;-inkscape-font-specification:'Baker Signet, Medium';text-align:center;text-anchor:middle"
           id="path9401" />
        <path
           d="m 73.218435,209.63245 q -0.633079,1.17204 -1.629019,1.51939 -0.986008,0.35271 -2.088519,-0.24282 -0.953523,-0.51504 -1.091487,-1.42355 -0.122666,-0.91307 0.365557,-1.81693 0.63308,-1.17204 1.619087,-1.52475 0.99594,-0.34734 2.098451,0.24818 0.953523,0.51505 1.076189,1.42812 0.137964,0.9085 -0.350259,1.81236 z m -3.373072,-1.95027 q -0.338,0.62575 -0.477131,1.19212 -0.133766,0.55644 0.01159,1.07119 0.145361,0.51476 0.641988,0.78301 0.635681,0.34336 1.177479,-0.0183 0.55173,-0.35633 0.948746,-1.09134 0.338,-0.62575 0.471766,-1.18219 0.139132,-0.56637 -0.0062,-1.08113 -0.145361,-0.51475 -0.641987,-0.783 -0.635682,-0.34337 -1.187412,0.013 -0.541798,0.3617 -0.938814,1.09671 z"
           style="font-weight:500;font-size:11.2889px;-inkscape-font-specification:'Baker Signet, Medium';text-align:center;text-anchor:middle"
           id="path9403" />
        <path
           d="m 78.345783,212.41765 -2.317192,-0.95464 0.712349,-0.36583 2.327629,0.95894 z"
           style="font-weight:500;font-size:11.2889px;-inkscape-font-specification:'Baker Signet, Medium';text-align:center;text-anchor:middle"
           id="path9405" />
        <path
           d="m 84.765716,209.80123 -0.727207,2.52778 0.29292,0.0843 q 0.835364,0.24033 1.47144,0.0709 0.650046,-0.17714 0.877883,-0.96911 0.193506,-0.67263 -0.134632,-1.00196 -0.325018,-0.34019 -1.095289,-0.56178 -0.19528,-0.0562 -0.685115,-0.15011 z m -2.078133,3.54876 0.798991,-2.77732 q 0.302743,-1.05234 0.170184,-1.48987 0.47735,0.13733 1.458506,0.36086 0.981156,0.22353 1.458507,0.36086 0.694328,0.19975 1.05635,0.6563 0.37287,0.45967 0.182485,1.12145 -0.184142,0.64008 -0.711879,0.92289 -0.513767,0.27508 -1.303213,0.36513 l -0.0062,0.0217 q 0.833429,0.45121 1.206149,0.99307 0.38357,0.54497 0.152611,1.34779 -0.636696,2.21317 -3.41401,1.41418 -0.368862,-0.10612 -1.100344,-0.34005 -0.720633,-0.2308 -1.089495,-0.33692 0.579609,-0.66728 1.1414,-2.62007 z m 1.238568,-0.63042 -0.493128,1.71413 q -0.290258,1.00894 -0.267524,1.29741 0.03358,0.29158 0.55433,0.44139 1.790066,0.51498 2.248862,-1.07981 0.152932,-0.53159 0.06837,-0.93182 -0.07371,-0.3971 -0.388026,-0.65198 -0.300348,-0.2626 -0.653605,-0.42296 -0.342408,-0.15724 -0.884852,-0.3133 z"
           style="font-weight:500;font-size:11.2889px;-inkscape-font-specification:'Baker Signet, Medium';text-align:center;text-anchor:middle"
           id="path9407" />
        <path
           d="m 88.625531,216.57192 q -0.08021,0.38689 0.110676,0.63398 0.190882,0.24709 0.577767,0.3273 0.475316,0.0985 0.802886,-0.20248 0.340916,-0.30978 0.44633,-0.81825 l 0.231452,-1.11644 -0.658782,0.1747 q -0.791832,0.20477 -1.10754,0.39296 -0.313416,0.17713 -0.402789,0.60823 z m 2.71912,1.84342 -1.008597,-0.13992 q -0.0011,-0.16163 0.0047,-0.35642 0.0081,-0.20584 -2.71e-4,-0.27675 0.005,-0.0797 -0.03923,-0.0888 -0.03316,-0.007 -0.0732,0.0194 -0.245206,0.23739 -0.383244,0.34712 -0.135746,0.0987 -0.423955,0.15422 -0.279446,0.0689 -0.644223,-0.007 -0.596909,-0.12375 -0.917337,-0.52452 -0.320429,-0.40077 -0.198974,-0.98662 0.04812,-0.23213 0.191149,-0.42153 0.154079,-0.18711 0.314225,-0.29225 0.162437,-0.1162 0.448758,-0.21825 0.288613,-0.1131 0.459408,-0.1584 0.170796,-0.0453 0.496749,-0.11607 0.325954,-0.0708 0.434605,-0.0944 0.583292,-0.14424 0.705693,-0.23415 0.19142,-0.14478 0.294542,-0.64221 0.201661,-0.97274 -0.66054,-1.15148 -0.353723,-0.0733 -0.587067,0.0512 -0.22229,0.12686 -0.318808,0.31437 -0.08546,0.1898 -0.252485,0.32811 -0.16702,0.13831 -0.399151,0.0902 -0.408993,-0.0848 -0.328787,-0.47167 0.105414,-0.50848 0.752738,-0.62792 0.660669,-0.1282 1.423385,0.0299 1.45911,0.3025 1.27349,1.19786 l -0.504153,2.43185 q -0.0069,0.0332 -0.04583,0.22107 -0.03666,0.17687 -0.04583,0.22108 -0.0092,0.0442 -0.04354,0.21003 -0.02103,0.15704 -0.03478,0.22336 -4.05e-4,0.0576 -0.01685,0.1925 -0.0054,0.13723 6.75e-4,0.21919 0.0084,0.0709 0.0186,0.18832 0.01254,0.10636 0.04071,0.19291 0.02817,0.0865 0.0674,0.17537 z"
           style="font-weight:500;font-size:11.2889px;-inkscape-font-specification:'Baker Signet, Medium';text-align:center;text-anchor:middle"
           id="path9409" />
        <path
           d="m 95.382753,213.92196 1.083761,0.15664 q -0.281592,0.36992 -0.600196,0.917 l -2.158342,3.80568 q -0.180905,0.30463 -0.371369,0.59647 -0.179291,0.29346 -0.540839,0.74308 -0.363163,0.46079 -0.716505,0.77471 -0.354957,0.3251 -0.829454,0.53027 -0.463324,0.20678 -0.899063,0.1438 -0.20111,-0.0291 -0.386203,-0.09 -0.196265,-0.0626 -0.368439,-0.21294 -0.172174,-0.15035 -0.143106,-0.35146 0.02907,-0.20111 0.185488,-0.17851 0.06704,0.01 0.277705,0.0515 0.199495,0.0402 0.30005,0.0548 0.603331,0.0872 0.951434,0.0463 0.335316,-0.0314 0.511114,-0.14284 0.18697,-0.10985 0.444471,-0.392 0.794846,-0.84324 0.928882,-1.77058 0.06298,-0.43574 -0.0034,-0.84455 l -0.250983,-1.73581 q -0.288821,-2.02642 -0.610428,-2.56337 0.680057,0.0298 0.836476,0.0525 0.134074,0.0194 0.178633,0.10566 0.05735,0.0767 0.08737,0.26357 l 0.487696,3.41251 q 0.05211,0.34972 0.107972,0.35779 0.04469,0.006 0.216039,-0.31096 l 0.826581,-1.69411 q 0.464508,-0.9252 0.519414,-1.30508 0.02907,-0.20111 -0.06476,-0.41998 z"
           style="font-weight:500;font-size:11.2889px;-inkscape-font-specification:'Baker Signet, Medium';text-align:center;text-anchor:middle"
           id="path9411" />
        <path
           d="m 97.501477,215.00896 q -0.03196,0.37116 0.180017,0.67268 0.224195,0.29125 0.546116,0.50026 0.333169,0.20998 0.653153,0.44149 0.3322,0.22123 0.540305,0.56774 0.22032,0.33623 0.183515,0.76363 -0.06489,0.75356 -0.70905,1.12866 -0.632911,0.37606 -1.42022,0.30826 -0.596106,-0.0513 -1.227139,-0.35495 -0.185393,-0.084 -0.169896,-0.2639 0.01259,-0.14622 0.0593,-0.42546 0.05795,-0.27828 0.06764,-0.39075 0.262028,0.50978 0.513561,0.74673 0.262779,0.23791 0.780153,0.28246 1.057244,0.0911 1.139571,-0.86497 0.03196,-0.37116 -0.180985,-0.66144 -0.200732,-0.30055 -0.511406,-0.50859 -0.309705,-0.2193 -0.619411,-0.43859 -0.308737,-0.23054 -0.516842,-0.57705 -0.195889,-0.35679 -0.156178,-0.81792 0.103635,-1.20346 1.813221,-1.05624 0.449891,0.0387 1.011879,0.2231 0.142341,0.0576 0.137498,0.11382 -0.02518,0.29243 -0.08836,0.76288 -0.291303,-0.43299 -0.516842,-0.57705 -0.213323,-0.15434 -0.606977,-0.18824 -0.359913,-0.031 -0.62285,0.12765 -0.250721,0.14837 -0.279778,0.48579 z"
           style="font-weight:500;font-size:11.2889px;-inkscape-font-specification:'Baker Signet, Medium';text-align:center;text-anchor:middle"
           id="path9413" />
        <path
           d="m 100.79351,214.39821 1.0899,-0.13861 -0.15441,3.99329 q -0.0349,0.90243 0.15594,1.22614 l -1.24085,-0.048 q 0.21526,-0.308 0.25016,-1.21044 l 0.11777,-3.04573 q -0.002,-0.24861 -0.009,-0.35057 0.004,-0.10152 -0.0481,-0.21651 -0.0516,-0.12626 -0.16135,-0.20959 z m 0.0467,-1.50074 0.83357,-0.52133 0.48968,0.77585 -0.8327,0.49878 z"
           style="font-weight:500;font-size:11.2889px;-inkscape-font-specification:'Baker Signet, Medium';text-align:center;text-anchor:middle"
           id="path9415" />
        <path
           d="m 107.58558,219.46225 -1.0023,0.15228 -0.0523,-0.42816 q -0.002,-0.10159 -0.0581,-0.10065 -0.0113,1.9e-4 -0.17814,0.14977 -0.16704,0.13828 -0.52577,0.29107 -0.34745,0.1526 -0.81023,0.16035 -0.93685,0.0157 -1.45745,-0.73204 -0.5095,-0.75922 -0.52614,-1.7525 -0.0225,-1.34319 0.75474,-2.12397 0.78854,-0.78096 2.14302,-0.80366 0.20317,-0.003 0.5877,0.0353 l -0.0238,-1.42221 q -0.0151,-0.90298 -0.26724,-1.12457 l 1.08056,-0.19875 0.11196,6.68209 q 0.0153,0.91427 0.2236,1.21563 z m -1.06416,-1.51768 -0.0412,-2.46063 q -0.007,-0.42892 -0.15714,-0.61835 -0.14995,-0.18942 -0.5563,-0.18261 -0.91427,0.0153 -1.4118,0.64463 -0.49752,0.62931 -0.48088,1.62259 0.0146,0.86913 0.44316,1.51679 0.4397,0.63619 1.25239,0.62258 0.47407,-0.008 0.71709,-0.32815 0.24303,-0.32021 0.2347,-0.81685 z"
           style="font-weight:500;font-size:11.2889px;-inkscape-font-specification:'Baker Signet, Medium';text-align:center;text-anchor:middle"
           id="path9417" />
        <path
           d="m 111.22077,215.9056 -2.01311,0.17508 q -0.008,0.43128 0.01,0.63372 0.0753,0.86597 0.53202,1.42682 0.46698,0.54863 1.28797,0.47723 0.40487,-0.0352 0.76329,-0.21369 0.36966,-0.17946 0.55156,-0.43324 l 0.0108,0.12371 q 0.0381,0.43861 -0.50413,0.84838 -0.532,0.39754 -1.17304,0.45329 -1.04592,0.091 -1.67671,-0.64738 -0.63079,-0.73835 -0.72762,-1.85175 -0.0998,-1.14713 0.45228,-1.96569 0.55106,-0.8298 1.66446,-0.92663 0.77601,-0.0675 1.28552,0.3188 0.50952,0.38628 0.56038,0.9711 0.0215,0.24742 -0.11392,0.38385 -0.12518,0.1242 -0.30317,0.16234 -0.17896,0.0269 -0.60633,0.0641 z m -1.97498,-0.16818 1.15839,-0.10074 q 0.25867,-0.0225 0.37113,-0.0323 0.11149,-0.021 0.24351,-0.0665 0.13105,-0.0567 0.16821,-0.15061 0.0372,-0.0939 0.0235,-0.25133 -0.0293,-0.3374 -0.28801,-0.57553 -0.24742,-0.2391 -0.64105,-0.20487 -0.85473,0.0743 -1.03564,1.38186 z"
           style="font-weight:500;font-size:11.2889px;-inkscape-font-specification:'Baker Signet, Medium';text-align:center;text-anchor:middle"
           id="path9419" />
        <path
           d="m 118.15509,215.89779 -2.46271,0.46453 0.3973,-0.69529 2.4738,-0.46663 z"
           style="font-weight:500;font-size:11.2889px;-inkscape-font-specification:'Baker Signet, Medium';text-align:center;text-anchor:middle"
           id="path9421" />
        <path
           d="m 125.84307,208.55467 0.37713,1.37224 -0.0324,0.01 q -0.25183,-0.24116 -0.46697,-0.36369 -0.20769,-0.13664 -0.63519,-0.18168 -0.41672,-0.0484 -0.9344,0.11174 -0.80887,0.25016 -1.22881,0.84087 -0.41995,0.59072 -0.44964,1.29708 -0.0297,0.70635 0.22047,1.51522 0.41026,1.32654 1.34987,1.95763 0.93962,0.63109 2.21223,0.2375 1.18634,-0.3669 1.63564,-1.32119 l 0.02,0.0647 q 0.14342,0.46375 -0.36514,1.18823 -0.49778,0.72113 -1.63019,1.07136 -1.44518,0.44695 -2.61817,-0.28921 -1.17299,-0.73616 -1.6325,-2.26017 -0.52033,-1.68244 0.097,-2.97229 0.62476,-1.30396 2.25328,-1.80761 0.30197,-0.0934 0.87613,-0.2237 0.57416,-0.13031 0.95163,-0.24705 z"
           style="font-weight:500;font-size:11.2889px;-inkscape-font-specification:'Baker Signet, Medium';text-align:center;text-anchor:middle"
           id="path9423" />
        <path
           d="m 130.69079,210.96741 -1.8765,0.7497 q 0.11723,0.41512 0.19261,0.60382 0.3225,0.8072 0.92187,1.21204 0.60567,0.39016 1.37095,0.0844 0.37739,-0.15077 0.66889,-0.42527 0.30198,-0.27868 0.40273,-0.57422 l 0.0461,0.11532 q 0.16334,0.40884 -0.23728,0.95791 -0.39432,0.53439 -0.99187,0.77312 -0.97493,0.38951 -1.79227,-0.1349 -0.81734,-0.52441 -1.23198,-1.56225 -0.4272,-1.06929 -0.13543,-2.0125 0.28759,-0.9537 1.32542,-1.36833 0.72334,-0.289 1.32279,-0.0665 0.59945,0.22245 0.81724,0.76758 0.0921,0.23063 0.002,0.40039 -0.0839,0.1551 -0.24327,0.24307 -0.16354,0.0775 -0.5619,0.23665 z m -1.93924,0.41008 1.07977,-0.43139 q 0.24111,-0.0963 0.34594,-0.13822 0.10065,-0.0524 0.21388,-0.13407 0.10904,-0.0922 0.11747,-0.19281 0.008,-0.10062 -0.0502,-0.24739 -0.12565,-0.31449 -0.44212,-0.46765 -0.306,-0.15735 -0.67291,-0.0108 -0.79672,0.31831 -0.59182,1.62229 z"
           style="font-weight:500;font-size:11.2889px;-inkscape-font-specification:'Baker Signet, Medium';text-align:center;text-anchor:middle"
           id="path9425" />
        <path
           d="m 131.42766,208.73499 0.91595,-0.51755 0.17182,0.3558 q 0.0785,0.16265 0.13954,0.1332 0.0203,-0.01 0.11951,-0.24576 0.0943,-0.24611 0.3256,-0.54587 0.24149,-0.30466 0.58712,-0.47157 1.24021,-0.59892 1.8784,0.72261 l 1.09964,2.2771 q 0.39273,0.81325 0.69284,1.01934 l -0.9149,0.44182 -1.34511,-2.78538 q -0.13745,-0.28463 -0.26613,-0.47322 -0.13359,-0.19875 -0.32817,-0.36805 -0.18933,-0.18437 -0.43648,-0.20291 -0.23698,-0.0235 -0.53178,0.1189 -0.95557,0.46146 -0.2732,1.87448 l 0.79037,1.63667 q 0.39273,0.81325 0.71317,1.00952 l -1.11822,0.54 q 0.0455,-0.373 -0.3472,-1.18625 l -1.16838,-2.41941 q -0.39273,-0.81325 -0.70439,-0.91347 z"
           style="font-weight:500;font-size:11.2889px;-inkscape-font-specification:'Baker Signet, Medium';text-align:center;text-anchor:middle"
           id="path9427" />
        <path
           d="m 135.47897,205.15958 0.58615,-0.57175 0.77965,1.40065 0.80883,-0.45022 q 0.0888,-0.0494 0.1272,0.0196 0.0769,0.1381 -0.10607,0.34329 -0.18843,0.19533 -0.46462,0.34906 l -0.16768,0.0933 1.68558,3.02817 q 0.16472,0.29591 0.34134,0.40432 0.17113,0.0985 0.43745,-0.0497 0.12823,-0.0714 0.28158,-0.2601 0.15335,-0.18872 0.18834,-0.31155 l 0.19663,0.4461 q 0.0341,0.0844 -0.17949,0.39707 -0.1982,0.31705 -0.45466,0.4598 -0.88774,0.49415 -1.45875,-0.53169 l -1.76794,-3.17612 -0.41428,0.2306 -0.17569,-0.31564 0.39231,-0.27006 z"
           style="font-weight:500;font-size:11.2889px;-inkscape-font-specification:'Baker Signet, Medium';text-align:center;text-anchor:middle"
           id="path9429" />
        <path
           d="m 140.67083,208.17489 -1.05164,-1.699 q -0.27924,-0.45115 -0.43144,-0.67558 -0.15219,-0.22443 -0.37614,-0.45755 -0.22396,-0.23312 -0.39856,-0.25781 0.19564,-0.13437 0.46212,-0.32587 0.26649,-0.1915 0.31448,-0.22121 0.096,-0.0594 0.25412,0.17462 0.16774,0.22809 0.21573,0.19838 0.01,-0.006 0.0357,-0.22122 0.0261,-0.21528 0.15771,-0.49592 0.13166,-0.28064 0.38123,-0.43511 0.52794,-0.32678 0.75371,0.038 0.19607,0.31676 -0.13989,0.52471 -0.0864,0.0535 -0.29391,0.16864 -0.20386,0.0996 -0.32865,0.17687 -0.32636,0.20201 -0.31312,0.45935 0.0132,0.25733 0.24496,0.63169 l 1.22393,1.97737 q 0.47532,0.76791 0.8204,0.93933 l -1.05588,0.65356 q 4.8e-4,-0.38532 -0.47483,-1.15323 z"
           style="font-weight:500;font-size:11.2889px;-inkscape-font-specification:'Baker Signet, Medium';text-align:center;text-anchor:middle"
           id="path9431" />
        <path
           d="m 143.96712,206.0423 q 0.22652,0.32373 0.53726,0.35431 0.31073,0.0306 0.63446,-0.19594 0.39773,-0.2783 0.40337,-0.72314 0.008,-0.46056 -0.2893,-0.88603 l -0.65367,-0.9342 -0.32473,0.59922 q -0.39411,0.71666 -0.47372,1.07548 -0.0861,0.34957 0.16633,0.7103 z m 3.2065,-0.71427 -0.79362,0.63797 q -0.11835,-0.11008 -0.25613,-0.2479 -0.14424,-0.14708 -0.20157,-0.18963 -0.0546,-0.0583 -0.0916,-0.0324 -0.0277,0.0194 -0.0361,0.0666 0.005,0.34126 -0.0103,0.51697 -0.0213,0.16646 -0.17857,0.41429 -0.14154,0.2506 -0.44678,0.46417 -0.49947,0.34949 -1.01089,0.30777 -0.51142,-0.0417 -0.85443,-0.53194 -0.13591,-0.19424 -0.17563,-0.42822 -0.0305,-0.24046 0.003,-0.42912 0.0269,-0.19791 0.14899,-0.47626 0.11566,-0.28759 0.19985,-0.44295 0.0842,-0.15535 0.25626,-0.44109 0.17207,-0.28573 0.22943,-0.38098 0.29512,-0.52339 0.31364,-0.67414 0.0259,-0.2386 -0.26529,-0.65482 -0.56954,-0.81396 -1.291,-0.30914 -0.29598,0.2071 -0.36539,0.46234 -0.0602,0.24877 0.0101,0.44762 0.0795,0.19237 0.0656,0.40878 -0.0139,0.21641 -0.20815,0.35232 -0.34223,0.23946 -0.56875,-0.0843 -0.29771,-0.42548 0.0594,-0.97845 0.35987,-0.5687 0.99808,-1.01527 1.22093,-0.8543 1.74516,-0.10509 l 1.42384,2.03489 q 0.0194,0.0277 0.12944,0.18499 0.10355,0.14799 0.12944,0.18499 0.0259,0.037 0.12297,0.17574 0.0999,0.12302 0.13868,0.17851 0.0416,0.0398 0.12853,0.1443 0.0962,0.0981 0.15996,0.14985 0.0573,0.0426 0.1498,0.11563 0.086,0.0638 0.1683,0.10269 0.0823,0.0389 0.17385,0.0713 z"
           style="font-weight:500;font-size:11.2889px;-inkscape-font-specification:'Baker Signet, Medium';text-align:center;text-anchor:middle"
           id="path9433" />
        <path
           d="m 148.94171,203.94047 -0.98027,0.76229 q -0.0336,-0.37427 -0.58802,-1.08719 l -3.29862,-4.24191 q -0.18711,-0.24061 -0.29304,-0.35844 -0.10593,-0.11783 -0.28414,-0.23666 -0.1782,-0.11883 -0.34751,-0.11588 l 0.78028,-0.83557 4.10249,5.27565 q 0.55439,0.71292 0.90883,0.83771 z"
           style="font-weight:500;font-size:11.2889px;-inkscape-font-specification:'Baker Signet, Medium';text-align:center;text-anchor:middle"
           id="path9435" />
        <path
           d="m 151.36809,199.99786 -2.92024,-3.08043 q -0.75336,-0.79469 -1.19766,-0.90237 0.32771,-0.31067 0.9279,-0.95742 0.6002,-0.64676 0.91971,-0.94966 0.75372,-0.71452 1.49604,-0.70269 0.73455,0.004 1.33258,0.63447 0.68346,0.72096 0.70056,1.57584 0.0171,0.85488 -0.70385,1.53834 -0.42602,0.40387 -0.88363,0.49546 0.22291,-0.27354 0.33889,-0.43015 0.1164,-0.17257 0.25217,-0.47238 0.14396,-0.30759 0.13439,-0.5474 -0.001,-0.24758 -0.14425,-0.57879 -0.14246,-0.34717 -0.46865,-0.69127 -0.5126,-0.54071 -1.0134,-0.62595 -0.50079,-0.0852 -1.08247,0.46619 l -0.65541,0.62133 3.70466,3.90789 q 0.70675,0.74553 1.23043,0.87131 l -1.13059,1.07179 q -0.0761,-0.44123 -0.83718,-1.24411 z"
           style="font-weight:500;font-size:11.2889px;-inkscape-font-specification:'Baker Signet, Medium';text-align:center;text-anchor:middle"
           id="path9437" />
        <path
           d="m 155.82575,195.93717 q 0.29132,0.26692 0.6013,0.2294 0.30997,-0.0375 0.57689,-0.32884 0.32793,-0.35791 0.23698,-0.79339 -0.0916,-0.45142 -0.47452,-0.80223 l -0.84067,-0.77025 -0.18709,0.65537 q -0.22935,0.78507 -0.22927,1.15261 -0.008,0.35991 0.31638,0.65733 z m 2.97536,-1.39249 -0.63642,0.79487 q -0.13941,-0.0818 -0.30378,-0.18648 -0.1727,-0.1123 -0.2379,-0.14141 -0.0659,-0.0451 -0.0964,-0.0118 -0.0229,0.025 -0.0208,0.0728 0.0784,0.33216 0.10206,0.50691 0.0153,0.16712 -0.0845,0.44315 -0.0838,0.27532 -0.33551,0.55 -0.41182,0.44946 -0.92012,0.51962 -0.50829,0.0702 -0.94944,-0.33403 -0.17479,-0.16015 -0.2643,-0.37996 -0.0819,-0.22813 -0.0902,-0.41953 -0.0167,-0.19902 0.0422,-0.49723 0.0506,-0.30583 0.0991,-0.47574 0.0485,-0.16991 0.15453,-0.48616 0.10603,-0.31625 0.14137,-0.42166 0.17462,-0.57493 0.16002,-0.72611 -0.0264,-0.23854 -0.40096,-0.58172 -0.73246,-0.67111 -1.32731,-0.0219 -0.24404,0.26635 -0.25646,0.53056 -0.005,0.25589 0.1069,0.43478 0.11931,0.17057 0.15265,0.38484 0.0333,0.21428 -0.12681,0.38907 -0.28217,0.30797 -0.5735,0.0411 -0.38287,-0.35081 -0.15417,-0.96805 0.228,-0.63319 0.75421,-1.20751 1.00666,-1.0987 1.68086,-0.48097 l 1.83116,1.67777 q 0.025,0.0229 0.16647,0.15253 0.13318,0.12202 0.16647,0.15252 0.0333,0.0305 0.15815,0.1449 0.12415,0.0984 0.17409,0.1442 0.0492,0.0298 0.15675,0.113 0.11514,0.0749 0.18865,0.1116 0.0652,0.0291 0.17131,0.0804 0.0978,0.0437 0.18656,0.0637 0.0888,0.0201 0.18516,0.0319 z"
           style="font-weight:500;font-size:11.2889px;-inkscape-font-specification:'Baker Signet, Medium';text-align:center;text-anchor:middle"
           id="path9439" />
        <path
           d="m 158.55755,192.90016 -1.54656,-1.26518 q -0.41067,-0.33595 -0.62752,-0.49877 -0.21685,-0.16281 -0.50439,-0.31053 -0.28754,-0.14771 -0.46069,-0.11434 0.14137,-0.19064 0.33118,-0.45833 0.18981,-0.26768 0.22555,-0.31137 0.0715,-0.0874 0.29707,0.0826 0.23274,0.16123 0.26848,0.11754 0.007,-0.009 -0.0381,-0.22081 -0.0453,-0.21207 -0.012,-0.52026 0.0333,-0.30818 0.21918,-0.53536 0.39314,-0.48057 0.72517,-0.20895 0.28834,0.23588 0.0382,0.5417 -0.0643,0.0786 -0.22317,0.25498 -0.16044,0.16046 -0.25336,0.27405 -0.24303,0.29708 -0.14691,0.53615 0.0961,0.23907 0.4369,0.51784 l 1.79995,1.47248 q 0.69901,0.57183 1.08107,0.62184 l -0.78628,0.96114 q -0.12472,-0.36456 -0.82374,-0.9364 z"
           style="font-weight:500;font-size:11.2889px;-inkscape-font-specification:'Baker Signet, Medium';text-align:center;text-anchor:middle"
           id="path9441" />
        <path
           d="m 155.29537,186.63352 0.51865,-1.01883 3.68646,2.68516 q 0.16425,0.11964 0.19748,0.074 0.0332,-0.0456 0.0267,-0.19005 -0.0443,-0.74452 -0.18915,-1.25506 -0.14736,-0.52631 -0.32073,-0.6526 -0.12775,-0.0931 -0.25888,-0.10476 l 0.6713,-0.92162 0.40973,2.65872 q 0.64663,-0.10162 2.49909,-0.0372 0.93535,0.0389 1.47327,-0.0861 l -0.69123,0.94899 -2.98947,-0.1524 q -0.27555,-0.005 -0.30213,0.0313 -0.0332,0.0456 0.12189,0.15861 l 1.06761,0.77764 q 0.73,0.53171 1.10513,0.55357 l -0.73111,1.00374 q -0.13586,-0.35035 -0.86586,-0.88207 l -4.34345,-3.16371 q -0.24637,-0.17946 -0.38077,-0.26338 -0.13439,-0.0839 -0.33852,-0.14881 -0.20413,-0.0649 -0.36601,-0.0152 z"
           style="font-weight:500;font-size:11.2889px;-inkscape-font-specification:'Baker Signet, Medium';text-align:center;text-anchor:middle"
           id="path9443" />
      </g>
      <g
         aria-label="Decoto - Fremont - Hayward - Mission Peak - Newark"
         id="text9204"
         style="font-weight:500;font-size:11.2889px;font-family:'Baker Signet';-inkscape-font-specification:'Baker Signet, Medium';text-align:center;text-anchor:middle;white-space:pre;fill:#ffffff;stroke-width:7.55906;stroke-linecap:round;stroke-linejoin:round">
        <path
           d="m 24.248667,165.49189 4.106194,-1.07518 q 1.059311,-0.27738 1.367706,-0.61486 0.142977,0.54604 0.486393,1.63474 0.346277,1.09961 0.492113,1.65657 0.357442,1.36509 -0.347776,2.45997 -0.705218,1.09488 -2.179517,1.48091 -1.769158,0.46325 -3.06502,-0.34105 -1.284942,-0.80715 -1.708153,-2.42342 -0.154415,-0.58972 -0.355617,-1.44725 -0.201203,-0.85754 -0.289848,-1.19608 0.434214,0.14303 1.493525,-0.13435 z m 4.865906,-0.22385 -4.816042,1.26105 q -0.567878,0.1487 -0.636017,0.42327 -0.06814,0.27457 0.172062,1.19191 0.360302,1.37601 1.375112,1.77545 1.028591,0.4075 2.481048,0.0272 1.441536,-0.37746 2.057564,-1.3673 0.618887,-0.97891 0.241428,-2.42045 -0.145836,-0.55696 -0.359021,-1.01459 -0.07644,0.02 -0.254037,0.0548 -0.174731,0.0457 -0.262097,0.0686 z"
           id="path9551" />
        <path
           d="m 28.873277,174.93916 -0.658756,-1.91032 q -0.420263,0.0972 -0.612362,0.1634 -0.821758,0.28338 -1.254897,0.86262 -0.418786,0.58625 -0.150131,1.36531 0.132487,0.3842 0.392672,0.68854 0.263865,0.31501 0.554224,0.42983 l -0.117394,0.0405 q -0.416215,0.14353 -0.945415,-0.28299 -0.514847,-0.41952 -0.724618,-1.02783 -0.342259,-0.99252 0.220784,-1.78374 0.563042,-0.79122 1.619588,-1.15556 1.088563,-0.37538 2.016682,-0.0387 0.938791,0.33304 1.303131,1.38959 0.253933,0.73638 0.003,1.32446 -0.250975,0.58808 -0.805928,0.77945 -0.234788,0.081 -0.400025,-0.0173 -0.150884,-0.0913 -0.231111,-0.25465 -0.06956,-0.16708 -0.209403,-0.57262 z m -0.316509,-1.9567 0.37906,1.09924 q 0.08464,0.24546 0.121447,0.35218 0.04747,0.10304 0.123653,0.22007 0.08685,0.11334 0.186949,0.12659 0.100099,0.0132 0.249509,-0.0383 0.320165,-0.11041 0.488341,-0.41917 0.171857,-0.29809 0.04305,-0.67162 -0.279695,-0.81108 -1.592009,-0.66902 z"
           id="path9553" />
        <path
           d="m 32.50836,179.22642 -1.034101,0.42387 -0.02141,-0.0522 q 0.22825,-0.27656 0.321225,-0.43668 0.107703,-0.15395 0.141254,-0.39951 0.03355,-0.24556 -0.08633,-0.53803 -0.274019,-0.66851 -1.038272,-0.80667 -0.764254,-0.13815 -1.662564,0.23006 -0.866973,0.35537 -1.249838,0.93932 -0.37242,0.57967 -0.04274,1.38397 0.286863,0.69985 0.936733,0.94589 l -0.167127,0.0685 q -0.396928,0.1627 -0.836007,-0.19414 -0.424352,-0.35068 -0.676962,-0.96697 -0.38962,-0.95053 0.05385,-1.80333 0.447752,-0.84236 1.429625,-1.24482 1.149001,-0.47097 2.183656,-0.0898 1.034655,0.38113 1.501342,1.51968 0.09848,0.24025 0.161333,0.48289 0.0733,0.23837 0.0829,0.38084 0.02432,0.14863 0.0034,0.1572 z"
           id="path9555" />
        <path
           d="m 32.648739,184.98606 q -1.199712,0.57893 -2.210326,0.27693 -1.005709,-0.29183 -1.550293,-1.42037 -0.470991,-0.97604 -0.05053,-1.79312 0.43553,-0.81183 1.360731,-1.25829 1.199712,-0.57893 2.20542,-0.28709 1.010614,0.30199 1.555198,1.43054 0.470992,0.97603 0.03546,1.78786 -0.420456,0.81708 -1.345657,1.26354 z m -1.590955,-3.55669 q -0.640524,0.30909 -1.085097,0.68657 -0.434405,0.37257 -0.618181,0.87489 -0.183777,0.50233 0.06153,1.01068 0.313995,0.65069 0.964981,0.67499 0.655891,0.0345 1.408253,-0.3286 0.640524,-0.30908 1.074929,-0.68166 0.444573,-0.37748 0.628349,-0.8798 0.183776,-0.50232 -0.06153,-1.01067 -0.313994,-0.6507 -0.969886,-0.68516 -0.650986,-0.0243 -1.403347,0.33876 z"
           id="path9557" />
        <path
           d="m 36.408462,184.08093 0.567835,0.58993 -1.405808,0.77032 0.444832,0.81181 q 0.04882,0.0891 -0.02048,0.12707 -0.138601,0.076 -0.342571,-0.10836 -0.19407,-0.18972 -0.345964,-0.46693 l -0.09222,-0.1683 -3.039317,1.66541 q -0.297002,0.16274 -0.40658,0.33864 -0.09968,0.17047 0.04679,0.43777 0.07052,0.1287 0.258218,0.28331 0.187696,0.1546 0.310295,0.1904 l -0.447402,0.19367 q -0.08462,0.0335 -0.395869,-0.18214 -0.315719,-0.2003 -0.456763,-0.4577 -0.48823,-0.89101 0.541376,-1.45518 l 3.187818,-1.74678 -0.22784,-0.4158 0.316801,-0.1736 0.267441,0.39411 z"
           id="path9559" />
        <path
           d="m 36.849019,192.13182 q -1.133673,0.69946 -2.170026,0.5032 -1.030426,-0.18665 -1.688397,-1.25307 -0.569055,-0.92231 -0.23503,-1.77837 0.34956,-0.85238 1.223833,-1.3918 1.133672,-0.69946 2.164098,-0.51281 1.036353,0.19626 1.694324,1.26268 0.569056,0.92231 0.219496,1.77469 -0.334025,0.85606 -1.208298,1.39548 z m -1.948971,-3.37383 q -0.605266,0.37344 -1.008576,0.79472 -0.393703,0.41535 -0.524741,0.93394 -0.131039,0.51858 0.165345,0.99895 0.37937,0.61487 1.029394,0.57196 0.655952,-0.0333 1.3669,-0.47195 0.605265,-0.37344 0.998968,-0.78879 0.40331,-0.42128 0.534349,-0.93987 0.131038,-0.51858 -0.165345,-0.99895 -0.379371,-0.61488 -1.035323,-0.58157 -0.650024,0.0429 -1.360971,0.48156 z"
           id="path9561" />
        <path
           d="m 39.865838,197.1692 -1.502721,-2.00563 0.79923,0.0501 1.509491,2.01466 z"
           id="path9563" />
        <path
           d="m 44.126573,200.65382 -1.346855,1.20351 q -0.81653,0.72962 -0.937254,1.17056 l -1.007937,-1.12799 q 0.451688,-0.0705 1.268219,-0.80018 l 3.165107,-2.82824 q 0.01684,-0.015 0.109432,-0.0978 0.0926,-0.0828 0.11785,-0.10531 0.03367,-0.0301 0.11785,-0.10531 0.0926,-0.0827 0.118745,-0.12124 0.03367,-0.0301 0.10191,-0.10621 0.07576,-0.0677 0.110328,-0.11372 0.03457,-0.046 0.08687,-0.12304 0.0523,-0.077 0.07935,-0.13146 0.03457,-0.046 0.06251,-0.11641 0.02794,-0.0704 0.04746,-0.13325 l 2.331795,2.60953 q 0.346008,0.38722 0.270247,0.45492 l -0.656591,0.58671 -0.03761,-0.0421 q 0.07899,-0.26739 -0.03151,-0.57741 -0.09456,-0.30913 -0.236576,-0.48501 -0.133603,-0.1834 -0.374304,-0.45277 l -0.774758,-0.86704 -2.163384,1.93313 q 1.188463,1.33002 1.826575,1.92554 -0.258619,0.0494 -0.556099,-0.0632 -0.28154,-0.11177 -0.594419,-0.3772 -0.305356,-0.25702 -0.479256,-0.43469 -0.1739,-0.17767 -0.429645,-0.46387 z"
           id="path9565" />
        <path
           d="m 45.154523,204.80129 1.423287,-1.40243 q 0.377935,-0.37239 0.563,-0.57059 0.185065,-0.1982 0.362678,-0.4683 0.177613,-0.2701 0.162944,-0.44583 0.174431,0.16094 0.42029,0.37829 0.245858,0.21735 0.285474,0.25755 0.07923,0.0804 -0.113872,0.28654 -0.185183,0.21416 -0.145566,0.25437 0.0079,0.008 0.22362,-0.0143 0.215697,-0.0224 0.518551,0.0437 0.302854,0.0661 0.50886,0.27516 0.435782,0.44227 0.130218,0.74335 -0.265359,0.26147 -0.542675,-0.02 -0.07131,-0.0724 -0.229658,-0.24916 -0.142384,-0.17667 -0.245387,-0.2812 -0.269393,-0.2734 -0.517372,-0.20339 -0.24798,0.07 -0.561586,0.37903 l -1.656481,1.6322 q -0.643294,0.63386 -0.733868,1.00838 l -0.871564,-0.88453 q 0.375813,-0.085 1.019107,-0.7189 z"
           id="path9567" />
        <path
           d="m 50.768698,207.4108 -1.486743,-1.36853 q -0.32375,0.28504 -0.461367,0.43454 -0.588698,0.63955 -0.694895,1.355 -0.09025,0.71478 0.516079,1.2729 0.29901,0.27523 0.672493,0.41955 0.381789,0.15197 0.691848,0.11517 l -0.0841,0.0914 q -0.298171,0.32393 -0.966422,0.1998 -0.6523,-0.12479 -1.125732,-0.56058 -0.772442,-0.71102 -0.652554,-1.6747 0.119888,-0.96368 0.876784,-1.78596 0.779833,-0.84719 1.756543,-0.99149 0.984354,-0.15261 1.806631,0.60429 0.573103,0.52753 0.631422,1.16426 0.05832,0.63673 -0.339244,1.06864 -0.168199,0.18272 -0.360274,0.1747 -0.176124,-0.009 -0.324308,-0.1144 -0.140539,-0.11403 -0.456161,-0.40455 z m -1.207546,-1.57183 0.855501,0.78747 q 0.191034,0.17585 0.274092,0.2523 0.0907,0.0682 0.21331,0.13498 0.130252,0.0585 0.224638,0.0227 0.09439,-0.0359 0.201423,-0.15215 0.229363,-0.24918 0.230785,-0.60076 0.0097,-0.34395 -0.280976,-0.61154 -0.631243,-0.58105 -1.718773,0.16704 z"
           id="path9569" />
        <path
           d="m 50.853032,210.25572 1.666389,-2.10756 q 0.560131,-0.70842 0.514203,-1.03256 l 0.936395,0.65403 -0.245057,0.30994 q -0.112027,0.14168 -0.05889,0.18369 0.0089,0.007 0.273276,2e-4 0.271421,-0.0157 0.633249,0.0546 0.370684,0.0772 0.618632,0.27326 0.336502,0.26606 0.400141,0.60421 0.07249,0.34514 0.01216,0.58526 -0.05333,0.23127 -0.01791,0.25928 0.02657,0.021 0.310138,-0.0282 0.290572,-0.0581 0.678554,-0.0391 0.387981,0.0189 0.67135,0.24299 1.009505,0.79819 0.09929,1.94938 l -1.568367,1.98358 q -0.56013,0.70843 -0.614491,1.0684 l -0.796978,-0.63014 1.918449,-2.42636 q 0.420098,-0.53131 0.537474,-0.97099 0.126231,-0.43267 -0.272258,-0.74774 -0.336501,-0.26606 -0.676499,-0.21828 -0.332995,0.0389 -0.589175,0.25372 -0.240322,0.21294 -0.548394,0.60257 l -1.092255,1.38143 q -0.560131,0.70842 -0.596781,1.0824 l -0.974084,-0.77018 q 0.355442,-0.12192 0.915573,-0.83034 l 1.162271,-1.46998 q 0.420098,-0.53132 0.537474,-0.97099 0.126231,-0.43267 -0.272257,-0.74775 -0.336502,-0.26606 -0.676499,-0.21828 -0.332996,0.0389 -0.589175,0.25373 -0.240323,0.21294 -0.548395,0.60257 l -1.092255,1.38143 q -0.560131,0.70842 -0.596781,1.0824 l -0.974083,-0.77018 q 0.355441,-0.12192 0.915572,-0.83035 z"
           id="path9571" />
        <path
           d="m 61.400746,216.13296 q -0.741305,1.10677 -1.765681,1.35816 -1.014996,0.25768 -2.056106,-0.43965 -0.90042,-0.60309 -0.951663,-1.52058 -0.03558,-0.92059 0.536102,-1.77411 0.741305,-1.10677 1.756302,-1.36445 1.024375,-0.25139 2.065486,0.44594 0.900419,0.60309 0.936001,1.52368 0.05124,0.91749 -0.520441,1.77101 z m -3.173061,-2.26117 q -0.395782,0.5909 -0.587962,1.14154 -0.185899,0.54126 -0.08998,1.06747 0.09592,0.52622 0.564892,0.84033 0.60028,0.40206 1.173917,0.0933 0.583018,-0.30244 1.047904,-0.99651 0.395781,-0.59091 0.581679,-1.13216 0.192181,-0.55064 0.09626,-1.07685 -0.09592,-0.52622 -0.564892,-0.84033 -0.60028,-0.40206 -1.183297,-0.0996 -0.573637,0.30873 -1.038523,1.0028 z"
           id="path9573" />
        <path
           d="m 63.107834,214.44685 0.941894,0.46867 -0.198422,0.34167 q -0.09071,0.1562 -0.03214,0.19021 0.01953,0.0113 0.270519,-0.0387 0.256664,-0.0598 0.634566,-0.0362 0.387664,0.0293 0.719577,0.22207 1.190981,0.69164 0.453984,1.96072 l -1.269903,2.18672 q -0.453536,0.78097 -0.45608,1.14502 l -0.878593,-0.51023 1.553364,-2.67483 q 0.158737,-0.27334 0.242835,-0.48559 0.08977,-0.22201 0.120961,-0.47804 0.04663,-0.26012 -0.07649,-0.47522 -0.113357,-0.20943 -0.396459,-0.37383 -0.917641,-0.53291 -1.705661,0.82403 l -0.912742,1.5717 q -0.453537,0.78097 -0.436556,1.15636 l -1.073836,-0.62361 q 0.334457,-0.1713 0.787993,-0.95227 l 1.349272,-2.32339 q 0.453537,-0.78097 0.361916,-1.09527 z"
           id="path9575" />
        <path
           d="m 68.377963,215.8308 0.800706,0.17125 -0.734191,1.42501 0.822893,0.42397 q 0.09032,0.0465 0.05412,0.11678 -0.07238,0.14049 -0.344559,0.10186 -0.267004,-0.0487 -0.547992,-0.19345 l -0.170599,-0.0879 -1.587299,3.08083 q -0.155111,0.30106 -0.147519,0.50815 0.01276,0.19707 0.283714,0.33667 0.130459,0.0672 0.372527,0.0903 0.242068,0.0231 0.363713,-0.0158 l -0.262466,0.41084 q -0.0514,0.0751 -0.430012,0.0705 -0.373748,0.0106 -0.634665,-0.12381 -0.903175,-0.46533 -0.365458,-1.509 l 1.664854,-3.23136 -0.421481,-0.21715 0.165451,-0.32113 0.442163,0.17701 z"
           id="path9577" />
        <path
           d="m 73.609219,222.90908 -2.309508,-0.97308 0.715242,-0.36014 2.319912,0.97746 z"
           id="path9579" />
        <path
           d="m 82.496226,223.97646 0.47324,-1.54339 q 0.294533,-0.96057 0.185289,-1.48999 l 1.467839,0.45007 q -0.387231,0.37719 -0.681764,1.33776 l -1.244322,4.05814 q -0.294534,0.96058 -0.18529,1.48999 l -1.467839,-0.45007 q 0.387231,-0.37719 0.681765,-1.33776 l 0.638708,-2.08303 -3.194708,-0.97958 -0.638708,2.08304 q -0.294533,0.96057 -0.185289,1.48999 l -1.467839,-0.45008 q 0.387231,-0.37718 0.681764,-1.33775 l 1.244322,-4.05815 q 0.294534,-0.96057 0.18529,-1.48999 l 1.467839,0.45008 q -0.387231,0.37719 -0.681765,1.33776 l -0.473239,1.54339 z"
           id="path9581" />
        <path
           d="m 84.643716,227.48341 q -0.08878,0.385 0.09657,0.63628 0.185348,0.25127 0.570356,0.34005 0.473011,0.10907 0.807185,-0.1846 0.347711,-0.30213 0.464392,-0.80814 l 0.256189,-1.11103 -0.662499,0.16004 q -0.796185,0.18713 -1.115994,0.36826 -0.317273,0.17013 -0.416198,0.59914 z m 2.67751,1.90335 -1.005241,-0.16229 q 0.0025,-0.16161 0.01263,-0.35622 0.01266,-0.20562 0.0059,-0.27669 0.0068,-0.0795 -0.03725,-0.0897 -0.033,-0.008 -0.07361,0.0178 -0.250417,0.23189 -0.390858,0.33853 -0.137904,0.0956 -0.427275,0.14476 -0.280907,0.0627 -0.643915,-0.021 -0.594013,-0.13698 -0.905462,-0.54476 -0.311449,-0.40779 -0.177013,-0.9908 0.05327,-0.231 0.200463,-0.41718 0.158197,-0.18364 0.320638,-0.2852 0.164978,-0.11257 0.453494,-0.20823 0.291054,-0.10666 0.462813,-0.14816 0.171759,-0.0415 0.499204,-0.105 0.327445,-0.0635 0.436593,-0.0847 0.586352,-0.13125 0.710719,-0.21843 0.194588,-0.14049 0.308732,-0.6355 0.223215,-0.96802 -0.634804,-1.16587 -0.352008,-0.0812 -0.58806,0.0382 -0.225052,0.12188 -0.325711,0.3072 -0.08966,0.18786 -0.259709,0.32242 -0.170051,0.13457 -0.401056,0.0813 -0.407009,-0.0939 -0.31823,-0.47886 0.11668,-0.50601 0.766497,-0.61104 0.663353,-0.1135 1.42237,0.0615 1.452031,0.33483 1.246572,1.22584 l -0.558036,2.42006 q -0.0076,0.033 -0.05073,0.22 -0.04058,0.17601 -0.05073,0.22001 -0.01015,0.044 -0.04819,0.209 -0.02451,0.15654 -0.03973,0.22254 -0.0017,0.0575 -0.02112,0.19208 -0.0084,0.13708 -0.0042,0.21915 0.0068,0.0711 0.01442,0.18869 0.01017,0.10661 0.03642,0.19376 0.02625,0.0871 0.06349,0.17683 z"
           id="path9583" />
        <path
           d="m 91.492542,225.01556 1.078559,0.18917 q -0.292591,0.36129 -0.627504,0.89853 l -2.271829,3.73904 q -0.189986,0.29906 -0.389142,0.58504 -0.188036,0.28794 -0.562943,0.72647 -0.376858,0.44966 -0.739482,0.75282 -0.364575,0.31428 -0.845028,0.50508 -0.469333,0.19275 -0.902981,0.11669 -0.200145,-0.0351 -0.38332,-0.10161 -0.194295,-0.0685 -0.361868,-0.22393 -0.167574,-0.15546 -0.13247,-0.35561 0.0351,-0.20014 0.190772,-0.17284 0.06672,0.0117 0.276029,0.0599 0.198195,0.0462 0.298268,0.0638 0.600435,0.10531 0.949612,0.0749 0.336107,-0.0213 0.515178,-0.1274 0.19019,-0.10418 0.45606,-0.37846 0.819849,-0.81895 0.981716,-1.74184 0.07606,-0.43365 0.022,-0.84427 l -0.198662,-1.74257 q -0.227741,-2.03419 -0.533053,-2.58058 0.678852,0.0503 0.83452,0.0776 0.13343,0.0234 0.175374,0.11099 0.05501,0.0784 0.07941,0.26608 l 0.384837,3.42563 q 0.04157,0.35113 0.09716,0.36088 0.04448,0.008 0.225293,-0.30432 l 0.877162,-1.66849 q 0.492124,-0.91081 0.558431,-1.28886 0.0351,-0.20015 -0.0521,-0.42175 z"
           id="path9585" />
        <path
           d="m 94.81297,225.47703 1.290269,0.1435 q -0.134657,0.18947 -0.150879,0.33533 -0.03119,0.28049 0.110836,1.14818 l 0.31643,2.15923 q 0.0075,0.0349 0.01,0.11469 0.01371,0.081 0.0087,0.12591 0.0062,0.0461 0.02243,0.10472 0.01745,0.0474 0.03739,0.0723 0.01994,0.0249 0.0536,0.0287 0.03366,0.004 0.05859,-0.0162 0.02493,-0.0199 0.05361,-0.0735 0.02868,-0.0536 0.04489,-0.0972 0.01746,-0.0549 0.05113,-0.15333 0.04489,-0.0972 0.06235,-0.15209 0.783093,-1.93472 0.879172,-2.79864 0.04118,-0.37025 -0.0099,-0.62582 l 1.009775,0.1123 q -0.326651,0.28171 -0.593501,0.9449 l -1.530041,3.95298 -0.695623,-0.0774 -0.561903,-3.32238 q -0.06853,-0.40517 -0.135843,-0.41265 -0.0561,-0.006 -0.189519,0.27424 l -1.480098,3.19751 -0.718062,-0.0799 -0.195458,-2.63419 q -0.12323,-1.85378 -0.452273,-2.57189 0.08976,0.01 0.418873,0.0125 0.340335,0.004 0.430093,0.0138 0.100978,0.0112 0.159562,0.0972 0.05858,0.086 0.06232,0.15459 0.01495,0.0698 0.0249,0.28674 l 0.182938,3.15529 q 0.02738,0.46874 0.0947,0.47623 0.06732,0.007 0.240636,-0.32535 1.048643,-2.07557 1.148466,-2.97315 0.04242,-0.38147 -0.05853,-0.59715 z"
           id="path9587" />
        <path
           d="m 99.283537,229.67007 q -0.01812,0.39469 0.209384,0.60855 0.227501,0.21385 0.622199,0.23197 0.48491,0.0223 0.76085,-0.3267 0.28773,-0.35972 0.31154,-0.87846 l 0.0523,-1.13898 -0.62293,0.27653 q -0.749571,0.32722 -1.031607,0.56289 -0.281519,0.22439 -0.301706,0.6642 z m 2.976063,1.39098 -1.01804,0.0211 q -0.0266,-0.15943 -0.0516,-0.35269 -0.0245,-0.20454 -0.044,-0.27324 -0.008,-0.0795 -0.0528,-0.0815 -0.0338,-0.002 -0.0692,0.0307 -0.20465,0.27313 -0.32363,0.40327 -0.11847,0.11887 -0.39429,0.21922 -0.26507,0.11214 -0.637209,0.0951 -0.608959,-0.028 -0.988644,-0.3731 -0.379685,-0.34515 -0.352252,-0.94283 0.01087,-0.23682 0.122198,-0.44642 0.122605,-0.20909 0.264141,-0.3382 0.142053,-0.14039 0.408671,-0.28637 0.267136,-0.15725 0.428638,-0.22894 0.161501,-0.0717 0.472197,-0.19304 0.31069,-0.12135 0.41425,-0.1618 0.5532,-0.23453 0.65987,-0.34264 0.16616,-0.17318 0.18945,-0.68065 0.0455,-0.99238 -0.83405,-1.03275 -0.36087,-0.0166 -0.571619,0.14327 -0.199474,0.16036 -0.265176,0.36076 -0.05443,0.20091 -0.197513,0.36386 -0.143089,0.16294 -0.379907,0.15207 -0.41725,-0.0192 -0.399133,-0.41385 0.02381,-0.51874 0.644157,-0.73888 0.632142,-0.23091 1.410261,-0.19519 1.48856,0.0683 1.44664,0.98176 l -0.11388,2.48095 q -0.002,0.0338 -0.0104,0.22554 -0.008,0.18043 -0.0104,0.22554 -0.002,0.0451 -0.01,0.21426 0.004,0.1584 9.3e-4,0.22606 0.009,0.0569 0.0138,0.19275 0.0163,0.13636 0.0353,0.21633 0.0194,0.0687 0.0481,0.18302 0.0292,0.10305 0.0707,0.18406 0.0415,0.081 0.0942,0.16253 z"
           id="path9589" />
        <path
           d="m 103.37573,229.82835 -0.005,-1.99813 q -0.001,-0.53058 -0.0132,-0.80148 -0.0119,-0.27091 -0.0804,-0.58684 -0.0685,-0.31593 -0.2042,-0.42851 0.23704,-0.0118 0.56437,-0.0352 0.32732,-0.0233 0.38377,-0.0235 0.11288,-2.6e-4 0.12483,0.28194 0.0232,0.28216 0.0797,0.28203 0.0113,-2e-5 0.14636,-0.16967 0.13507,-0.16965 0.39432,-0.33959 0.25925,-0.16993 0.55276,-0.17062 0.62089,-0.001 0.62189,0.42753 8.7e-4,0.37254 -0.39424,0.37346 -0.1016,2.3e-4 -0.3387,-0.0105 -0.22583,-0.0221 -0.37258,-0.0217 -0.38382,8.9e-4 -0.50748,0.22695 -0.12365,0.22607 -0.12262,0.66634 l 0.005,2.3255 q 0.002,0.90311 0.20606,1.23002 l -1.24177,0.003 q 0.20243,-0.32785 0.20033,-1.23096 z"
           id="path9591" />
        <path
           d="m 111.03801,230.8026 -0.99564,0.19103 -0.0689,-0.42581 q -0.006,-0.10144 -0.062,-0.0983 -0.0113,6.3e-4 -0.1722,0.15655 -0.16155,0.14466 -0.51409,0.31124 -0.34127,0.16596 -0.8034,0.19165 -0.93554,0.052 -1.48474,-0.67499 -0.53855,-0.73889 -0.59369,-1.73078 -0.0746,-1.34131 0.67183,-2.15163 0.75766,-0.81095 2.11024,-0.88615 0.20289,-0.0113 0.58863,0.0125 l -0.079,-1.42021 q -0.0501,-0.90172 -0.31064,-1.11337 l 1.07204,-0.2405 0.37095,6.67273 q 0.0508,0.91299 0.27056,1.20604 z m -1.1222,-1.47527 -0.13659,-2.45719 q -0.0238,-0.42832 -0.181,-0.61179 -0.15718,-0.18346 -0.56295,-0.16091 -0.91299,0.0508 -1.38575,0.69889 -0.47275,0.64813 -0.41761,1.64002 0.0482,0.8679 0.50164,1.49847 0.46403,0.61866 1.27558,0.57355 0.4734,-0.0263 0.70383,-0.35571 0.23043,-0.32939 0.20285,-0.82533 z"
           id="path9593" />
        <path
           d="m 116.93503,227.84094 -2.47964,0.36345 0.42539,-0.67846 2.49082,-0.36509 z"
           id="path9595" />
        <path
           d="m 125.8674,220.74242 1.11414,-0.29083 q -0.0318,0.10164 -0.0498,0.21135 -0.01,0.0959 0.002,0.23271 0.01,0.12585 0.0105,0.21894 0.009,0.0793 0.0409,0.24601 0.0428,0.16384 0.057,0.21845 0.0143,0.0546 0.0656,0.25123 0.0513,0.19661 0.0599,0.22938 0.0684,0.26215 0.23999,0.96406 0.17964,0.68815 0.27943,1.07045 0.097,0.37137 0.26707,0.93366 0.16726,0.55136 0.34163,0.99587 0.37725,0.99824 0.71213,1.3425 l -1.60566,0.41915 q 0.0541,-0.59747 -0.31663,-2.01744 l -0.94664,-3.6264 q -0.0627,-0.2403 -0.13919,-0.22034 -0.0765,0.02 -0.0992,0.20091 l -0.93837,6.4169 -3.47535,-4.82138 q -0.0361,-0.0489 -0.0888,-0.11682 -0.0418,-0.0707 -0.0751,-0.10874 -0.0223,-0.0408 -0.0694,-0.0869 -0.0389,-0.0598 -0.0694,-0.0869 -0.0195,-0.0299 -0.0499,-0.057 -0.0195,-0.0299 -0.0442,-0.0351 -0.0275,-0.0162 -0.0494,-0.0104 -0.0983,0.0257 -0.004,0.38611 l 0.91576,3.55279 q 0.14542,0.55706 0.22763,0.82729 0.0794,0.25929 0.21951,0.57272 0.14015,0.31343 0.295,0.45968 l -1.29982,0.33931 0.0612,-0.16766 q 0.27961,-0.76135 -0.46174,-3.6013 l -0.71283,-2.73072 q -0.0656,-0.25122 -0.14064,-0.35997 -0.0779,-0.11967 -0.29211,-0.18042 l 1.35444,-0.35357 q 0.28399,-0.0741 0.38138,0.0755 l 2.85976,4.34038 q 0.0195,0.0299 0.0475,0.0926 0.039,0.0598 0.0584,0.0898 0.0304,0.0271 0.0527,0.0679 0.0332,0.038 0.0608,0.0541 0.0247,0.005 0.0465,-4.8e-4 0.0874,-0.0228 0.12818,-0.31347 l 0.70065,-5.04812 q 0.0617,-0.38945 0.16472,-0.48636 0.0651,-0.0636 0.16336,-0.0893 z"
           id="path9597" />
        <path
           d="m 128.34978,222.19476 0.96999,-0.51598 1.27123,3.78869 q 0.28728,0.8562 0.58047,1.09123 l -1.17727,0.39502 q 0.0921,-0.36431 -0.19519,-1.22051 l -0.96958,-2.88968 q -0.0897,-0.23187 -0.13273,-0.3246 -0.0323,-0.0963 -0.12174,-0.18539 -0.093,-0.0998 -0.22518,-0.13878 z m -0.48831,-1.41984 0.59462,-0.78298 0.73292,0.55188 -0.6018,0.76157 z"
           id="path9599" />
        <path
           d="m 131.69387,221.92398 q 0.13315,0.34792 0.45543,0.52677 0.32879,0.16427 0.70964,0.21192 0.3914,0.0436 0.78032,0.11234 0.39543,0.0541 0.73385,0.27517 0.34493,0.20645 0.49825,0.60709 0.27034,0.70639 -0.14567,1.32492 -0.40546,0.61449 -1.14349,0.89693 -0.55879,0.21385 -1.25906,0.21592 -0.20344,0.005 -0.268,-0.16336 -0.0524,-0.13706 -0.13224,-0.40871 -0.0692,-0.27569 -0.10959,-0.38112 0.45817,0.34442 0.78786,0.4479 0.34025,0.0994 0.82523,-0.0862 0.99107,-0.37928 0.6481,-1.27545 -0.13315,-0.34793 -0.45139,-0.51623 -0.31174,-0.18289 -0.68205,-0.23457 -0.37434,-0.0622 -0.74869,-0.12444 -0.37838,-0.0728 -0.7168,-0.29379 -0.33191,-0.2356 -0.49734,-0.66787 -0.43173,-1.12812 1.17084,-1.74142 0.42173,-0.1614 1.00785,-0.24066 0.1532,-0.0103 0.17337,0.0424 0.10491,0.27412 0.25329,0.72501 -0.45101,-0.26255 -0.7168,-0.29379 -0.25928,-0.0458 -0.6283,0.0954 -0.33738,0.12911 -0.50477,0.38657 -0.16088,0.24288 -0.0398,0.55918 z"
           id="path9601" />
        <path
           d="m 135.37306,220.4459 q 0.15055,0.34076 0.48146,0.5031 0.33666,0.14745 0.71944,0.17579 0.3931,0.0238 0.785,0.0728 0.39766,0.0341 0.74681,0.23775 0.35492,0.18875 0.52829,0.58114 0.30567,0.69183 -0.0786,1.33058 -0.3739,0.63419 -1.09671,0.95356 -0.54728,0.2418 -1.24655,0.27925 -0.20292,0.0156 -0.27591,-0.14961 -0.0593,-0.13424 -0.15272,-0.40151 -0.0831,-0.27184 -0.1287,-0.3751 0.47498,0.32083 0.80948,0.40753 0.34483,0.0821 0.81983,-0.12773 0.97063,-0.42886 0.58283,-1.30657 -0.15056,-0.34075 -0.4769,-0.49276 -0.32057,-0.1669 -0.69302,-0.19981 -0.37701,-0.0432 -0.75402,-0.0865 -0.38158,-0.0536 -0.73073,-0.2572 -0.34339,-0.21853 -0.53044,-0.64189 -0.48817,-1.10487 1.08136,-1.79835 0.41304,-0.18249 0.99441,-0.29126 0.15249,-0.018 0.1753,0.0336 0.11862,0.26848 0.28958,0.71129 -0.46369,-0.23942 -0.73072,-0.2572 -0.26127,-0.0327 -0.62267,0.12702 -0.33043,0.14599 -0.48461,0.41158 -0.1484,0.2507 -0.0115,0.56047 z"
           id="path9603" />
        <path
           d="m 137.99274,218.3196 0.89237,-0.64092 1.76592,3.58492 q 0.39908,0.81016 0.72104,1.00392 l -1.11396,0.54873 q 0.0426,-0.37334 -0.35647,-1.1835 l -1.34689,-2.73426 q -0.11987,-0.21781 -0.1749,-0.30396 -0.0449,-0.0911 -0.14541,-0.16747 -0.10551,-0.0865 -0.2417,-0.10746 z m -0.6736,-1.34189 0.48471,-0.85539 0.80006,0.44904 -0.49468,0.83513 z"
           id="path9605" />
        <path
           d="m 145.23213,217.10529 q 0.64662,1.16462 0.40293,2.19086 -0.23381,1.02075 -1.32935,1.62902 -0.94749,0.52606 -1.78729,0.15304 -0.83541,-0.38837 -1.33408,-1.28651 -0.64662,-1.16462 -0.4128,-2.18538 0.24368,-1.02624 1.33922,-1.6345 0.94749,-0.52606 1.7829,-0.13769 0.8398,0.37301 1.33847,1.27116 z m -3.45984,1.79184 q 0.34522,0.62179 0.74752,1.04404 0.39682,0.41237 0.90883,0.56711 0.51202,0.15473 1.0055,-0.11926 0.63166,-0.35071 0.61867,-1.00202 -0.003,-0.65679 -0.40862,-1.38714 -0.34523,-0.62179 -0.74205,-1.03417 -0.4023,-0.42225 -0.91431,-0.57698 -0.51202,-0.15474 -1.0055,0.11925 -0.63166,0.35071 -0.62854,1.0075 0.013,0.65131 0.4185,1.38167 z"
           id="path9607" />
        <path
           d="m 144.51025,214.81686 0.84676,-0.62436 0.21352,0.33245 q 0.0976,0.15198 0.1546,0.11537 0.019,-0.0122 0.089,-0.25839 0.0639,-0.25568 0.25731,-0.58118 0.20294,-0.3316 0.52589,-0.53902 1.15882,-0.74428 1.9519,0.49053 l 1.36655,2.12766 q 0.48805,0.75988 0.81084,0.92823 l -0.85486,0.54905 -1.67158,-2.60258 q -0.17082,-0.26596 -0.32132,-0.43763 -0.15661,-0.18117 -0.37021,-0.32573 -0.21021,-0.16016 -0.45778,-0.14873 -0.23808,0.005 -0.51354,0.18225 -0.89286,0.57346 -0.0449,1.89375 l 0.98221,1.52926 q 0.48805,0.75987 0.82984,0.91602 l -1.04484,0.67107 q 1.6e-4,-0.37577 -0.48789,-1.13565 l -1.45196,-2.26064 q -0.48805,-0.75988 -0.80953,-0.82173 z"
           id="path9609" />
        <path
           d="m 153.30485,213.14157 -2.63556,-3.32726 q -0.67992,-0.85836 -1.11293,-1.00502 0.35397,-0.28038 1.00915,-0.87137 0.65518,-0.59098 1.0003,-0.86435 0.81411,-0.64487 1.55245,-0.56726 0.73134,0.0688 1.27107,0.75014 0.61683,0.77872 0.55806,1.63175 -0.0588,0.85304 -0.83749,1.46987 -0.46015,0.36449 -0.92408,0.41515 0.24628,-0.25269 0.37569,-0.3984 0.13125,-0.16157 0.29307,-0.44817 0.17067,-0.2936 0.1824,-0.53332 0.0206,-0.24673 -0.0924,-0.58931 -0.1111,-0.35843 -0.4055,-0.73009 -0.46263,-0.58404 -0.95389,-0.71335 -0.49127,-0.12931 -1.11956,0.36836 l -0.70792,0.56076 3.34352,4.22101 q 0.63787,0.80527 1.14832,0.97699 l -1.22117,0.96731 q -0.0366,-0.44623 -0.72357,-1.31344 z"
           id="path9611" />
        <path
           d="m 158.24646,206.69161 -1.50416,1.34936 q 0.25285,0.34947 0.38854,0.50073 0.58045,0.64704 1.2825,0.82102 0.70291,0.15805 1.31634,-0.39225 0.30251,-0.27139 0.48181,-0.62939 0.18771,-0.36555 0.18066,-0.6777 l 0.0829,0.0924 q 0.294,0.32772 0.10667,0.98108 -0.18647,0.63741 -0.66545,1.0671 -0.78149,0.70107 -1.72933,0.48977 -0.94784,-0.2113 -1.69414,-1.04321 -0.76891,-0.85712 -0.81935,-1.84314 -0.058,-0.99442 0.77393,-1.74072 0.57982,-0.52015 1.21921,-0.51744 0.63939,0.003 1.03138,0.43967 0.16585,0.18487 0.13953,0.3753 -0.0255,0.17449 -0.14483,0.31191 -0.12691,0.12902 -0.44623,0.41548 z m -1.67989,1.05204 0.86552,-0.77645 q 0.19327,-0.17339 0.2773,-0.24877 0.0765,-0.0838 0.15472,-0.19946 0.0707,-0.12407 0.044,-0.22145 -0.0267,-0.0974 -0.13223,-0.21502 -0.22615,-0.25209 -0.576,-0.28706 -0.34145,-0.0425 -0.63556,0.22134 -0.63863,0.57292 0.002,1.72687 z"
           id="path9613" />
        <path
           d="m 161.44505,206.40796 q 0.27994,0.27883 0.59121,0.25426 0.31127,-0.0246 0.5901,-0.30451 0.34256,-0.34393 0.26984,-0.78282 -0.0727,-0.45485 -0.44067,-0.82131 l -0.80783,-0.80463 -0.21424,0.64701 q -0.26188,0.77482 -0.27711,1.14205 -0.0232,0.35925 0.2887,0.66995 z m 3.03082,-1.26727 -0.669,0.76765 q -0.13588,-0.0875 -0.29575,-0.19897 -0.16787,-0.1194 -0.23179,-0.1512 -0.064,-0.0478 -0.0958,-0.0158 -0.0239,0.024 -0.0238,0.0719 0.0645,0.33514 0.0808,0.51072 0.008,0.16761 -0.10289,0.43924 -0.0953,0.27159 -0.35815,0.53554 -0.43019,0.43191 -0.94097,0.48082 -0.51079,0.0489 -0.9347,-0.37332 -0.16796,-0.16729 -0.24823,-0.39064 -0.0723,-0.23135 -0.0727,-0.42293 -0.008,-0.19955 0.0629,-0.49504 0.0632,-0.30346 0.1188,-0.4712 0.0555,-0.16774 0.17466,-0.4793 0.11912,-0.31155 0.15882,-0.4154 0.19843,-0.56715 0.19015,-0.7188 -0.0164,-0.23944 -0.37637,-0.59794 -0.70385,-0.70106 -1.32524,-0.0772 -0.25493,0.25595 -0.27835,0.51942 -0.0155,0.25547 0.0887,0.43886 0.1121,0.17539 0.13648,0.39087 0.0244,0.21548 -0.14292,0.38344 -0.29477,0.29594 -0.57471,0.0171 -0.36792,-0.36646 -0.11369,-0.97364 0.2542,-0.62313 0.80389,-1.17502 1.05158,-1.05578 1.69945,-0.41049 l 1.75963,1.75264 q 0.024,0.0239 0.15997,0.15933 0.12797,0.12747 0.15997,0.15934 0.032,0.0319 0.15196,0.15136 0.11995,0.10353 0.16794,0.15133 0.048,0.0318 0.1519,0.11944 0.11192,0.0796 0.18384,0.11937 0.0639,0.0318 0.1678,0.0875 0.0959,0.0477 0.18374,0.0715 0.0879,0.0238 0.18368,0.0395 z"
           id="path9615" />
        <path
           d="m 159.24444,199.42815 0.61679,-0.96259 3.40307,3.03632 q 0.15162,0.13528 0.1892,0.0932 0.0376,-0.0421 0.0454,-0.18648 0.0295,-0.74525 -0.0642,-1.26761 -0.0946,-0.53829 -0.25467,-0.68109 -0.11793,-0.10522 -0.24726,-0.12984 l 0.75908,-0.85076 0.145,2.68619 q 0.6535,-0.0372 2.49053,0.20995 0.92694,0.1311 1.47456,0.0599 l -0.78162,0.87604 -2.95977,-0.44707 q -0.27369,-0.0324 -0.30375,0.001 -0.0376,0.0421 0.10562,0.16989 l 0.98554,0.87933 q 0.67387,0.60125 1.04501,0.66007 l -0.82672,0.92657 q -0.10057,-0.36206 -0.77445,-0.96331 l -4.00956,-3.57744 q -0.22743,-0.20292 -0.35288,-0.29972 -0.12544,-0.0968 -0.32215,-0.18154 -0.19672,-0.0847 -0.36272,-0.0513 z"
           id="path9617" />
        <path
           d="m 169.51688,195.62328 -1.5038,2.00483 -0.17606,-0.78121 1.51057,-2.01385 z"
           id="path9619" />
        <path
           d="m 174.43521,192.36131 -0.66971,1.11215 q -0.58919,-0.81601 -2.62007,-2.03896 l -2.0599,-1.24041 q -0.97675,-0.58818 -1.47257,-0.46506 l 0.58817,-0.97676 q 0.0932,-0.15473 0.16878,-0.21463 0.0659,-0.0657 0.2189,-0.079 0.19945,-0.0248 1.15781,-0.0407 0.94869,-0.0217 1.2488,-0.0387 l 3.8764,-0.28809 q 0.3311,-0.0246 0.3544,-0.0633 0.0408,-0.0677 -0.14298,-0.17834 l -3.41382,-2.05571 q -0.80268,-0.48335 -1.37764,-0.51331 l 0.60565,-1.00577 q 0.3862,0.62789 1.26625,1.15783 l 3.86835,2.32941 q 0.31914,0.19218 0.91104,0.52225 l -0.41347,0.68663 -7.16994,0.50548 q -0.14714,0.004 -0.17044,0.0423 -0.0349,0.058 0.11012,0.14538 l 2.48542,1.49665 q 0.60926,0.36688 0.87038,0.52411 0.26693,0.14757 0.81058,0.3827 0.54365,0.23513 0.96949,0.29389 z"
           id="path9621" />
        <path
           d="m 175.92891,183.01822 -0.91335,1.80252 q 0.36224,0.23417 0.5435,0.32602 0.77538,0.3929 1.49278,0.30082 0.71243,-0.10726 1.08492,-0.84236 0.18369,-0.36252 0.22117,-0.76116 0.0426,-0.40871 -0.0771,-0.69712 l 0.11077,0.0561 q 0.39273,0.199 0.45473,0.87584 0.057,0.66168 -0.2338,1.23566 -0.47454,0.93651 -1.43456,1.08282 -0.96002,0.14632 -1.95695,-0.35883 -1.02713,-0.52047 -1.43124,-1.42129 -0.41418,-0.90592 0.091,-1.90284 0.35208,-0.69482 0.94904,-0.92386 0.59697,-0.22904 1.1206,0.0363 0.22154,0.11226 0.26597,0.2993 0.0395,0.17186 -0.022,0.34318 -0.0716,0.16623 -0.26547,0.54888 z m -1.18484,1.58902 0.52557,-1.0372 q 0.11736,-0.23161 0.16838,-0.33231 0.041,-0.1058 0.072,-0.24195 0.0209,-0.14125 -0.0392,-0.22235 -0.0601,-0.0811 -0.20113,-0.15253 -0.3021,-0.15308 -0.64086,-0.059 -0.33366,0.084 -0.51225,0.43649 -0.38779,0.76531 0.62751,1.60882 z"
           id="path9623" />
        <path
           d="m 175.83837,178.94912 0.50798,-1.19471 q 0.14283,0.1834 0.27788,0.24082 0.25972,0.11044 1.13164,0.22357 l 2.15915,0.31698 q 0.0356,0.003 0.11273,0.0234 0.0815,0.0102 0.12311,0.0278 0.046,0.007 0.10675,0.009 0.0504,-0.003 0.08,-0.0151 0.0296,-0.0119 0.0429,-0.0431 0.0133,-0.0312 0.001,-0.0608 -0.0119,-0.0296 -0.055,-0.0725 -0.0431,-0.0429 -0.0803,-0.0709 -0.0475,-0.0325 -0.13219,-0.093 -0.0802,-0.0709 -0.12777,-0.1034 -1.62834,-1.30571 -2.42828,-1.64584 -0.34283,-0.14577 -0.6023,-0.17023 l 0.39755,-0.93499 q 0.17604,0.39379 0.73466,0.83985 l 3.34707,2.6008 -0.27387,0.6441 -3.3438,-0.41587 q -0.40778,-0.0507 -0.43428,0.0116 -0.0221,0.052 0.20827,0.26029 l 2.63777,2.33601 -0.28271,0.66488 -2.57936,-0.56926 q -1.81109,-0.41432 -2.59344,-0.30536 0.0353,-0.0831 0.13227,-0.39764 0.10136,-0.32491 0.13669,-0.40802 0.0398,-0.0935 0.13899,-0.12491 0.0992,-0.0314 0.16597,-0.0153 0.0712,0.006 0.28181,0.0585 l 3.07491,0.73089 q 0.45687,0.10839 0.48337,0.0461 0.0265,-0.0623 -0.24254,-0.32394 -1.68699,-1.60052 -2.5181,-1.95391 -0.35322,-0.15018 -0.5888,-0.11542 z"
           id="path9625" />
        <path
           d="m 181.1373,175.87165 q 0.37298,0.13036 0.64302,-0.0264 0.27004,-0.15675 0.4004,-0.52973 0.16016,-0.45824 -0.0952,-0.82254 -0.26229,-0.37867 -0.7525,-0.55 l -1.07633,-0.37618 0.0866,0.67602 q 0.0989,0.81188 0.24398,1.14959 0.1344,0.33397 0.55002,0.47923 z m 2.18481,-2.45324 -0.27127,0.98146 q -0.16037,-0.0202 -0.35271,-0.0515 -0.20299,-0.0351 -0.27438,-0.0361 -0.0783,-0.0154 -0.0932,0.0272 -0.0112,0.032 0.01,0.0751 0.2031,0.27428 0.29374,0.42554 0.08,0.14754 0.0971,0.44055 0.0316,0.28607 -0.0914,0.63775 -0.20113,0.57546 -0.64054,0.84043 -0.4394,0.26498 -1.00421,0.0676 -0.22379,-0.0782 -0.39275,-0.24489 -0.16523,-0.17733 -0.24842,-0.34991 -0.0938,-0.1763 -0.15737,-0.47355 -0.0742,-0.30098 -0.0966,-0.47624 -0.0224,-0.17527 -0.0498,-0.5077 -0.0273,-0.33243 -0.0364,-0.44323 -0.0663,-0.5972 -0.13937,-0.73035 -0.11837,-0.20879 -0.59792,-0.3764 -0.9378,-0.32776 -1.22832,0.50347 -0.11918,0.34101 -0.0264,0.5887 0.0965,0.23704 0.26973,0.35736 0.17692,0.10967 0.29208,0.29342 0.11515,0.18375 0.0369,0.40755 -0.13781,0.3943 -0.5108,0.26394 -0.49021,-0.17134 -0.52353,-0.82874 -0.0402,-0.67179 0.21674,-1.40711 0.49165,-1.40669 1.35485,-1.105 l 2.34449,0.81941 q 0.032,0.0112 0.21313,0.0745 0.17051,0.0596 0.21314,0.0745 0.0426,0.0149 0.20247,0.0708 0.15292,0.0415 0.21686,0.0638 0.057,0.008 0.18862,0.042 0.13533,0.0234 0.21738,0.0281 0.0714,0.001 0.18913,0.006 0.10708,0.002 0.19658,-0.015 0.0895,-0.0166 0.18271,-0.0438 z"
           id="path9627" />
        <path
           d="m 182.4589,171.99771 -1.91649,-0.56534 q -0.5089,-0.15012 -0.77195,-0.21595 -0.26306,-0.0658 -0.5854,-0.0903 -0.32234,-0.0245 -0.46894,0.0735 0.0563,-0.23058 0.12722,-0.55097 0.071,-0.32039 0.0869,-0.37452 0.0319,-0.10828 0.30582,-0.0393 0.27708,0.0582 0.29305,0.004 0.003,-0.0108 -0.12089,-0.18867 -0.12408,-0.17784 -0.21304,-0.47479 -0.089,-0.29694 -0.006,-0.57846 0.17567,-0.59552 0.58712,-0.47415 0.35731,0.1054 0.24552,0.48437 -0.0288,0.0975 -0.10665,0.32164 -0.0855,0.21016 -0.12706,0.35092 -0.1086,0.36814 0.0728,0.55112 0.18142,0.18299 0.6037,0.30756 l 2.23049,0.65796 q 0.86621,0.25553 1.2377,0.15325 l -0.35134,1.19104 q -0.25651,-0.28752 -1.12272,-0.54304 z"
           id="path9629" />
        <path
           d="m 177.03291,167.43937 0.09,-1.1397 4.43271,1.07297 q 0.19749,0.0478 0.21077,-0.007 0.0133,-0.0549 -0.0479,-0.18583 -0.32538,-0.67112 -0.65433,-1.08758 -0.33726,-0.43008 -0.54573,-0.48054 -0.1536,-0.0372 -0.27926,0.002 l 0.26824,-1.10818 1.39446,2.30046 q 0.55875,-0.34096 2.29529,-0.98919 0.87924,-0.32146 1.32861,-0.64243 l -0.27621,1.14109 -2.8209,1.00134 q -0.25662,0.10049 -0.26724,0.14438 -0.0133,0.0549 0.17324,0.10001 l 1.28373,0.31074 q 0.87776,0.21247 1.23279,0.0893 l -0.29215,1.20693 q -0.25941,-0.27186 -1.13717,-0.48433 l -5.22269,-1.2642 q -0.29625,-0.0717 -0.45251,-0.0979 -0.15627,-0.0262 -0.3697,-0.008 -0.21343,0.018 -0.34405,0.12579 z"
           id="path9631" />
      </g>
    </g>
  </g>
</svg>
