<?xml version="1.0" encoding="UTF-8" standalone="no"?>
<!-- Created with Inkscape (http://www.inkscape.org/) -->

<svg
   width="210mm"
   height="297mm"
   viewBox="0 0 210 297"
   version="1.1"
   id="svg5"
   sodipodi:docname="size_example.svg"
   inkscape:version="1.2.1 (9c6d41e4, 2022-07-14)"
   xmlns:inkscape="http://www.inkscape.org/namespaces/inkscape"
   xmlns:sodipodi="http://sodipodi.sourceforge.net/DTD/sodipodi-0.dtd"
   xmlns="http://www.w3.org/2000/svg"
   xmlns:svg="http://www.w3.org/2000/svg">
  <sodipodi:namedview
     id="namedview7"
     pagecolor="#ffffff"
     bordercolor="#000000"
     borderopacity="0.25"
     inkscape:showpageshadow="2"
     inkscape:pageopacity="0.0"
     inkscape:pagecheckerboard="0"
     inkscape:deskcolor="#d1d1d1"
     inkscape:document-units="mm"
     showgrid="false"
     inkscape:zoom="0.5"
     inkscape:cx="467"
     inkscape:cy="555"
     inkscape:window-width="1390"
     inkscape:window-height="1027"
     inkscape:window-x="174"
     inkscape:window-y="30"
     inkscape:window-maximized="0"
     inkscape:current-layer="layer1" />
  <defs
     id="defs2">
    <rect
       x="418"
       y="246"
       width="543"
       height="101"
       id="rect668" />
    <rect
       x="111.356"
       y="400.62561"
       width="317.4286"
       height="241.91131"
       id="rect236" />
  </defs>
  <g
     inkscape:label="Layer 1"
     inkscape:groupmode="layer"
     id="layer1">
    <g
       aria-label="G"
       transform="matrix(3.9251767,0,0,3.9251767,-927.60503,-1516.6293)"
       id="text234"
       style="font-weight:500;font-size:42.6667px;font-family:'Baker Signet';-inkscape-font-specification:'Baker Signet, Medium';text-align:center;text-anchor:middle;white-space:pre;shape-inside:url(#rect236);fill:#a66317;stroke-width:2;stroke-linecap:round;stroke-linejoin:round">
      <path
         d="m 281.01432,409.06219 v 4.608 q -2.13333,-1.74933 -4.13867,-2.47467 -2.00533,-0.72533 -4.48,-0.72533 -4.77867,0 -7.63734,3.456 -2.816,3.456 -2.816,8.36267 0,6.10134 2.98667,9.55734 2.98667,3.45601 9.00267,3.45601 1.28,0 3.15734,-0.29867 0.42667,-1.45067 0.42667,-4.39467 v -2.09067 q 0,-4.13867 -0.93867,-5.58934 h 5.71734 q -0.93867,1.45067 -0.93867,5.58934 v 4.26667 q 0,1.83467 0.29867,3.712 -4.18134,0.68267 -9.08801,0.68267 -7.08267,0 -11.09334,-3.28533 -3.96801,-3.32801 -3.96801,-10.28268 0,-4.992 2.30401,-8.44801 2.304,-3.456 6.05867,-4.992 3.79733,-1.57867 8.704,-1.57867 0.46934,0 6.44267,0.46934 z"
         id="path398" />
    </g>
    <g
       aria-label="THE QUANTUM REALM"
       transform="matrix(0.00437199,0,0,0.00437199,156.72935,142.64551)"
       id="text666"
       style="font-weight:500;font-size:42.6667px;font-family:'Baker Signet';-inkscape-font-specification:'Baker Signet, Medium';text-align:center;text-anchor:middle;white-space:pre;shape-inside:url(#rect668);fill:#ffffff;stroke-width:2;stroke-linecap:round;stroke-linejoin:round">
      <path
         d="m 500.65766,281.87187 h -5.71734 q 0.93867,-1.45066 0.93867,-5.58933 v -19.49868 h -5.67467 q -1.792,0 -3.02934,0.93866 l 0.85333,-3.072 h 21.46135 q -0.85333,2.13334 -5.07733,2.13334 h -4.69334 v 19.49868 q 0,4.13867 0.93867,5.58933 z"
         id="path672"
         style="fill:#ffffff" />
      <path
         d="m 529.54296,266.3412 v -6.10134 q 0,-3.79734 -0.98133,-5.58934 h 5.80267 q -0.98134,1.792 -0.98134,5.58934 v 16.04268 q 0,3.79733 0.98134,5.58933 h -5.80267 q 0.98133,-1.792 0.98133,-5.58933 v -8.23468 h -12.62934 v 8.23468 q 0,3.79733 0.98133,5.58933 h -5.80267 q 0.98133,-1.792 0.98133,-5.58933 v -16.04268 q 0,-3.79734 -0.98133,-5.58934 h 5.80267 q -0.98133,1.792 -0.98133,5.58934 v 6.10134 z"
         id="path674"
         style="fill:#ffffff" />
      <path
         d="m 543.75093,268.68786 v 11.47735 h 4.90667 q 4.65067,0 7.38134,-2.43201 l -0.768,3.92534 q -2.90133,0.21333 -4.096,0.21333 h -12.33068 q 1.06667,-1.664 1.06667,-5.58933 v -16.04268 q 0,-4.13867 -0.93867,-5.58934 h 14.89068 l 0.17067,3.28534 q -1.83467,-1.57867 -6.31467,-1.57867 h -3.96801 v 10.19734 q 6.74134,0 10.02668,-0.29867 -0.512,0.85334 -1.57867,1.408 -1.024,0.512 -2.56,0.72534 -1.49334,0.21333 -2.43201,0.256 -0.93866,0.0427 -2.38933,0.0427 z"
         id="path676"
         style="fill:#ffffff" />
      <path
         d="m 591.62288,268.9012 q 0,-2.304 -0.42667,-4.43734 -0.42667,-2.13333 -1.36534,-4.13867 -0.93866,-2.048 -2.77333,-3.24267 -1.792,-1.23733 -4.224,-1.23733 -4.35201,0 -6.57068,3.41333 -2.21866,3.37067 -2.21866,8.36268 0,2.304 0.42666,4.43733 0.42667,2.13334 1.36534,4.18134 0.93867,2.00533 2.73067,3.24267 1.83466,1.19467 4.26667,1.19467 4.352,0 6.57067,-3.37067 2.21867,-3.41334 2.21867,-8.40534 z m 7.59467,19.88268 q -3.456,0 -7.12534,-1.28 -3.66934,-1.23734 -7.21067,-2.90134 -3.54134,-1.664 -5.20534,-2.13333 -5.03467,-1.36534 -7.55201,-5.03467 -2.51733,-3.66934 -2.51733,-8.61868 0,-6.35733 3.584,-10.58134 3.58401,-4.26667 9.98401,-4.26667 6.4,0 9.64267,3.84001 3.24267,3.84 3.24267,9.89867 0,2.56 -0.512,4.69334 -0.512,2.13333 -1.32267,3.54133 -0.768,1.408 -1.74933,2.51734 -0.98133,1.10933 -1.96267,1.74933 -0.98133,0.59734 -1.792,1.024 -0.768,0.384 -1.28,0.59734 -0.512,0.21333 -0.512,0.29866 0,0.128 0.256,0.256 0.29867,0.17067 0.896,0.384 0.64,0.21334 1.23733,0.384 0.59734,0.21334 1.62134,0.51201 1.024,0.34133 1.74933,0.55466 6.65601,2.176 9.89868,2.176 2.048,0 3.49867,-0.21333 -1.92,2.60267 -6.86934,2.60267 z"
         id="path678"
         style="fill:#ffffff" />
      <path
         d="m 616.36948,254.65052 h 5.71733 q -0.93866,1.49333 -0.93866,5.632 v 16.04268 q 0,4.13867 0.93866,5.54667 l -5.07733,0.256 0.17066,-2.816 q 0,-0.17066 -0.21333,-0.17066 -0.0427,0 -0.128,0.0853 -0.0427,0.0427 -0.17067,0.17067 -0.128,0.128 -0.21333,0.21333 -3.49867,2.944 -8.23467,2.944 -8.19201,0 -8.36268,-7.25334 v -15.01868 q 0,-4.13867 -0.93866,-5.632 h 5.71733 q -0.93866,1.49333 -0.93866,5.632 v 12.45868 q 0.21333,7.33867 6.82667,7.33867 3.54133,0 5.03467,-2.048 1.49333,-2.09067 1.57867,-6.144 0,-0.512 0.0853,-2.21867 0.0853,-1.74934 0.0853,-2.688 v -6.69868 q 0,-4.13867 -0.93866,-5.632 z"
         id="path680"
         style="fill:#ffffff" />
      <path
         d="m 640.68945,268.21853 -2.98667,-9.13067 q -0.29867,-1.024 -0.72534,-1.024 -0.29866,0 -0.72533,1.024 l -3.712,9.13067 z m 9.984,13.65334 h -4.608 l -4.65067,-11.94667 h -9.60001 q -3.75467,7.59467 -3.75467,10.32534 0,0.768 0.128,1.62133 h -5.33333 l 0.93866,-1.19466 q 2.00534,-2.51734 6.61334,-12.45868 4.608,-9.94134 4.608,-12.41601 l 0.0427,-1.152 h 5.03467 q 0.21334,0.72533 1.10934,3.584 0.93866,2.85867 1.28,3.92534 0.384,1.06667 1.19466,3.584 0.85334,2.47467 1.40801,3.92534 0.55466,1.408 1.36533,3.49867 0.85333,2.048 1.664,3.79733 0.81067,1.70667 1.70667,3.32801 z"
         id="path682"
         style="fill:#ffffff" />
      <path
         d="m 657.03071,281.87187 h -4.90667 q 1.49334,-3.49867 1.49334,-12.45867 v -9.08801 q 0,-4.30934 -1.36534,-5.67467 h 4.30934 q 0.68267,0 1.024,0.128 0.34133,0.0853 0.68267,0.55467 0.46933,0.59733 2.38933,3.66933 1.92,3.02934 2.56,3.96801 l 8.49068,11.98934 q 0.72533,1.024 0.896,1.024 0.29867,0 0.29867,-0.81067 v -15.06134 q 0,-3.54134 -1.02401,-5.46134 h 4.43734 q -1.28,2.47467 -1.28,6.35734 v 17.06668 q 0,1.408 0.0853,3.968 h -3.02933 l -15.61601,-22.22935 q -0.29867,-0.46933 -0.46934,-0.46933 -0.256,0 -0.256,0.64 v 10.96534 q 0,2.688 0,3.84 0.0427,1.152 0.34134,3.37067 0.29866,2.21867 0.93866,3.712 z"
         id="path684"
         style="fill:#ffffff" />
      <path
         d="m 691.84668,281.87187 h -5.71733 q 0.93866,-1.45066 0.93866,-5.58933 v -19.49868 h -5.67467 q -1.792,0 -3.02933,0.93866 l 0.85333,-3.072 h 21.46135 q -0.85333,2.13334 -5.07734,2.13334 h -4.69333 v 19.49868 q 0,4.13867 0.93866,5.58933 z"
         id="path686"
         style="fill:#ffffff" />
      <path
         d="m 720.64666,254.65052 h 5.71734 q -0.93867,1.49333 -0.93867,5.632 v 16.04268 q 0,4.13867 0.93867,5.54667 l -5.07734,0.256 0.17067,-2.816 q 0,-0.17066 -0.21334,-0.17066 -0.0427,0 -0.128,0.0853 -0.0427,0.0427 -0.17066,0.17067 -0.128,0.128 -0.21334,0.21333 -3.49867,2.944 -8.23467,2.944 -8.19201,0 -8.36267,-7.25334 v -15.01868 q 0,-4.13867 -0.93867,-5.632 h 5.71734 q -0.93867,1.49333 -0.93867,5.632 v 12.45868 q 0.21333,7.33867 6.82667,7.33867 3.54134,0 5.03467,-2.048 1.49334,-2.09067 1.57867,-6.144 0,-0.512 0.0853,-2.21867 0.0853,-1.74934 0.0853,-2.688 v -6.69868 q 0,-4.13867 -0.93867,-5.632 z"
         id="path688"
         style="fill:#ffffff" />
      <path
         d="m 754.6093,254.65052 h 4.352 q -0.21333,0.34133 -0.384,0.72533 -0.128,0.34134 -0.21333,0.85334 -0.0853,0.46933 -0.17067,0.81067 -0.0427,0.29866 -0.0853,0.93866 0,0.64 0,0.85334 0,0.21333 0,0.98133 0,0.768 0,0.896 0,1.024 -0.0427,3.75467 0,2.688 0,4.18134 0,1.45067 0.0853,3.66933 0.0853,2.17601 0.29867,3.96801 0.42667,4.01067 1.32267,5.58933 h -6.27201 q 0.768,-2.13333 0.768,-7.68 v -14.16535 q 0,-0.93866 -0.29866,-0.93866 -0.29867,0 -0.55467,0.64 l -9.55734,22.57068 -8.10668,-20.94935 q -0.0853,-0.21333 -0.21333,-0.512 -0.0853,-0.29867 -0.17067,-0.46933 -0.0427,-0.17067 -0.17066,-0.384 -0.0853,-0.256 -0.17067,-0.384 -0.0427,-0.128 -0.128,-0.256 -0.0427,-0.128 -0.128,-0.17067 -0.0853,-0.0853 -0.17067,-0.0853 -0.384,0 -0.384,1.408 l -0.0427,13.86668 q 0,2.176 0.0427,3.24266 0.0427,1.024 0.256,2.30401 0.21334,1.28 0.64,1.96266 h -5.07733 l 0.384,-0.55466 q 1.74933,-2.51734 1.74933,-13.61068 v -10.66667 q 0,-0.98134 -0.17066,-1.45067 -0.17067,-0.512 -0.89601,-0.93867 h 5.29068 q 1.10933,0 1.32266,0.64 l 6.31467,18.60268 q 0.0427,0.128 0.0853,0.384 0.0853,0.256 0.128,0.384 0.0853,0.128 0.128,0.29867 0.0853,0.17067 0.17066,0.256 0.0853,0.0427 0.17067,0.0427 0.34134,0 0.768,-1.024 l 7.38134,-17.79202 q 0.59733,-1.36533 1.06667,-1.62133 0.29867,-0.17067 0.68267,-0.17067 z"
         id="path690"
         style="fill:#ffffff" />
      <path
         d="m 784.90255,267.66386 7.42401,10.24001 q 1.536,2.09067 3.584,3.968 h -3.49867 q -1.23733,0 -2.00533,-0.55466 -0.72534,-0.59734 -1.57867,-1.792 l -5.20534,-7.42401 q -1.57867,-2.304 -2.13333,-2.688 -0.768,-0.68267 -2.432,-0.81067 v 7.68001 q 0,4.13867 0.93866,5.58933 h -5.93067 q 0.55467,-0.896 0.81067,-2.09066 0.29867,-1.19467 0.29867,-1.74934 0.0427,-0.55467 0.0427,-2.00533 v -15.78668 q 0,-4.13867 -0.93866,-5.58934 1.83466,0 5.248,-0.21333 3.456,-0.21334 5.07734,-0.21334 3.15733,0 4.864,1.57867 1.74933,1.57867 1.74933,4.13867 0,2.73067 -1.83466,4.69334 -1.83467,1.96267 -4.48001,3.02933 z m -5.84533,-9.68534 v 8.96001 q 0.93866,0.128 1.92,0.128 3.11467,0 4.736,-1.62133 1.664,-1.62134 1.664,-4.65068 0,-2.944 -1.49333,-3.84 -1.45067,-0.93867 -4.73601,-1.024 h -2.00533 q -0.0853,1.28 -0.0853,2.048 z"
         id="path692"
         style="fill:#ffffff" />
      <path
         d="m 802.05451,268.68786 v 11.47735 h 4.90667 q 4.65067,0 7.38133,-2.43201 l -0.768,3.92534 q -2.90133,0.21333 -4.096,0.21333 h -12.33067 q 1.06666,-1.664 1.06666,-5.58933 v -16.04268 q 0,-4.13867 -0.93866,-5.58934 h 14.89067 l 0.17067,3.28534 q -1.83467,-1.57867 -6.31467,-1.57867 h -3.968 v 10.19734 q 6.74133,0 10.02667,-0.29867 -0.512,0.85334 -1.57867,1.408 -1.024,0.512 -2.56,0.72534 -1.49333,0.21333 -2.432,0.256 -0.93867,0.0427 -2.38934,0.0427 z"
         id="path694"
         style="fill:#ffffff" />
      <path
         d="m 831.83582,268.21853 -2.98667,-9.13067 q -0.29866,-1.024 -0.72533,-1.024 -0.29867,0 -0.72533,1.024 l -3.71201,9.13067 z m 9.98401,13.65334 h -4.608 l -4.65067,-11.94667 h -9.60001 q -3.75467,7.59467 -3.75467,10.32534 0,0.768 0.128,1.62133 h -5.33334 l 0.93867,-1.19466 q 2.00534,-2.51734 6.61334,-12.45868 4.608,-9.94134 4.608,-12.41601 l 0.0427,-1.152 h 5.03467 q 0.21333,0.72533 1.10933,3.584 0.93867,2.85867 1.28,3.92534 0.38401,1.06667 1.19467,3.584 0.85334,2.47467 1.408,3.92534 0.55467,1.408 1.36534,3.49867 0.85333,2.048 1.664,3.79733 0.81067,1.70667 1.70667,3.32801 z"
         id="path696"
         style="fill:#ffffff" />
      <path
         d="m 845.31842,272.18653 v -11.94667 q 0,-4.13867 -0.93867,-5.58934 h 5.71734 q -0.93866,1.45067 -0.93866,5.58934 v 19.92535 h 3.24266 q 4.22401,0 6.69868,-2.43201 l -0.81067,4.01067 q -1.28,0.128 -2.60267,0.128 h -11.81868 q 1.45067,-1.87733 1.45067,-9.68534 z"
         id="path698"
         style="fill:#ffffff" />
      <path
         d="m 885.72374,254.65052 h 4.352 q -0.21333,0.34133 -0.384,0.72533 -0.128,0.34134 -0.21333,0.85334 -0.0853,0.46933 -0.17067,0.81067 -0.0427,0.29866 -0.0853,0.93866 0,0.64 0,0.85334 0,0.21333 0,0.98133 0,0.768 0,0.896 0,1.024 -0.0427,3.75467 0,2.688 0,4.18134 0,1.45067 0.0853,3.66933 0.0853,2.17601 0.29867,3.96801 0.42667,4.01067 1.32267,5.58933 h -6.27201 q 0.768,-2.13333 0.768,-7.68 v -14.16535 q 0,-0.93866 -0.29866,-0.93866 -0.29867,0 -0.55467,0.64 l -9.55734,22.57068 -8.10667,-20.94935 q -0.0853,-0.21333 -0.21334,-0.512 -0.0853,-0.29867 -0.17066,-0.46933 -0.0427,-0.17067 -0.17067,-0.384 -0.0853,-0.256 -0.17067,-0.384 -0.0427,-0.128 -0.128,-0.256 -0.0427,-0.128 -0.128,-0.17067 -0.0853,-0.0853 -0.17067,-0.0853 -0.384,0 -0.384,1.408 l -0.0427,13.86668 q 0,2.176 0.0427,3.24266 0.0427,1.024 0.256,2.30401 0.21334,1.28 0.64001,1.96266 h -5.07734 l 0.384,-0.55466 q 1.74933,-2.51734 1.74933,-13.61068 v -10.66667 q 0,-0.98134 -0.17066,-1.45067 -0.17067,-0.512 -0.896,-0.93867 h 5.29067 q 1.10933,0 1.32266,0.64 l 6.31468,18.60268 q 0.0427,0.128 0.0853,0.384 0.0853,0.256 0.128,0.384 0.0853,0.128 0.128,0.29867 0.0853,0.17067 0.17067,0.256 0.0853,0.0427 0.17066,0.0427 0.34134,0 0.768,-1.024 l 7.38134,-17.79202 q 0.59734,-1.36533 1.06667,-1.62133 0.29867,-0.17067 0.68267,-0.17067 z"
         id="path700"
         style="fill:#ffffff" />
    </g>
    <g
       aria-label="THE QUANTUM REALM"
       transform="matrix(1.995044e-4,0,0,1.995044e-4,158.76825,143.70987)"
       id="text666-8"
       style="font-weight:500;font-size:42.6667px;font-family:'Baker Signet';-inkscape-font-specification:'Baker Signet, Medium';text-align:center;text-anchor:middle;white-space:pre;shape-inside:url(#rect668);fill:#a66317;fill-opacity:1;stroke-width:2;stroke-linecap:round;stroke-linejoin:round">
      <path
         d="m 500.65766,281.87187 h -5.71734 q 0.93867,-1.45066 0.93867,-5.58933 v -19.49868 h -5.67467 q -1.792,0 -3.02934,0.93866 l 0.85333,-3.072 h 21.46135 q -0.85333,2.13334 -5.07733,2.13334 h -4.69334 v 19.49868 q 0,4.13867 0.93867,5.58933 z"
         id="path672-1"
         style="fill:#a66317;fill-opacity:1" />
      <path
         d="m 529.54296,266.3412 v -6.10134 q 0,-3.79734 -0.98133,-5.58934 h 5.80267 q -0.98134,1.792 -0.98134,5.58934 v 16.04268 q 0,3.79733 0.98134,5.58933 h -5.80267 q 0.98133,-1.792 0.98133,-5.58933 v -8.23468 h -12.62934 v 8.23468 q 0,3.79733 0.98133,5.58933 h -5.80267 q 0.98133,-1.792 0.98133,-5.58933 v -16.04268 q 0,-3.79734 -0.98133,-5.58934 h 5.80267 q -0.98133,1.792 -0.98133,5.58934 v 6.10134 z"
         id="path674-4"
         style="fill:#a66317;fill-opacity:1" />
      <path
         d="m 543.75093,268.68786 v 11.47735 h 4.90667 q 4.65067,0 7.38134,-2.43201 l -0.768,3.92534 q -2.90133,0.21333 -4.096,0.21333 h -12.33068 q 1.06667,-1.664 1.06667,-5.58933 v -16.04268 q 0,-4.13867 -0.93867,-5.58934 h 14.89068 l 0.17067,3.28534 q -1.83467,-1.57867 -6.31467,-1.57867 h -3.96801 v 10.19734 q 6.74134,0 10.02668,-0.29867 -0.512,0.85334 -1.57867,1.408 -1.024,0.512 -2.56,0.72534 -1.49334,0.21333 -2.43201,0.256 -0.93866,0.0427 -2.38933,0.0427 z"
         id="path676-7"
         style="fill:#a66317;fill-opacity:1" />
      <path
         d="m 591.62288,268.9012 q 0,-2.304 -0.42667,-4.43734 -0.42667,-2.13333 -1.36534,-4.13867 -0.93866,-2.048 -2.77333,-3.24267 -1.792,-1.23733 -4.224,-1.23733 -4.35201,0 -6.57068,3.41333 -2.21866,3.37067 -2.21866,8.36268 0,2.304 0.42666,4.43733 0.42667,2.13334 1.36534,4.18134 0.93867,2.00533 2.73067,3.24267 1.83466,1.19467 4.26667,1.19467 4.352,0 6.57067,-3.37067 2.21867,-3.41334 2.21867,-8.40534 z m 7.59467,19.88268 q -3.456,0 -7.12534,-1.28 -3.66934,-1.23734 -7.21067,-2.90134 -3.54134,-1.664 -5.20534,-2.13333 -5.03467,-1.36534 -7.55201,-5.03467 -2.51733,-3.66934 -2.51733,-8.61868 0,-6.35733 3.584,-10.58134 3.58401,-4.26667 9.98401,-4.26667 6.4,0 9.64267,3.84001 3.24267,3.84 3.24267,9.89867 0,2.56 -0.512,4.69334 -0.512,2.13333 -1.32267,3.54133 -0.768,1.408 -1.74933,2.51734 -0.98133,1.10933 -1.96267,1.74933 -0.98133,0.59734 -1.792,1.024 -0.768,0.384 -1.28,0.59734 -0.512,0.21333 -0.512,0.29866 0,0.128 0.256,0.256 0.29867,0.17067 0.896,0.384 0.64,0.21334 1.23733,0.384 0.59734,0.21334 1.62134,0.51201 1.024,0.34133 1.74933,0.55466 6.65601,2.176 9.89868,2.176 2.048,0 3.49867,-0.21333 -1.92,2.60267 -6.86934,2.60267 z"
         id="path678-1"
         style="fill:#a66317;fill-opacity:1" />
      <path
         d="m 616.36948,254.65052 h 5.71733 q -0.93866,1.49333 -0.93866,5.632 v 16.04268 q 0,4.13867 0.93866,5.54667 l -5.07733,0.256 0.17066,-2.816 q 0,-0.17066 -0.21333,-0.17066 -0.0427,0 -0.128,0.0853 -0.0427,0.0427 -0.17067,0.17067 -0.128,0.128 -0.21333,0.21333 -3.49867,2.944 -8.23467,2.944 -8.19201,0 -8.36268,-7.25334 v -15.01868 q 0,-4.13867 -0.93866,-5.632 h 5.71733 q -0.93866,1.49333 -0.93866,5.632 v 12.45868 q 0.21333,7.33867 6.82667,7.33867 3.54133,0 5.03467,-2.048 1.49333,-2.09067 1.57867,-6.144 0,-0.512 0.0853,-2.21867 0.0853,-1.74934 0.0853,-2.688 v -6.69868 q 0,-4.13867 -0.93866,-5.632 z"
         id="path680-3"
         style="fill:#a66317;fill-opacity:1" />
      <path
         d="m 640.68945,268.21853 -2.98667,-9.13067 q -0.29867,-1.024 -0.72534,-1.024 -0.29866,0 -0.72533,1.024 l -3.712,9.13067 z m 9.984,13.65334 h -4.608 l -4.65067,-11.94667 h -9.60001 q -3.75467,7.59467 -3.75467,10.32534 0,0.768 0.128,1.62133 h -5.33333 l 0.93866,-1.19466 q 2.00534,-2.51734 6.61334,-12.45868 4.608,-9.94134 4.608,-12.41601 l 0.0427,-1.152 h 5.03467 q 0.21334,0.72533 1.10934,3.584 0.93866,2.85867 1.28,3.92534 0.384,1.06667 1.19466,3.584 0.85334,2.47467 1.40801,3.92534 0.55466,1.408 1.36533,3.49867 0.85333,2.048 1.664,3.79733 0.81067,1.70667 1.70667,3.32801 z"
         id="path682-8"
         style="fill:#a66317;fill-opacity:1" />
      <path
         d="m 657.03071,281.87187 h -4.90667 q 1.49334,-3.49867 1.49334,-12.45867 v -9.08801 q 0,-4.30934 -1.36534,-5.67467 h 4.30934 q 0.68267,0 1.024,0.128 0.34133,0.0853 0.68267,0.55467 0.46933,0.59733 2.38933,3.66933 1.92,3.02934 2.56,3.96801 l 8.49068,11.98934 q 0.72533,1.024 0.896,1.024 0.29867,0 0.29867,-0.81067 v -15.06134 q 0,-3.54134 -1.02401,-5.46134 h 4.43734 q -1.28,2.47467 -1.28,6.35734 v 17.06668 q 0,1.408 0.0853,3.968 h -3.02933 l -15.61601,-22.22935 q -0.29867,-0.46933 -0.46934,-0.46933 -0.256,0 -0.256,0.64 v 10.96534 q 0,2.688 0,3.84 0.0427,1.152 0.34134,3.37067 0.29866,2.21867 0.93866,3.712 z"
         id="path684-4"
         style="fill:#a66317;fill-opacity:1" />
      <path
         d="m 691.84668,281.87187 h -5.71733 q 0.93866,-1.45066 0.93866,-5.58933 v -19.49868 h -5.67467 q -1.792,0 -3.02933,0.93866 l 0.85333,-3.072 h 21.46135 q -0.85333,2.13334 -5.07734,2.13334 h -4.69333 v 19.49868 q 0,4.13867 0.93866,5.58933 z"
         id="path686-8"
         style="fill:#a66317;fill-opacity:1" />
      <path
         d="m 720.64666,254.65052 h 5.71734 q -0.93867,1.49333 -0.93867,5.632 v 16.04268 q 0,4.13867 0.93867,5.54667 l -5.07734,0.256 0.17067,-2.816 q 0,-0.17066 -0.21334,-0.17066 -0.0427,0 -0.128,0.0853 -0.0427,0.0427 -0.17066,0.17067 -0.128,0.128 -0.21334,0.21333 -3.49867,2.944 -8.23467,2.944 -8.19201,0 -8.36267,-7.25334 v -15.01868 q 0,-4.13867 -0.93867,-5.632 h 5.71734 q -0.93867,1.49333 -0.93867,5.632 v 12.45868 q 0.21333,7.33867 6.82667,7.33867 3.54134,0 5.03467,-2.048 1.49334,-2.09067 1.57867,-6.144 0,-0.512 0.0853,-2.21867 0.0853,-1.74934 0.0853,-2.688 v -6.69868 q 0,-4.13867 -0.93867,-5.632 z"
         id="path688-0"
         style="fill:#a66317;fill-opacity:1" />
      <path
         d="m 754.6093,254.65052 h 4.352 q -0.21333,0.34133 -0.384,0.72533 -0.128,0.34134 -0.21333,0.85334 -0.0853,0.46933 -0.17067,0.81067 -0.0427,0.29866 -0.0853,0.93866 0,0.64 0,0.85334 0,0.21333 0,0.98133 0,0.768 0,0.896 0,1.024 -0.0427,3.75467 0,2.688 0,4.18134 0,1.45067 0.0853,3.66933 0.0853,2.17601 0.29867,3.96801 0.42667,4.01067 1.32267,5.58933 h -6.27201 q 0.768,-2.13333 0.768,-7.68 v -14.16535 q 0,-0.93866 -0.29866,-0.93866 -0.29867,0 -0.55467,0.64 l -9.55734,22.57068 -8.10668,-20.94935 q -0.0853,-0.21333 -0.21333,-0.512 -0.0853,-0.29867 -0.17067,-0.46933 -0.0427,-0.17067 -0.17066,-0.384 -0.0853,-0.256 -0.17067,-0.384 -0.0427,-0.128 -0.128,-0.256 -0.0427,-0.128 -0.128,-0.17067 -0.0853,-0.0853 -0.17067,-0.0853 -0.384,0 -0.384,1.408 l -0.0427,13.86668 q 0,2.176 0.0427,3.24266 0.0427,1.024 0.256,2.30401 0.21334,1.28 0.64,1.96266 h -5.07733 l 0.384,-0.55466 q 1.74933,-2.51734 1.74933,-13.61068 v -10.66667 q 0,-0.98134 -0.17066,-1.45067 -0.17067,-0.512 -0.89601,-0.93867 h 5.29068 q 1.10933,0 1.32266,0.64 l 6.31467,18.60268 q 0.0427,0.128 0.0853,0.384 0.0853,0.256 0.128,0.384 0.0853,0.128 0.128,0.29867 0.0853,0.17067 0.17066,0.256 0.0853,0.0427 0.17067,0.0427 0.34134,0 0.768,-1.024 l 7.38134,-17.79202 q 0.59733,-1.36533 1.06667,-1.62133 0.29867,-0.17067 0.68267,-0.17067 z"
         id="path690-4"
         style="fill:#a66317;fill-opacity:1" />
      <path
         d="m 784.90255,267.66386 7.42401,10.24001 q 1.536,2.09067 3.584,3.968 h -3.49867 q -1.23733,0 -2.00533,-0.55466 -0.72534,-0.59734 -1.57867,-1.792 l -5.20534,-7.42401 q -1.57867,-2.304 -2.13333,-2.688 -0.768,-0.68267 -2.432,-0.81067 v 7.68001 q 0,4.13867 0.93866,5.58933 h -5.93067 q 0.55467,-0.896 0.81067,-2.09066 0.29867,-1.19467 0.29867,-1.74934 0.0427,-0.55467 0.0427,-2.00533 v -15.78668 q 0,-4.13867 -0.93866,-5.58934 1.83466,0 5.248,-0.21333 3.456,-0.21334 5.07734,-0.21334 3.15733,0 4.864,1.57867 1.74933,1.57867 1.74933,4.13867 0,2.73067 -1.83466,4.69334 -1.83467,1.96267 -4.48001,3.02933 z m -5.84533,-9.68534 v 8.96001 q 0.93866,0.128 1.92,0.128 3.11467,0 4.736,-1.62133 1.664,-1.62134 1.664,-4.65068 0,-2.944 -1.49333,-3.84 -1.45067,-0.93867 -4.73601,-1.024 h -2.00533 q -0.0853,1.28 -0.0853,2.048 z"
         id="path692-6"
         style="fill:#a66317;fill-opacity:1" />
      <path
         d="m 802.05451,268.68786 v 11.47735 h 4.90667 q 4.65067,0 7.38133,-2.43201 l -0.768,3.92534 q -2.90133,0.21333 -4.096,0.21333 h -12.33067 q 1.06666,-1.664 1.06666,-5.58933 v -16.04268 q 0,-4.13867 -0.93866,-5.58934 h 14.89067 l 0.17067,3.28534 q -1.83467,-1.57867 -6.31467,-1.57867 h -3.968 v 10.19734 q 6.74133,0 10.02667,-0.29867 -0.512,0.85334 -1.57867,1.408 -1.024,0.512 -2.56,0.72534 -1.49333,0.21333 -2.432,0.256 -0.93867,0.0427 -2.38934,0.0427 z"
         id="path694-0"
         style="fill:#a66317;fill-opacity:1" />
      <path
         d="m 831.83582,268.21853 -2.98667,-9.13067 q -0.29866,-1.024 -0.72533,-1.024 -0.29867,0 -0.72533,1.024 l -3.71201,9.13067 z m 9.98401,13.65334 h -4.608 l -4.65067,-11.94667 h -9.60001 q -3.75467,7.59467 -3.75467,10.32534 0,0.768 0.128,1.62133 h -5.33334 l 0.93867,-1.19466 q 2.00534,-2.51734 6.61334,-12.45868 4.608,-9.94134 4.608,-12.41601 l 0.0427,-1.152 h 5.03467 q 0.21333,0.72533 1.10933,3.584 0.93867,2.85867 1.28,3.92534 0.38401,1.06667 1.19467,3.584 0.85334,2.47467 1.408,3.92534 0.55467,1.408 1.36534,3.49867 0.85333,2.048 1.664,3.79733 0.81067,1.70667 1.70667,3.32801 z"
         id="path696-3"
         style="fill:#a66317;fill-opacity:1" />
      <path
         d="m 845.31842,272.18653 v -11.94667 q 0,-4.13867 -0.93867,-5.58934 h 5.71734 q -0.93866,1.45067 -0.93866,5.58934 v 19.92535 h 3.24266 q 4.22401,0 6.69868,-2.43201 l -0.81067,4.01067 q -1.28,0.128 -2.60267,0.128 h -11.81868 q 1.45067,-1.87733 1.45067,-9.68534 z"
         id="path698-2"
         style="fill:#a66317;fill-opacity:1" />
      <path
         d="m 885.72374,254.65052 h 4.352 q -0.21333,0.34133 -0.384,0.72533 -0.128,0.34134 -0.21333,0.85334 -0.0853,0.46933 -0.17067,0.81067 -0.0427,0.29866 -0.0853,0.93866 0,0.64 0,0.85334 0,0.21333 0,0.98133 0,0.768 0,0.896 0,1.024 -0.0427,3.75467 0,2.688 0,4.18134 0,1.45067 0.0853,3.66933 0.0853,2.17601 0.29867,3.96801 0.42667,4.01067 1.32267,5.58933 h -6.27201 q 0.768,-2.13333 0.768,-7.68 v -14.16535 q 0,-0.93866 -0.29866,-0.93866 -0.29867,0 -0.55467,0.64 l -9.55734,22.57068 -8.10667,-20.94935 q -0.0853,-0.21333 -0.21334,-0.512 -0.0853,-0.29867 -0.17066,-0.46933 -0.0427,-0.17067 -0.17067,-0.384 -0.0853,-0.256 -0.17067,-0.384 -0.0427,-0.128 -0.128,-0.256 -0.0427,-0.128 -0.128,-0.17067 -0.0853,-0.0853 -0.17067,-0.0853 -0.384,0 -0.384,1.408 l -0.0427,13.86668 q 0,2.176 0.0427,3.24266 0.0427,1.024 0.256,2.30401 0.21334,1.28 0.64001,1.96266 h -5.07734 l 0.384,-0.55466 q 1.74933,-2.51734 1.74933,-13.61068 v -10.66667 q 0,-0.98134 -0.17066,-1.45067 -0.17067,-0.512 -0.896,-0.93867 h 5.29067 q 1.10933,0 1.32266,0.64 l 6.31468,18.60268 q 0.0427,0.128 0.0853,0.384 0.0853,0.256 0.128,0.384 0.0853,0.128 0.128,0.29867 0.0853,0.17067 0.17067,0.256 0.0853,0.0427 0.17066,0.0427 0.34134,0 0.768,-1.024 l 7.38134,-17.79202 q 0.59734,-1.36533 1.06667,-1.62133 0.29867,-0.17067 0.68267,-0.17067 z"
         id="path700-6"
         style="fill:#a66317;fill-opacity:1" />
    </g>
  </g>
</svg>
