<?xml version="1.0" encoding="UTF-8"?>
<!-- Created with Inkscape (http://www.inkscape.org/) -->
<svg width="200" height="200" version="1.1" viewBox="0 0 52.917 52.917" xml:space="preserve" xmlns="http://www.w3.org/2000/svg"><g transform="matrix(.70719 0 0 .70719 -58.92 -103.79)"><path d="m86.393 162.64-1.657 0.46261-0.15358 1.1316 0.11939 9.9624 1.6912 0.98654-1.4798 2.114-0.19931 10.11 0.4228 1.8749-0.08256 12.609 0.4228 1.4094 0.96109 0.2163 2.7032 0.2065 11.693-0.13239 21.92 0.978 19.007 1.063 11.506-0.28792 2.2549-1.9731-5.2146 0.49327-15.996-0.77514-4.0871-0.77513-29.171-0.64749-14.167-0.26859 0.79672-27.446z" fill="#6c4f43"/><path d="m86.302 162.64-0.08256 10.411 1.976 1.0494-1.1959 1.0962-0.29897 5.8797v6.7766l0.22245 0.87928-0.18773 12.809 27.4 0.38101 17.336 0.72512 4.4248 0.56332 15.083 0.48717 4.6838-0.49827-0.29897-13.852 1.671-1.9518-7e-3 -12.944-0.66788-0.74992 0.91452-0.76149-0.21693-10.101-37.317-0.0352-17.893 0.0352-8.4224-0.0469-1.1498-0.15171-4.9478-0.17039z" fill="#dbbb92"/><path d="m87.198 162.12c-0.3172-6e-3 -0.68372 0.0524-1.0588 0.15193l0.06098 0.11575c-0.57087 0.16752-1.1942 0.42257-1.388 0.61805-0.17762 0.1791-0.01738 0.20847 0.48679 0.0894 0.73423-0.17341 0.74627-0.15784 0.555 0.6935-0.1076 0.47895-0.1689 0.98981-0.13642 1.1353s0.08948 1.9607 0.12661 4.0339c0.06109 3.4112 0.01926 3.8216-0.44235 4.317-0.61979 0.66527-0.44615 0.93166 0.33486 0.51367 0.68178-0.36488 1.3245-0.17672 1.3245 0.38757 0 0.27129-0.25508 0.40514-0.77205 0.40514-1.5316 0-1.6092-0.1246-1.6092-2.5859 0-1.2456-0.07411-2.1903-0.16485-2.0996-0.09074 0.0907-0.18004 1.138-0.19844 2.3275l-0.03359 2.1627 0.84491 0.4532 0.84439 0.45268-0.65991 0.9276c-0.5671 0.79702-0.64841 1.1652-0.57981 2.621 0.07249 1.5383 0.11124 1.6386 0.42271 1.093 0.18863-0.33043 0.25344-0.74512 0.14418-0.92191-0.35541-0.57507-0.05398-2.1438 0.5302-2.7606 0.77574-0.81891 0.95524-0.76405 0.81235 0.24856-0.12166 0.86213-0.3574 7.4321-0.3514 9.7896 0.0024 0.94879-0.0952 1.2568-0.39842 1.2568-0.2497 0-0.34343 0.15142-0.24805 0.39997 0.1098 0.28618 0.0317 0.35322-0.27337 0.23616-0.23448-0.09-0.44168-0.47837-0.46044-0.86299-0.01876-0.38461-0.05668-1.0564-0.08423-1.4929-0.0683-1.0822 0.34294-2.8468 0.72864-3.1274 0.20734-0.1509 0.15654-0.17833-0.14728-0.0806-0.33132 0.10659-0.46302 5e-3 -0.46302-0.35657 0-0.27788 0.11906-0.57879 0.26458-0.66869 0.39988-0.24714 0.31702-0.66146-0.13229-0.66146-0.40337 0-0.40672 0.0373-0.54105 5.5562-0.01948 0.80037 0.10006 1.6338 0.26562 1.8521 0.21957 0.28949 0.24278 2.0792 0.08578 6.6146-0.29821 8.6147-0.26422 8.7741 1.865 8.6951 0.61575-0.0229 0.75286-0.0777 0.37517-0.15038-0.32742-0.0631-0.59531-0.22212-0.59531-0.35295 0-0.1309-0.17859-0.16903-0.39688-0.0853-0.21828 0.0838-0.39688 0.0348-0.39688-0.10852 0-0.44528 0.70556-0.87311 1.7069-1.0356 0.74657-0.12115 1.0506-0.0446 1.3663 0.34365 0.22334 0.27462 0.338 0.36303 0.25528 0.19637-0.17242-0.34739 0.40211-0.62321 1.2986-0.62321 0.48477 0 0.58604 0.11206 0.47697 0.52916-0.07737 0.29585-0.0081 0.52917 0.1571 0.52917 0.16249 0 0.29507-0.16487 0.29507-0.36639 0-0.41678 1.495-0.63885 5.0074-0.74362 1.5724-0.0469 2.2612 0.0291 2.3373 0.25735 0.05933 0.17801 0.22389 0.32349 0.36587 0.32349s0.19265-0.1064 0.11214-0.23668c-0.08051-0.13027 0.05133-0.31327 0.29352-0.40617 0.24219-0.0929 0.53309-0.0193 0.64595 0.1633 0.11286 0.18264 0.2896 0.24732 0.39326 0.14366 0.10367-0.10367 0.34835-0.0561 0.54364 0.10593 0.19529 0.16207 0.35502 0.18659 0.35502 0.0543 0-0.36724 0.99701-0.46229 3.7042-0.35295 0.21828 9e-3 1.7066 0.0204 3.3073 0.0264 1.6007 6e-3 4.2796 0.11032 5.9531 0.23151s4.7096 0.28782 6.7469 0.37052c2.0373 0.0827 4.7612 0.28479 6.0529 0.44907 1.8261 0.23223 2.484 0.226 2.9574-0.0274 0.35958-0.19241 0.91452-0.25042 1.3555-0.1416 2.3432 0.57826 6.1233 0.94843 10.752 1.0526 3.8058 0.0857 5.358 0.21359 5.6653 0.46716 0.33504 0.27649 0.44635 0.28013 0.53485 0.0171 0.0615-0.18279 0.24298-0.25186 0.40307-0.15296 0.37375 0.23099 2.8723 0.1175 3.9-0.17725 0.6276-0.18 0.79065-0.14478 0.79065 0.17053 0 0.34548 0.0544 0.34296 0.416-0.0186 0.22867-0.22868 0.61131-0.41548 0.85008-0.41548 0.2931 0 0.13635 0.25226-0.48215 0.77721-0.90055 0.7643-0.97219 0.77824-4.2235 0.81494-1.819 0.0205-4.111 0.0974-5.0932 0.17105-1.9379 0.1452-2.5403-0.29365-0.79375-0.57826 0.5457-0.0889 1.2303-0.27048 1.5214-0.40359 0.90854-0.41554-1.4867 0.0365-2.5135 0.47439-0.50932 0.21718-1.2832 0.4952-1.7198 0.61805-0.4715 0.13268 1.8099 0.19571 5.6188 0.15451l6.412-0.0698 0.73174-0.68213c0.40237-0.37535 0.99911-0.82014 1.3265-0.98857 0.26377-0.13567 0.42859-0.31483 0.5085-0.55604l0.0145 0.015c1e-3 -0.0139 1.9e-4 -0.0539 1e-3 -0.0713 0.0326-0.12203 0.0475-0.2575 0.0408-0.41238-7e-3 -0.17174-0.0251-0.28253-0.0465-0.34623-0.0171-0.60281-0.0554-1.4288-0.11524-2.3637-0.37924-5.9293-0.33984-9.7447 0.10594-10.253 1.1232-1.281 1.2314-1.9202 1.2444-7.3437 7e-3 -2.8865 0.0892-5.8261 0.18294-6.5324 0.13803-1.0405 0.0771-1.3874-0.32194-1.8283-0.46803-0.51713-0.46949-0.55737-0.0258-0.80563 0.41479-0.23213 0.45171-0.57609 0.32969-3.0872-0.0755-1.5542-0.0395-3.8377 0.0801-5.0746 0.11954-1.2369 0.17316-2.3755 0.11886-2.5301-0.0685-0.19508-5.8814-0.27608-18.993-0.26458h-5.2e-4c-12.597 0.011-18.806 0.10472-18.629 0.28112 0.17158 0.17128 6.721 0.26458 18.574 0.26458h18.308l0.0563 4.9511 0.0568 4.9511-0.98289 0.27285c-0.54051 0.15011-2.5206 0.27358-4.4002 0.2744-1.8796 8.2e-4 -3.34 0.0789-3.2453 0.17364 0.0947 0.0947 1.633 0.21636 3.4179 0.27026 4.4668 0.13479 4.9241 0.2278 5.1289 1.0439 0.0924 0.36816 0.0418 0.94575-0.11214 1.2836-0.30506 0.66955-0.22753 10.49 0.0868 10.998 0.12903 0.20881-0.56301 0.25258-2.4272 0.15348-1.4338-0.0762-2.9042-0.14387-3.268-0.14987-0.36381-6e-3 -1.6444-0.0826-2.8453-0.16898l-2.1833-0.15709-0.16484-1.034-0.16588-1.0346h-1.5792c-1.6977 0-3.003 0.5513-3.266 1.3798-0.11706 0.36881-0.43527 0.47232-1.4552 0.47232-1.2642 0-1.7195-0.31386-0.90795-0.62528 0.83979-0.32226 0.34125-0.69764-0.92604-0.69764-0.72761 0-1.3224 0.11907-1.3224 0.26459 0 0.14553 0.11855 0.26458 0.26406 0.26458 0.14552 0 0.26459 0.1786 0.26459 0.39688 0 0.2543-0.2614 0.40017-0.72761 0.40617-0.71081 9e-3 -0.71468 0.0168-0.15296 0.33073 0.51204 0.28618 0.53461 0.37692 0.20361 0.82838-0.3521 0.4802-0.39253 0.45602-0.77308-0.45476-0.46867-1.1217-0.5041-1.5074-0.13746-1.5074 0.14552 0 0.2651-0.11905 0.2651-0.26458 0-0.14699-0.70556-0.26459-1.5875-0.26459s-1.5875 0.1176-1.5875 0.26459c0 0.14553 0.11027 0.26458 0.24598 0.26458 0.13572 0 0.33241 0.26742 0.43615 0.59428 0.10374 0.32687 0.33224 0.71382 0.50849 0.8599 0.48888 0.40517 1.1906 2.4161 1.1906 3.4132 0 1.4869-0.25094 1.5432-4.8292 1.0821l-2.0505-0.20671v-1.247c0-1.1985 0.0268-1.2427 0.68317-1.1172 0.37575 0.0718 0.74577 0.29343 0.82217 0.49247 0.0764 0.19903 0.30474 0.36225 0.50746 0.36225 0.2597 0 0.36845-0.34716 0.36845-1.1751 0-1.3321-0.35981-1.7528-0.7984-0.93327-0.19024 0.35546-0.50194 0.52367-0.87333 0.47077-0.49582-0.0706-0.57722-0.2505-0.57722-1.2728 0-1.0417 0.0762-1.2018 0.60978-1.2774 0.714-0.10121 1.3362 0.3491 1.6598 1.2004 0.12676 0.3334 0.36551 0.60616 0.5302 0.60616 0.16474 0 0.22731-0.18839 0.13901-0.41857-0.0883-0.23019-0.1602-0.76597-0.1602-1.1906v-0.77205h-2.6464c-1.4552 0-2.6458 0.0759-2.6458 0.16899 0 0.0931 0.19035 0.30875 0.42323 0.47904 0.6058 0.44291 0.60067 5.0094-7e-3 5.6803-0.22899 0.25303-0.41652 0.55737-0.41652 0.67644 0 0.33694 11.37-0.013 11.718-0.3607 0.21617-0.21621 0.18257-0.29404-0.12661-0.29404-0.6996 0-0.79203-1.1979-0.21808-2.8308 0.29319-0.83418 0.5333-1.5508 0.5333-1.5922s0.7175-0.0749 1.5942-0.0749c1.4301 0 1.6182 0.064 1.8304 0.62218 0.20823 0.54766 2.1714 1.7329 3.097 1.8697 0.16722 0.0247 0.49465 0.20301 0.7276 0.39635 1.0678 0.88621-0.27919 2.8581-1.7513 2.5637-1.4595-0.29191-2.111-1.3807-0.99994-1.6712 0.66428-0.1737 0.71416-1.1348 0.0589-1.1348-0.70156 0-1.6464 0.7553-1.6464 1.3162 0 1.8041 2.3461 2.698 4.6044 1.7544 2.5466-1.064 2.1704-3.9013-0.66766-5.0369-0.60079-0.24038-1.0219-0.50766-0.93586-0.59376 0.086-0.086 1.2618-0.0256 2.6128 0.13436s3.8815 0.36088 5.6234 0.44648c1.742 0.0855 3.2278 0.21613 3.3021 0.29043 0.0742 0.0743 0.14499 2.1274 0.15709 4.562s0.0921 4.5403 0.17777 4.6793c0.18984 0.30793 0.26979 1.5735 0.23409 3.7114l-0.0269 1.6071-8e-3 1e-3 0.16278 0.17054c-0.33995 0.13205-0.96699 0.22038-2.0717 0.31212-3.3103 0.2749-10.882 0.15545-15.775-0.24856-2.3168-0.19127-4.3613-0.29056-4.5434-0.22066s-0.59703-0.0153-0.92191-0.18914c-0.38033-0.20355-2.3429-0.34302-5.5108-0.39222-5.8147-0.0903-9.6136-0.31539-11.799-0.69867-0.97801-0.17156-5.1936-0.246-10.98-0.1943-10.471 0.0935-11.301 0.0893-14.684-0.077l-2.3812-0.1173 0.05271-0.77618c0.02877-0.42691 0.05543-3.3063 0.05943-6.3986 4e-3 -3.0923 0.0401-5.6375 0.0801-5.656 0.0084-4e-3 0.10304-0.0134 0.21756-0.0238l0.05426 0.19844c0.70909-0.15356 2.5096-0.22224 6.5226-0.31471l6.4942-0.14986v1.448c0 2.3172-0.23097 3.0424-1.0898 3.4225-1.0071 0.44579-1.0286 1.2666-0.03307 1.2666 0.40114 0 1.1039-0.1076 1.5611-0.23874 0.52068-0.14932 0.92808-0.14165 1.0904 0.0207 0.14252 0.14249 0.60115 0.2204 1.0191 0.1726 0.90122-0.10299 1.0417-0.84053 0.18345-0.96273-0.90447-0.12879-1.1096-0.58708-1.3033-2.9089l-0.18086-2.1683h0.8077c0.7737 0 0.84894 0.10501 1.7973 2.5011 0.88133 2.2268 1.0752 2.52 1.7632 2.6712 0.42508 0.0933 0.81325 0.12826 0.86299 0.078 0.15283-0.15431 2.0029-4.2047 2.9419-6.441 1.0102-2.4056 0.96768-2.5188 0.90176 2.3812-0.0417 3.1006-0.15212 3.4795-1.1095 3.8132-0.44 0.15338-0.74468 0.42367-0.68368 0.60668 0.15788 0.47343 5.801 0.47921 5.9588 6e-3 0.0636-0.19073-0.23275-0.45669-0.68523-0.61443-0.64327-0.22424-0.82594-0.46606-0.94464-1.2511-0.20532-1.358-0.0392-9.1218 0.2036-9.5147 0.1096-0.17735 0.41664-0.32246 0.68213-0.32246 0.26548 0 0.54454-0.23813 0.62064-0.52917 0.12967-0.49586 8e-3 -0.52917-1.9322-0.52917h-2.0707l-0.45424 1.3891c-0.73742 2.2554-3.3907 7.9749-3.515 7.5768-0.27822-0.89112-1.933-4.1962-2.1761-4.3465-0.14782-0.0914-0.20598-0.36426-0.12971-0.60668 0.32918-1.0463-2.127-4.9928-3.5724-5.7402-0.50207-0.25962-1.0474-0.38839-1.5431-0.39222v5.1e-4c-0.63734-5e-3 -1.1927 0.19642-1.4692 0.59118-0.57038 0.81434-0.51934 0.99942 0.27595 0.99942 0.43517 0 1.033 0.34517 1.6268 0.93897l0.93845 0.93844-0.16692 2.5404c-0.0918 1.3973-0.22146 2.5955-0.28835 2.6624-0.2736 0.27362-12.83 0.18992-13.108-0.0873-0.03182-0.0317-0.0579-0.12711-0.08113-0.25218l-0.04237 0.14418 0.0041 0.0155c-0.31716-0.41328-0.27097-1.1506-0.17725-2.4898 0.09308-1.33 0.23752-4.0258 0.32091-5.9903 0.08339-1.9645 0.19654-3.7153 0.25166-3.8907 0.05512-0.17544 0.67168-0.48936 1.3699-0.69763 1.2603-0.37591 1.2634-0.38002 0.47542-0.56741-0.43656-0.10383-1.2402-0.30065-1.7859-0.43718l-0.99219-0.24805v-5.2818c0-3.4389 0.02388-4.6619 0.18707-5.0777l3.068 0.10181c1.7974 0.0599 3.0476 0.0223 2.7781-0.0837-0.26948-0.10602-1.3233-0.21486-2.342-0.24236-1.0186-0.0274-2.2093-0.12978-2.6458-0.22738-0.11526-0.0258-0.24288-0.0397-0.3793-0.0424zm18.837 0.39067c-3.7564-1e-3 -7.2708 0.0329-8.9323 0.11214l-3.7042 0.17673 2.3812 0.13229c1.3097 0.0728 6.3699 0.1065 11.245 0.0754 4.8749-0.031 9.6869-0.0606 10.693-0.0656 1.0065-5e-3 1.7543-0.0854 1.6614-0.17828-0.15033-0.15033-7.0838-0.25022-13.344-0.25218zm-21.464 1.5684v5.2e-4c-0.08678 0.0607-0.15503 1.2185-0.15503 2.6965 0 1.5765 0.08714 2.7788 0.19379 2.6722 0.25918-0.25918 0.53057-3.5982 0.29249-3.5982-0.10272 0-0.17628-0.35927-0.16381-0.79788s-0.0549-0.87497-0.14986-0.96997c-0.0059-6e-3 -0.01179-7e-3 -0.01757-3e-3zm8.4176 0.28009c-0.30824 0.014-0.59172 0.1218-0.82372 0.33176-0.64428 0.58306-0.61402 0.88728 0.08837 0.88728 0.31596 0 0.79222 0.19687 1.0583 0.4377 0.41915 0.37933 0.48369 0.87611 0.48369 3.7161 0 3.1507-0.02605 3.3044-0.66663 3.945-0.36658 0.36659-0.61598 0.74832-0.55449 0.84802 0.06149 0.0998 0.68896 0.15887 1.3942 0.13177 0.70527-0.027 1.4905-0.0573 1.7451-0.0662 0.64512-0.0235 0.57786-0.37005-0.13229-0.68161-0.67081-0.2943-0.94811-1.711-0.77101-3.9377l0.10077-1.2712 1.0671 2.6722c0.91333 2.2877 1.1533 2.6727 1.6671 2.6727 0.50775 0 0.77705-0.40923 1.7487-2.6577l1.1483-2.6577 0.0791 1.927c0.0972 2.3703-0.0526 3.0202-0.73742 3.1993-0.29263 0.0765-0.53227 0.26977-0.53227 0.42891 0 0.1853 0.76114 0.28939 2.1167 0.28939 1.2347 0 2.1167-0.11025 2.1167-0.26459 0-0.14552-0.18171-0.26458-0.40359-0.26458-0.63773 0-0.906-1.1288-0.8971-3.7698 0.01-2.8377 0.1567-3.6385 0.66818-3.6385 0.20251 0 0.36793-0.18494 0.36793-0.41083 0-0.32873-0.27298-0.39463-1.3612-0.33073-1.3349 0.0784-1.3672 0.10043-1.6883 1.1384-0.18007 0.58208-0.71146 1.8872-1.1808 2.9006-0.79262 1.7114-0.87974 1.8064-1.2242 1.3353-0.20398-0.27895-0.51277-0.89946-0.68626-1.3792-0.17349-0.47979-0.41081-0.8723-0.5271-0.8723-0.11629 0-0.21136-0.30566-0.21136-0.67903 0-0.80085-0.3332-1.4871-1.3565-2.7931-0.6216-0.79333-1.4179-1.2172-2.096-1.1865zm11.825 4.6586c-1.4498 0-1.7931 0.0704-1.5462 0.31729 0.41443 0.41444 0.41443 3.4484 0 3.8628-0.24695 0.2469-0.0156 0.31781 1.0423 0.31781 0.74811 0 1.4359-0.12217 1.5281-0.2713 0.0922-0.14915 0.0693-0.25437-0.0506-0.23357-0.65364 0.11355-0.87953-0.10175-0.87953-0.8382v-0.81338l1.3379 1.3524c0.77634 0.78455 1.6674 1.418 2.1224 1.509 0.43126 0.0863 0.86274 0.28434 0.95911 0.44028v5.2e-4c0.11991 0.194 0.20865 0.18276 0.28112-0.0346 0.0582-0.17474 0.32705-0.3173 0.59738-0.3173 0.27032 0 0.57661-0.13769 0.68058-0.30592 0.13546-0.21918-0.0519-0.25772-0.66094-0.13591-0.75059 0.15012-1.0006 0.0293-2.1363-1.033l-1.2862-1.2036 0.43511-0.75705c0.40898-0.71263 0.40484-0.78997-0.063-1.3069-0.41371-0.45714-0.81021-0.54932-2.3611-0.54932zm0.53899 0.33331c0.40969-0.0363 0.90197 0.55813 0.82475 1.0986-0.0486 0.33991-0.30801 0.58466-0.67438 0.63666-0.50425 0.0716-0.59531-0.0374-0.59531-0.71211 0-0.4381 0.12405-0.87296 0.27595-0.96686 0.0533-0.0329 0.11047-0.0512 0.16899-0.0563zm-14.244 4.2406-0.10129 0.34416c0.13184-0.0448 0.23754-0.0973 0.27388-0.15606 0.04825-0.0781-0.01695-0.14219-0.1726-0.1881zm20.942 0.71778c-0.29398 0-0.52916 0.17639-0.52917 0.39688 0 0.22048 0.23519 0.39687 0.52917 0.39687s0.52917-0.17639 0.52917-0.39687c0-0.22049-0.23519-0.39688-0.52917-0.39688zm-10.183 10.448c0.0818 0.0284 0.21048 0.26509 0.37982 0.72141 0.17725 0.4776 0.43145 1.0754 0.56483 1.3281 0.13338 0.25269 0.24236 0.52061 0.24236 0.59531s-0.22697 0.13591-0.50436 0.13591c-0.40541 0-0.54072-0.26294-0.68885-1.34-0.12419-0.90294-0.12627-1.3948-0.0258-1.4402 0.01-4e-3 0.0203-5e-3 0.032-5.2e-4zm17.591 0.66404c-1.5044 0-2.0596 0.2913-1.1906 0.62477 0.31638 0.12141 0.39687 0.6923 0.39687 2.8148 0 2.1225-0.0805 2.6929-0.39687 2.8143-0.21828 0.0838-0.39688 0.29944-0.39688 0.47904 0 0.22509 0.49307 0.31979 1.5875 0.30489 1.0887-0.0148 1.5875-0.12644 1.5875-0.35502 0-0.18331-0.17859-0.3328-0.39687-0.3328-0.2932 0-0.39688-0.30705-0.39688-1.1751 0-0.64625 0.107-1.2411 0.23772-1.3219 0.13071-0.0808 0.60803 0.41832 1.0609 1.109 1.0523 1.6048 1.5557 2.1802 2.5378 2.9032 0.82366 0.60632 2.5826 0.80097 3.2753 0.36225 0.52901-0.33507 0.0871-0.87222-0.55088-0.66973-0.29612 0.094-0.81413 0.0229-1.1514-0.15761-0.85299-0.45651-3.6487-4.3995-3.4628-4.8839 0.0824-0.2147 0.62607-0.71966 1.2082-1.1224 0.58211-0.40274 1.0627-0.82155 1.0687-0.93069s-0.64502-0.19844-1.4454-0.19844c-1.3406 0-1.9158 0.31156-1.1245 0.60926 0.21226 0.0798-0.0247 0.4889-0.66146 1.142l-0.99219 1.0175v-1.2521c0-0.93682 0.1-1.2521 0.39688-1.2521 0.21828 0 0.39687-0.11905 0.39687-0.26458 0-0.14699-0.70556-0.26459-1.5875-0.26459zm-4.2659 0.0398c-1.1473-9e-3 -1.1763 0.11199-0.62891 0.65939 0.29948 0.29948 0.39688 1.0413 0.39688 3.0236 0 1.5749-0.10597 2.6272-0.26459 2.6272-0.14552 0-0.26458 0.11907-0.26458 0.26459 0 0.14553 0.65485 0.26458 1.4552 0.26458 1.5681 0 1.6797-0.0783 1.0351-0.72295-0.29017-0.29019-0.39166-0.77509-0.32866-1.5679 0.0502-0.63129-7.5e-4 -1.1784-0.11317-1.2159-0.29712-0.099 0.23325-2.6779 0.57412-2.7916 0.73934-0.24644 0.14136-0.4905-1.2997-0.5302-0.21114-6e-3 -0.39781-0.01-0.56172-0.0109zm28.136 0.34209c0.6262 9e-3 1.4551 0.29907 1.973 0.81701 0.36154 0.36114 0.24989 0.39831-1.0749 0.35501-1.5646-0.0511-1.7498-0.11998-1.7498-0.65422 0-0.36014 0.36458-0.52442 0.85163-0.5178zm-56.807 2.8004c0.48599 0 0.14073 2.4134-0.40308 2.8174-0.3158 0.23461-0.33064 0.32998-0.06459 0.41858 0.23269 0.0775 0.36092 0.716 0.39429 1.9637 0.04387 1.6399-0.0264 1.9358-0.62425 2.6236l-0.67386 0.77567 0.13694-1.8521c0.15213-2.0514 0.2632-2.6791 0.51832-2.9342 0.0943-0.0943-0.0016-0.34469-0.21291-0.55604-0.88173-0.88173-0.20418-3.2566 0.92914-3.2566zm-0.14883 8.1153 0.20722 0.77101c0.11394 0.42397 0.12857 1.0091 0.03204 1.3002-0.09652 0.29104-0.18399 0.99025-0.1943 1.5539-0.01382 0.75593-0.17532 1.1286-0.61443 1.4211-0.56976 0.37949-0.59656 0.36398-0.6351-0.36329-0.12264-2.314 0.01144-3.166 0.62218-3.9424zm26.22 5.688c-0.42539 6e-3 -0.39945 0.0493 0.13229 0.21963 0.90464 0.28972 1.6002 0.28972 0.92604 0-0.29104-0.12511-0.76728-0.22363-1.0583-0.21963zm2.3663 0.0439c-0.0704 7e-3 -0.1173 0.0634-0.1173 0.15968 0 0.15411 0.11906 0.2806 0.26458 0.2806s0.26458-0.0526 0.26458-0.11679c0-0.0642-0.11906-0.19019-0.26458-0.28009-0.0546-0.0337-0.10503-0.0476-0.14728-0.0434zm1.2661 0.27026c-0.0387 2.6e-4 -0.0605 0.01-0.0605 0.031 0 0.0623 0.41672 0.31126 0.92604 0.55294 1.1041 0.52393 1.2214 0.97901 0.19844 0.76998-0.68367-0.1397-6.9277-0.57312-8.6651-0.60152-0.43656-7e-3 -1.5081-0.0753-2.3812-0.15141-0.87312-0.0761-2.279-0.14496-3.1244-0.15296-0.95093-9e-3 -1.4749-0.11482-1.3741-0.27802 0.1072-0.17299-0.0777-0.17151-0.54001 4e-3 -0.38672 0.14703-1.6138 0.26228-2.727 0.25528-2.177-0.0131-4.5928 0.2087-5.3526 0.49145-0.25868 0.0963 3.5987 0.1907 8.5726 0.2098 4.9738 0.0191 10.651 0.17409 12.615 0.34469 8.8696 0.77021 12.736 0.96532 16.272 0.8201 0.72761-0.0299 2.335 0.0562 3.5719 0.19172v-5.2e-4c1.2369 0.13553 3.0824 0.25242 4.101 0.25942l1.8521 0.0124-2.4024-0.32556c-1.3215-0.17904-2.5169-0.39626-2.6567-0.48266-0.1398-0.0864-1.5722-0.18512-3.1833-0.21962-2.8201-0.0603-2.9244-0.0833-2.7957-0.61392 0.1175-0.48432 0.0342-0.45811-0.68575 0.21446l-0.81907 0.76533-2.5921-0.45011c-3.1188-0.5412-4.3119-0.63479-4.3119-0.33951 0 0.1214-0.24999 0.14191-0.55552 0.045-0.30552-0.097-0.83867-0.20746-1.1849-0.24546s-0.7849-0.19809-0.97462-0.35554c-0.34743-0.28836-1.4517-0.75269-1.7224-0.75086zm-26.791 0.80357c-0.43177 0.0153-0.78514 0.1172-0.78548 0.22634-8.36e-4 0.27492 1.2589 0.25038 1.4309-0.0279 0.07689-0.12443-0.21367-0.21374-0.64544-0.19844z" stroke-width=".26458"/></g></svg>
