<svg xmlns="http://www.w3.org/2000/svg" xmlns:xlink="http://www.w3.org/1999/xlink" width="210mm" height="297mm" viewBox="0 0 210 297"><defs><linearGradient xlink:href="#a" id="b" x1="446.026" x2="446.904" y1="403.882" y2="314.326" gradientTransform="matrix(.67014 0 0 .68572 -193.625 -126.713)" gradientUnits="userSpaceOnUse"/><linearGradient id="a"><stop offset="0" style="stop-color:#fff;stop-opacity:0"/><stop offset="1" style="stop-color:#7fc1dc;stop-opacity:.60597825"/></linearGradient></defs><ellipse cx="104.085" cy="147.528" rx="88.327" ry="88.603" style="fill:#193469;fill-opacity:1;stroke:none;stroke-width:10.6857;stroke-linecap:round;stroke-linejoin:round;stroke-dasharray:none;stroke-opacity:1"/><ellipse cx="104.085" cy="147.528" rx="88.327" ry="88.603" style="fill:none;stroke:#fff;stroke-width:1.5128;stroke-linecap:round;stroke-linejoin:round;stroke-dasharray:none;stroke-opacity:1"/><ellipse cx="104.085" cy="147.528" rx="63.602" ry="63.801" style="fill:url(#b);fill-opacity:1;stroke:none;stroke-width:7.69456;stroke-linecap:round;stroke-linejoin:round;stroke-dasharray:none;stroke-opacity:1"/><g aria-label="FREMONT CALIFORNIA STAKE" style="font-size:14.1111px;font-family:Monaco;-inkscape-font-specification:Monaco;white-space:pre;fill:#fff;stroke-width:40.063;stroke-linecap:round;stroke-linejoin:round"><path d="m118.949 33.583 2.114 3.04q1.281 1.842 2.148 2.197l-2.545 1.77q-.032-.936-1.313-2.779l-4.967-7.142-.172-.247-.185-.266-.185-.266q-.145-.209-.217-.272-.053-.076-.191-.233-.119-.171-.204-.253-.085-.082-.229-.207-.143-.126-.247-.195-.085-.081-.222-.156-.136-.074-.26-.13l5.89-4.095q.873-.608.992-.437l1.03 1.482-.094.066q-.525-.227-1.183-.08-.652.116-1.045.361-.407.227-1.015.65l-1.956 1.36 3.395 4.882q3.001-2.087 4.372-3.238.036.539-.267 1.116-.298.545-.915 1.116-.6.557-1.004.867-.405.31-1.05.759zM130.88 25.276l6.1 3.137q1.255.636 2.705 1.043l-1.692.856q-.6.303-1.107.223-.497-.111-1.202-.48l-4.337-2.318q-1.328-.728-1.69-.778-.539-.143-1.375.203l1.88 3.716q1.014 2.003 1.823 2.475l-2.87 1.452q.05-.57-.12-1.21-.147-.651-.283-.92-.115-.279-.47-.98l-3.866-7.64q-1.014-2.002-1.823-2.474.888-.449 2.487-1.388 1.62-.95 2.404-1.347 1.528-.773 2.74-.427 1.233.336 1.86 1.574.669 1.322.262 2.72-.407 1.4-1.426 2.563zm-5.2-3.255 2.194 4.336q.486-.168.96-.408 1.507-.763 1.895-1.945.408-1.192-.334-2.657-.72-1.425-1.663-1.493-.931-.099-2.542.665l-.97.49q.272.64.46 1.012zM140.639 21.722l1.977 5.901 2.523-.845q2.392-.801 3.377-2.522l.281 2.15q-1.455.61-2.07.816l-6.34 2.124q.262-1.04-.414-3.058l-2.764-8.249q-.713-2.128-1.446-2.712l7.657-2.566.654 1.66q-1.216-.495-3.52.277l-2.04.683 1.757 5.244q3.467-1.162 5.104-1.881-.116.527-.569.996-.438.44-1.191.814-.731.367-1.207.55-.475.184-1.22.434zM161.552 9.228l2.334-.348q-.087.2-.148.42-.041.193-.046.475-.008.258-.027.448.001.164.03.51.05.344.068.458l.078.527.072.48q.082.55.277 2.018l.335 2.242q.116.778.34 1.962.219 1.16.477 2.104.55 2.117 1.156 2.892l-3.364.502q.241-1.206-.202-4.181l-1.133-7.598q-.075-.503-.235-.48-.16.025-.247.388l-3.32 12.87-6.024-10.587q-.063-.108-.156-.258-.07-.153-.129-.238-.036-.088-.122-.192-.066-.13-.122-.193-.033-.065-.09-.127-.033-.065-.082-.081-.052-.039-.098-.032-.206.03-.093.786l1.086 7.44q.174 1.168.282 1.737.105.545.321 1.215.217.67.5 1.001l-2.723.407.162-.329q.737-1.49-.15-7.44l-.853-5.721q-.079-.526-.208-.764-.132-.261-.556-.432l2.838-.423q.595-.09.76.237l4.876 9.473q.033.065.076.199l.1.196q.055.062.092.15.06.084.112.123.05.016.095.01.183-.028.33-.611l2.536-10.133q.211-.78.443-.955.146-.116.352-.147zM180.256 17.054q.066-1.248-.104-2.415-.17-1.168-.62-2.28-.45-1.137-1.41-1.836-.934-.722-2.251-.791-2.357-.125-3.657 1.66-1.298 1.762-1.44 4.465-.067 1.248.103 2.415.17 1.168.62 2.304.45 1.113 1.385 1.834.96.7 2.277.77 2.356.124 3.655-1.638 1.299-1.785 1.442-4.488zm2.437-.52q-.182 3.443-2.245 5.65-2.062 2.186-5.528 2.002-3.466-.183-5.112-2.356-1.646-2.172-1.472-5.453.182-3.443 2.244-5.628 2.063-2.208 5.53-2.024 3.465.183 5.111 2.356 1.646 2.172 1.472 5.453zM186.573 25.131l-2.587-.62q1.23-1.657 2.365-6.381l1.151-4.792q.546-2.273-.001-3.166l2.272.546q.36.087.524.197.17.089.29.38.172.374.795 2.237.629 1.84.847 2.416l2.96 7.397q.252.632.342.654.158.038.26-.39l1.908-7.942q.448-1.867.151-3.01l2.34.563q-.988 1.143-1.48 3.19l-2.161 9q-.179.742-.458 2.102l-1.597-.383-5.42-13.7q-.098-.285-.188-.306-.135-.033-.216.305l-1.388 5.782-.486 2.025q-.124.613-.247 1.82-.124 1.208.025 2.076zM204.552 30.795l-2.859-1.2q.774-.528 1.642-2.598l4.09-9.75-2.837-1.191q-.896-.376-1.712-.166l1.072-1.357 10.732 4.502q-.874.888-2.987.002l-2.347-.985-4.09 9.75q-.869 2.07-.704 2.993zM233.057 30.549l-1.773 2.317-.056-.04q.081-.71.015-1.214-.035-.508-.491-1.262-.438-.74-1.34-1.387-1.412-1.01-2.897-.963-1.484.047-2.674.874t-2.2 2.238q-1.657 2.314-1.522 4.63.134 2.316 2.354 3.905 2.07 1.482 4.184 1.033l-.08.112q-.58.81-2.393.877-1.794.082-3.77-1.333-2.52-1.804-2.772-4.632-.253-2.827 1.665-5.466 2.101-2.935 4.972-3.526 2.903-.597 5.744 1.437.526.377 1.45 1.153.925.776 1.584 1.247zM237.113 44.6l2.349-4.65q.277-.508.113-.672-.114-.114-.67.116l-4.922 2.086zm-1.392 9.066-1.77-1.764 2.788-6.37-3.688-3.674q-4.35 1.48-5.395 2.528-.294.295-.571.672l-2.049-2.042.818-.1q1.734-.199 7.31-2.253 5.576-2.054 6.523-3.005l.458-.426 1.933 1.928q-.195.36-.946 1.801-.734 1.457-1.01 1.998-.262.556-.914 1.834-.62 1.277-.962 2.046-.326.753-.815 1.867-.456 1.113-.815 2.095-.342.966-.618 1.932zM240.937 52.127l5.16-3.917q1.787-1.357 2.106-2.239l1.875 2.47q-.935.07-2.722 1.427l-8.606 6.534 1.063 1.4q1.385 1.825 3.247 2.097l-1.998.965q-.475-.511-.908-1.082l-3.876-5.105q1.286.01 4.659-2.55zM245.015 61.628l7.378-4.61q1.904-1.189 2.301-2.037l1.643 2.629q-.937-.015-2.84 1.174l-7.379 4.61q-1.903 1.19-2.3 2.038l-1.643-2.63q.936.015 2.84-1.174zM252.37 66.943l-3.31 1.656q-2.008 1.004-2.484 1.811l-1.387-2.773q.931.104 2.939-.9l7.78-3.892.27-.135.29-.145.289-.145q.227-.113.3-.176.083-.04.259-.155.186-.093.279-.165.093-.073.238-.197.145-.124.227-.217.094-.073.187-.197.093-.124.165-.238l3.209 6.415q.476.952.29 1.045l-1.614.807-.052-.103q.3-.486.248-1.159-.02-.662-.207-1.086-.166-.435-.497-1.097l-1.066-2.132-5.318 2.66q1.635 3.27 2.577 4.791-.538-.041-1.066-.424-.497-.373-.973-1.066-.465-.672-.714-1.117-.248-.445-.6-1.149zM260.06 85.677q1.189-.382 2.22-.956 1.03-.574 1.91-1.391.902-.824 1.215-1.97.342-1.13-.062-2.386-.72-2.247-2.851-2.827-2.108-.587-4.686.24-1.19.383-2.22.957-1.031.574-1.933 1.398-.88.817-1.222 1.947-.312 1.146.09 2.401.722 2.247 2.83 2.834 2.13.58 4.708-.247zm1.351 2.093q-3.282 1.054-6.08-.09-2.774-1.15-3.835-4.455-1.061-3.304.384-5.615 1.445-2.311 4.574-3.315 3.282-1.054 6.057.096 2.798 1.144 3.858 4.448 1.061 3.305-.384 5.616-1.445 2.31-4.574 3.315zM262.826 96.692l-4.916 4.783q-1.002.988-1.85 2.233l-.273-1.878q-.096-.664.142-1.119.264-.436.838-.987l3.578-3.372q1.114-1.027 1.276-1.355.307-.465.246-1.368l-4.122.599q-2.22.322-2.926.94l-.463-3.183q.524.227 1.186.272.664.067.962.023.3-.02 1.08-.133l8.471-1.231q2.221-.323 2.926-.94.144.984.524 2.8.384 1.838.51 2.708.247 1.694-.467 2.733-.71 1.062-2.085 1.262-1.465.213-2.661-.619-1.197-.831-1.976-2.168zm4.742-3.892-4.808.699q.005.514.08 1.04.244 1.672 1.24 2.415 1 .767 2.626.53 1.58-.229 1.944-1.1.39-.852.18-2.622l-.156-1.076q-.694.054-1.106.114zM256.031 106.813l.046-2.66q1.883.842 6.741.926l4.928.085q2.337.04 3.09-.687l-.04 2.337q-.007.37-.08.554-.049.184-.307.365-.328.249-2.012 1.26-1.66 1.014-2.175 1.352l-6.58 4.491q-.562.384-.564.477-.003.161.437.17l8.166.14q1.92.033 2.971-.504l-.041 2.406q-1.33-.717-3.435-.754l-9.254-.16q-.764-.013-2.153.01l.029-1.643 12.2-8.259q.256-.158.258-.25.002-.139-.345-.145l-5.945-.103-2.082-.036q-.625.013-1.831.154t-2.022.474zM258.283 120.562l8.612 1.226q2.222.317 3.073-.076l-.437 3.07q-.707-.615-2.93-.932l-8.612-1.227q-2.222-.316-3.073.077l.438-3.07q.707.615 2.929.932zM259.808 134.68l5.202-.283q.578-.013.638-.236.042-.157-.434-.524l-4.262-3.226zm-8.553 3.314.647-2.414 6.91-.76 1.348-5.028q-3.452-3.033-4.882-3.416-.402-.108-.867-.16l.748-2.794.494.66q1.038 1.403 5.598 5.212 4.561 3.809 5.857 4.156l.598.184-.707 2.637q-.41.01-2.033.079-1.629.09-2.236.12-.612.05-2.045.122-1.416.1-2.253.187-.816.092-2.025.224-1.192.16-2.222.338-1.008.186-1.983.427zM249.05 144.133l2.167 1.15q-.623.088-1.008.171-.364.095-.97.35-.607.254-1.106.75-.509.515-.91 1.271-.64 1.206-.366 2.32.273 1.115 1.48 1.754.94.499 1.96.254 1.03-.213 1.934-.833.905-.62 1.831-1.229.946-.598 2.027-.81 1.092-.181 2.134.372 1.697.9 1.988 2.573.29 1.673-.63 3.41-.283.532-.897 1.542-.625 1.03-.896 1.542l-1.901-1.009q1.084-.315 1.633-.757.538-.422 1.08-1.444.596-1.124.392-2.123-.214-.978-1.318-1.563-.858-.456-1.827-.21-.959.277-1.864.897-.905.62-1.85 1.218-.926.61-2.038.78-1.102.2-2.185-.374-1.8-.954-2.113-2.98-.313-2.026.673-3.886.944-1.778 2.58-3.136zM239.34 159.326l1.813-2.515q.34.873 2.161 2.185l8.577 6.185 1.8-2.496q.568-.789.548-1.63l1.08 1.35-6.806 9.44q-.668-1.053.672-2.91l1.488-2.065-8.577-6.184q-1.82-1.313-2.756-1.36zM236.286 173.91l4.658 2.332q.509.276.672.112.114-.115-.118-.67l-2.103-4.915zm-9.07-1.362 1.757-1.775 6.379 2.765 3.662-3.7q-1.494-4.344-2.546-5.386-.296-.293-.674-.57l2.035-2.054.102.817q.205 1.733 2.278 7.302 2.073 5.569 3.027 6.513l.428.456-1.921 1.94q-.361-.194-1.805-.94-1.46-.729-2-1.004-.558-.259-1.838-.907-1.279-.615-2.05-.955-.754-.323-1.869-.809-1.115-.452-2.098-.807-.967-.339-1.934-.612zM227.586 175.9l5.135 7.022q1.325 1.812 2.2 2.147l-2.503 1.83q-.053-.936-1.378-2.747l-2.13-2.914q-.357.375-.58 1.284-.225.91-.274 1.547-.068.652-.167 1.928-.076.915-.109 1.34-.02.445-.035.972-.002.546.055.82.052.306.175.474.205.28.278.341l-2.316 1.694q.054-.24.234-.974.162-.72.244-1.038.064-.305.154-.887.086-.55.152-1.085l.6-5.255-6.337-2.16q-1.082-.383-3.256-.886l1.961-1.434q.355-.26 1.078-.015l7.077 2.622q.387.176.499.094.075-.054-.048-.222l-2.39-3.269q-1.325-1.812-2.2-2.146l2.502-1.83q.054.935 1.379 2.747zM217.485 187.592l-2.929-5.492-2.348 1.252q-2.225 1.187-2.911 3.047l-.634-2.074q1.333-.842 1.905-1.147l5.9-3.146q-.085 1.068.916 2.946l4.094 7.677q1.056 1.98 1.875 2.435l-7.126 3.8-.92-1.529q1.281.287 3.425-.856l1.899-1.012-2.602-4.88q-3.226 1.72-4.722 2.701.027-.539.396-1.076.36-.506 1.04-1 .66-.483 1.099-.743.438-.26 1.132-.63z" style="font-size:23.1379px;font-family:&quot;Baker Signet&quot;;-inkscape-font-specification:&quot;Baker Signet, Normal&quot;" transform="matrix(.43535 -.71209 .6959 .44547 -45.119 221.699)"/></g><g aria-label="Alvarado - Bayside - Central Park" style="font-size:25.4px;line-height:.5;font-family:&quot;Baker Signet&quot;;-inkscape-font-specification:&quot;Baker Signet, Normal&quot;;white-space:pre;fill:#fff;stroke-width:7.55906;stroke-linecap:round;stroke-linejoin:round"><path d="m49.714 189.163 1.456-2.084q.169-.226.1-.316-.047-.063-.331.01l-2.521.667zm-1.299 4.283-.733-.975 1.787-2.883-1.527-2.03q-2.203.414-2.78.849-.163.122-.323.285l-.849-1.128.402.008q.852.023 3.686-.584 2.835-.607 3.359-1l.25-.174.8 1.064q-.119.16-.58.805-.456.653-.627.895-.164.25-.568.822-.387.574-.606.922l-.522.846q-.297.506-.538.955-.232.443-.433.89zM49.72 194.846l-.811-.94q.372-.053 1.056-.643l4.07-3.507q.232-.199.344-.31.112-.112.222-.296t.098-.353l.874.737-5.063 4.362q-.684.59-.79.95zM56.13 194.368l.746.786q-.425.06-1.135.329-2.282.841-3.99 1.682l-.442-.467.402-.708q.134-.236.528-.92.393-.684.528-.952.151-.268.396-.748.26-.48.389-.82.145-.34.233-.657.562.494.616.552.101.106.082.218-.011.119-.178.402l-1.701 2.981q-.025.04-.058.086-.017.048-.034.08l-.034.062-.017.048q0 .016.015.032.047.05.346-.095.202-.098.978-.445.784-.338 1.278-.62.503-.274.822-.577.082-.078.23-.25zM54.867 198.431q-.27.289-.236.599.035.31.324.58.354.332.79.245.453-.087.807-.466l.78-.833-.654-.194q-.783-.237-1.15-.24-.36-.013-.661.309zm1.363 2.99-.789-.645q.083-.139.19-.302.114-.172.143-.237.046-.065.013-.096-.025-.023-.073-.021-.332.075-.507.097-.168.013-.443-.09-.274-.086-.546-.34-.446-.417-.51-.926-.066-.509.343-.946.162-.173.382-.26.23-.08.42-.086.2-.015.498.047.305.054.474.104.17.05.485.16l.42.145q.573.18.725.167.238-.024.585-.395.679-.726.036-1.327-.264-.247-.528-.262-.256-.007-.436.103-.172.117-.387.149-.214.03-.387-.131-.306-.285-.036-.574.355-.38.97-.144.63.234 1.2.766 1.088 1.017.464 1.685l-1.696 1.815-.154.165-.155.165-.146.156q-.1.123-.146.173-.03.049-.115.155-.076.115-.113.188-.03.065-.082.17-.045.098-.066.186-.02.089-.034.185zM57.876 201.193l1.281-1.534q.34-.407.505-.622.165-.215.316-.501.15-.286.119-.46.189.143.455.336.265.192.309.228.086.073-.086.297-.163.23-.12.267.009.007.221-.036.213-.043.52-.007.308.036.534.225.476.398.201.727-.239.286-.542.033-.078-.066-.253-.226-.158-.162-.271-.256-.295-.246-.535-.153-.24.094-.522.432l-1.49 1.785q-.58.693-.633 1.075l-.953-.796q.366-.12.944-.814zM60.94 203.649q-.236.317-.167.622.069.304.386.54.39.29.813.155.44-.137.75-.554l.68-.915-.67-.12q-.805-.147-1.17-.11-.36.029-.622.382zm1.688 2.818-.855-.552q.067-.147.154-.321.094-.184.117-.252.038-.07.002-.097-.028-.02-.075-.013-.322.112-.494.153-.165.033-.45-.039-.282-.055-.58-.277-.49-.364-.611-.863-.122-.498.235-.978.142-.19.351-.302.219-.105.408-.132.197-.037.5-.01.309.02.483.05.174.031.499.105l.434.097q.59.115.738.085.235-.05.538-.458.593-.797-.113-1.322-.29-.216-.554-.201-.255.02-.422.15-.157.136-.367.191-.21.055-.4-.086-.335-.25-.1-.566.31-.417.948-.253.653.163 1.278.628 1.196.89.65 1.623l-1.482 1.992-.135.182-.135.18-.128.173q-.085.133-.126.188-.024.052-.096.167-.063.122-.092.2-.022.067-.062.178-.034.102-.045.192-.01.09-.013.187zM67.01 209.318l-.918-.429.193-.385q.055-.086.008-.116-.01-.006-.232.026-.215.022-.599-.05-.373-.065-.763-.315-.789-.506-.808-1.416-.003-.915.533-1.75.725-1.132 1.805-1.351 1.09-.213 2.23.518.17.11.47.355l.767-1.197q.488-.76.4-1.084l1.01.433-3.608 5.625q-.494.77-.488 1.136zm-.045-1.853 1.33-2.072q.23-.36.21-.602-.02-.24-.361-.46-.77-.493-1.533-.245-.762.248-1.299 1.084-.47.732-.471 1.508.013.774.698 1.213.399.256.778.124.38-.132.648-.55zM73.218 209.632q-.633 1.172-1.629 1.52-.986.353-2.088-.243-.954-.515-1.092-1.424-.122-.913.366-1.816.633-1.173 1.62-1.525.995-.348 2.098.248.953.515 1.076 1.428.138.909-.35 1.812zm-3.373-1.95q-.338.626-.477 1.192-.134.557.012 1.071.145.515.642.784.635.343 1.177-.019.552-.356.949-1.091.338-.626.472-1.182.139-.567-.006-1.081-.146-.515-.642-.783-.636-.344-1.188.013-.542.361-.939 1.096zM78.346 212.418l-2.317-.955.712-.366 2.328.96zM84.766 209.801l-.727 2.528.292.084q.836.24 1.472.071.65-.177.878-.969.193-.673-.135-1.002-.325-.34-1.095-.562-.195-.056-.685-.15zm-2.078 3.549.799-2.777q.302-1.053.17-1.49.477.137 1.458.36.981.224 1.459.362.694.2 1.056.656.373.46.183 1.121-.185.64-.712.923-.514.275-1.303.365l-.007.022q.834.451 1.206.993.384.545.153 1.348-.637 2.213-3.414 1.414-.369-.106-1.1-.34-.72-.23-1.09-.337.58-.667 1.142-2.62zm1.238-.63-.493 1.714q-.29 1.009-.268 1.297.034.292.555.442 1.79.514 2.249-1.08.153-.532.068-.932-.074-.397-.388-.652-.3-.263-.654-.423-.342-.157-.884-.313zM88.626 216.572q-.08.387.11.634.191.247.578.327.475.099.803-.202.34-.31.446-.819l.232-1.116-.66.175q-.791.204-1.107.393-.313.177-.402.608zm2.719 1.843-1.009-.14q-.001-.161.005-.356.008-.206 0-.277.004-.08-.04-.089-.033-.007-.073.02-.245.237-.383.347-.136.099-.424.154-.28.07-.644-.007-.597-.124-.918-.524-.32-.401-.199-.987.048-.232.191-.421.155-.188.315-.293.162-.116.448-.218.29-.113.46-.158.17-.046.497-.116l.434-.095q.584-.144.706-.234.191-.145.294-.642.202-.973-.66-1.152-.354-.073-.587.052-.222.126-.319.314-.085.19-.252.328-.167.138-.4.09-.409-.085-.328-.471.105-.509.752-.628.661-.129 1.424.03 1.459.302 1.273 1.197l-.504 2.432-.046.221-.046.221-.043.21q-.021.157-.035.224 0 .057-.017.192-.005.137 0 .22.01.07.02.188.012.106.04.193.028.086.068.175z" style="font-weight:500;font-size:11.2889px;-inkscape-font-specification:&quot;Baker Signet, Medium&quot;;text-align:center;text-anchor:middle"/><path d="m95.383 213.922 1.084.157q-.282.37-.6.917l-2.159 3.805q-.18.305-.371.597-.18.293-.541.743-.363.46-.717.775-.355.325-.83.53-.463.207-.898.144-.201-.03-.386-.09-.197-.063-.369-.213t-.143-.352q.03-.2.185-.178.068.01.278.051.2.04.3.055.604.087.952.046.335-.031.51-.143.188-.11.445-.392.795-.843.93-1.77.062-.436-.004-.845l-.251-1.735q-.29-2.027-.61-2.564.68.03.836.053.134.02.178.105.058.077.088.264l.488 3.412q.052.35.107.358.045.006.217-.31l.826-1.695q.465-.925.52-1.305.029-.201-.065-.42zM97.501 215.009q-.031.371.18.673.225.29.547.5.333.21.653.441.332.222.54.568.22.336.184.764-.065.753-.71 1.128-.632.376-1.42.309-.596-.052-1.227-.355-.185-.084-.17-.264.013-.146.06-.426.058-.278.067-.39.262.51.514.746.263.238.78.283 1.057.09 1.14-.865.031-.371-.181-.662-.201-.3-.512-.508l-.62-.439q-.308-.23-.516-.577-.196-.357-.156-.818.103-1.203 1.813-1.056.45.039 1.012.223.142.058.137.114-.025.292-.088.763-.291-.433-.517-.577-.213-.155-.607-.188-.36-.031-.623.127-.25.149-.28.486zM100.794 214.398l1.09-.138-.155 3.993q-.035.902.156 1.226l-1.24-.048q.214-.308.25-1.21l.117-3.046q-.002-.249-.009-.35.004-.102-.048-.217-.052-.126-.161-.21zm.046-1.5.834-.522.49.776-.833.499zM107.586 219.462l-1.003.153-.052-.429q-.002-.101-.058-.1-.011 0-.178.15-.167.138-.526.29-.347.153-.81.16-.937.017-1.458-.731-.51-.76-.526-1.753-.022-1.343.755-2.124.788-.78 2.143-.803.203-.003.588.035l-.024-1.422q-.015-.903-.267-1.125l1.08-.198.112 6.682q.015.914.224 1.215zm-1.065-1.517-.04-2.461q-.008-.429-.158-.618-.15-.19-.556-.183-.914.015-1.412.645-.498.629-.48 1.622.014.87.442 1.517.44.636 1.253.623.474-.008.717-.329.243-.32.234-.816zM111.22 215.906l-2.012.175q-.008.431.01.633.075.866.532 1.427.467.549 1.288.477.405-.035.763-.213.37-.18.552-.433l.01.123q.038.439-.504.849-.532.397-1.173.453-1.046.09-1.677-.647-.63-.739-.727-1.852-.1-1.147.452-1.966.551-.83 1.665-.927.776-.067 1.285.32.51.386.56.97.022.248-.113.384-.126.124-.304.163-.179.026-.606.064zm-1.974-.169 1.158-.1.371-.033q.112-.02.244-.066.13-.057.168-.15.037-.095.024-.252-.03-.337-.288-.576-.248-.239-.642-.204-.854.074-1.035 1.381zM118.155 215.898l-2.463.464.398-.695 2.473-.467zM125.843 208.555l.377 1.372-.032.01q-.252-.241-.467-.364-.208-.136-.635-.181-.417-.049-.935.111-.809.25-1.229.841-.42.59-.45 1.297-.029.707.221 1.515.41 1.327 1.35 1.958.94.631 2.212.238 1.187-.367 1.636-1.322l.02.065q.143.464-.365 1.188-.498.721-1.63 1.072-1.446.447-2.618-.29-1.173-.736-1.633-2.26-.52-1.682.097-2.972.625-1.304 2.253-1.808.302-.093.876-.223.575-.13.952-.247zM130.69 210.967l-1.876.75q.118.415.193.604.322.807.922 1.212.605.39 1.37.084.378-.15.67-.425.302-.279.402-.574l.046.115q.164.409-.237.958-.394.534-.992.773-.975.39-1.792-.135-.817-.524-1.232-1.562-.427-1.07-.135-2.012.287-.954 1.325-1.369.723-.289 1.323-.066.6.222.817.767.092.231.002.4-.084.156-.243.244-.164.077-.562.236zm-1.938.41 1.08-.43.345-.14q.1-.052.214-.133.11-.092.118-.193.008-.1-.05-.247-.126-.315-.443-.468-.306-.157-.673-.01-.796.317-.591 1.621zM131.428 208.735l.916-.518.171.356q.079.163.14.133.02-.01.12-.245.094-.246.325-.546.242-.305.587-.472 1.24-.599 1.879.723l1.1 2.277q.392.813.692 1.02l-.915.441-1.345-2.785q-.137-.285-.266-.473-.134-.2-.328-.369-.19-.184-.437-.202-.237-.024-.531.118-.956.462-.274 1.875l.79 1.637q.393.813.714 1.01l-1.118.54q.045-.374-.348-1.187l-1.168-2.42q-.393-.813-.704-.913zM135.479 205.16l.586-.572.78 1.4.809-.45q.088-.05.127.02.077.138-.106.343-.189.195-.465.35l-.168.093 1.686 3.028q.165.296.341.404.171.099.438-.05.128-.071.281-.26.154-.189.189-.311l.196.446q.034.084-.18.397-.197.317-.454.46-.888.494-1.459-.532l-1.767-3.176-.415.23-.175-.315.392-.27zM140.67 208.175l-1.05-1.7q-.28-.45-.432-.675-.152-.224-.376-.457t-.399-.258q.196-.134.462-.326.267-.191.315-.221.096-.06.254.174.168.229.216.199.01-.006.035-.221.026-.216.158-.496t.381-.435q.528-.327.754.038.196.316-.14.524-.086.054-.294.169-.204.1-.329.177-.326.202-.313.46.013.257.245.63l1.224 1.978q.475.768.82.94l-1.055.653q0-.385-.475-1.153zM143.967 206.042q.227.324.537.355.311.03.635-.196.398-.279.403-.723.008-.461-.29-.887l-.653-.934-.324.6q-.395.716-.474 1.075-.086.35.166.71zm3.207-.714-.794.638q-.118-.11-.256-.248-.144-.147-.202-.19-.054-.058-.091-.032-.028.02-.036.067.005.34-.01.517-.022.166-.18.414-.14.25-.446.464-.5.35-1.01.308-.512-.042-.855-.532-.136-.194-.176-.428-.03-.24.003-.43.027-.197.149-.476.116-.287.2-.443.084-.155.256-.44l.23-.382q.295-.523.313-.674.026-.238-.265-.655-.57-.814-1.291-.309-.296.207-.366.463-.06.248.01.447.08.193.066.409-.014.216-.208.352-.342.24-.569-.084-.297-.426.06-.978.36-.57.998-1.016 1.22-.854 1.745-.105l1.424 2.035.13.185.129.185.123.176q.1.123.138.178.042.04.129.145.096.098.16.15.057.042.15.115.086.064.168.103.082.039.174.071zM148.942 203.94l-.98.763q-.034-.375-.589-1.087l-3.298-4.242q-.187-.24-.293-.359-.106-.118-.284-.236-.179-.12-.348-.116l.78-.836 4.103 5.276q.554.713.909.837zM151.368 199.998l-2.92-3.08q-.754-.795-1.198-.903.328-.31.928-.957.6-.647.92-.95.754-.715 1.496-.703.734.004 1.332.635.684.72.701 1.576.017.854-.704 1.538-.426.404-.884.495.223-.273.34-.43.116-.172.252-.472.144-.308.134-.548-.001-.247-.144-.578-.143-.347-.469-.692-.513-.54-1.013-.626-.501-.085-1.083.467l-.655.621 3.704 3.908q.707.745 1.23.871l-1.13 1.072q-.076-.441-.837-1.244zM155.826 195.937q.291.267.601.23.31-.038.577-.33.328-.357.237-.793-.092-.451-.475-.802l-.84-.77-.187.655q-.23.785-.23 1.153-.008.36.317.657zm2.975-1.392-.636.795q-.14-.082-.304-.187-.173-.112-.238-.141-.066-.045-.096-.012-.023.025-.021.073.078.332.102.507.015.167-.085.443-.083.275-.335.55-.412.45-.92.52-.509.07-.95-.335-.174-.16-.264-.38-.082-.228-.09-.42-.017-.198.042-.496.05-.306.1-.476.048-.17.154-.486l.141-.422q.175-.575.16-.726-.026-.239-.4-.582-.733-.67-1.328-.022-.244.267-.257.53-.005.257.107.436.12.17.153.384.033.215-.127.39-.282.308-.573.04-.383-.35-.155-.967.228-.634.755-1.208 1.006-1.099 1.68-.48l1.832 1.677.166.152.167.153.158.145q.124.098.174.144.049.03.157.113.115.075.188.112.065.029.171.08.098.044.187.064.089.02.185.032zM158.558 192.9l-1.547-1.265q-.41-.336-.628-.499-.216-.163-.504-.31-.287-.148-.46-.115.14-.19.33-.458t.226-.311q.072-.088.297.082.233.161.269.118.007-.01-.038-.221-.046-.212-.012-.52.033-.308.219-.536.393-.48.725-.209.288.236.038.542-.064.079-.223.255-.16.16-.253.274-.243.297-.147.536.096.24.437.518l1.8 1.473q.699.571 1.08.621l-.786.962q-.124-.365-.823-.937zM155.295 186.634l.519-1.02 3.686 2.686q.165.12.198.074t.027-.19q-.045-.745-.19-1.255-.147-.527-.32-.653-.128-.093-.26-.105l.672-.921.41 2.658q.647-.101 2.499-.037.935.04 1.473-.086l-.69.95-2.99-.153q-.276-.005-.303.031-.033.046.122.159l1.068.777q.73.532 1.105.554l-.731 1.004q-.136-.35-.866-.882l-4.343-3.164q-.247-.18-.381-.264-.134-.083-.339-.148-.204-.065-.366-.016z" style="font-weight:500;font-size:11.2889px;-inkscape-font-specification:&quot;Baker Signet, Medium&quot;;text-align:center;text-anchor:middle"/></g><g aria-label="Decoto - Fremont - Hayward - Mission Peak - Newark" style="font-weight:500;font-size:11.2889px;font-family:&quot;Baker Signet&quot;;-inkscape-font-specification:&quot;Baker Signet, Medium&quot;;text-align:center;text-anchor:middle;white-space:pre;fill:#fff;stroke-width:7.55906;stroke-linecap:round;stroke-linejoin:round"><path d="m24.249 165.492 4.106-1.075q1.06-.278 1.368-.615.143.546.486 1.635.346 1.1.492 1.656.358 1.365-.348 2.46-.705 1.095-2.18 1.481-1.768.463-3.064-.341-1.285-.807-1.708-2.423-.155-.59-.356-1.448-.201-.857-.29-1.196.434.143 1.494-.134zm4.866-.224-4.816 1.261q-.568.149-.636.423-.069.275.172 1.192.36 1.376 1.375 1.776 1.028.407 2.48.027 1.442-.378 2.058-1.367.62-.98.242-2.42-.146-.558-.36-1.015-.076.02-.253.054l-.262.069zM28.873 174.94l-.658-1.911q-.42.097-.613.163-.822.284-1.255.863-.419.586-.15 1.365.133.384.393.689.264.315.554.43l-.117.04q-.417.144-.946-.283-.515-.42-.724-1.028-.343-.992.22-1.784.563-.79 1.62-1.155 1.089-.375 2.017-.039.938.333 1.303 1.39.254.736.003 1.324-.251.588-.806.78-.235.08-.4-.018-.151-.09-.231-.254-.07-.167-.21-.573zm-.316-1.958.379 1.1.121.352q.048.103.124.22.087.113.187.127.1.013.25-.039.32-.11.488-.419.172-.298.043-.672-.28-.81-1.592-.669zM32.508 179.226l-1.034.424-.021-.052q.228-.276.321-.437.108-.154.141-.4.034-.245-.086-.537-.274-.669-1.038-.807-.765-.138-1.663.23-.867.356-1.25.94-.372.58-.042 1.384.286.7.936.945l-.167.069q-.397.163-.836-.194-.424-.35-.677-.967-.39-.95.054-1.803.448-.843 1.43-1.245 1.149-.471 2.183-.09 1.035.381 1.502 1.52.098.24.161.482.073.239.083.381.024.149.003.157zM32.649 184.986q-1.2.579-2.21.277-1.006-.292-1.55-1.42-.472-.976-.051-1.793.435-.812 1.36-1.259 1.2-.579 2.206-.287 1.01.302 1.555 1.43.47.977.035 1.789-.42.817-1.345 1.263zm-1.591-3.557q-.64.31-1.085.687-.435.373-.618.875-.184.502.061 1.01.314.651.965.675.656.035 1.408-.328.64-.31 1.075-.682.445-.377.629-.88.183-.502-.062-1.01-.314-.65-.97-.685-.65-.025-1.403.338zM36.408 184.08l.568.59-1.406.771.445.812q.05.09-.02.127-.139.076-.343-.108-.194-.19-.346-.467l-.092-.169-3.04 1.666q-.296.163-.406.339-.1.17.047.437.07.129.258.284.188.154.31.19l-.447.194q-.085.033-.396-.182-.315-.2-.457-.458-.488-.891.542-1.455l3.188-1.747-.228-.416.317-.174.267.395zM36.849 192.132q-1.134.7-2.17.503-1.03-.187-1.688-1.253-.57-.922-.235-1.778.35-.853 1.223-1.392 1.134-.7 2.164-.513 1.037.196 1.695 1.263.569.922.22 1.774-.335.856-1.209 1.396zm-1.949-3.374q-.605.373-1.009.795-.393.415-.524.934-.131.518.165.999.38.614 1.03.572.655-.034 1.366-.472.606-.374 1-.79.403-.42.534-.939.13-.519-.166-.999-.379-.615-1.035-.582-.65.043-1.361.482zM39.866 197.17l-1.503-2.006.8.05 1.509 2.014zM44.127 200.654l-1.347 1.203q-.817.73-.938 1.17l-1.007-1.127q.451-.07 1.268-.8l3.165-2.829.11-.097.117-.106.118-.105q.093-.083.119-.121.033-.03.102-.106.075-.068.11-.114t.087-.123q.052-.077.08-.132.034-.046.062-.116.028-.07.047-.133l2.332 2.61q.346.386.27.454l-.656.587-.038-.042q.079-.268-.032-.578-.094-.309-.236-.485-.134-.183-.374-.452l-.775-.867-2.164 1.933q1.189 1.33 1.827 1.925-.259.05-.556-.063-.282-.112-.594-.377-.306-.257-.48-.435t-.43-.464zM45.155 204.801l1.423-1.402q.378-.373.563-.57.185-.199.362-.469.178-.27.163-.446.175.161.42.378.247.218.286.258.08.08-.114.287-.185.214-.145.254.008.008.223-.014.216-.023.519.043.303.066.509.275.436.443.13.744-.265.261-.543-.02-.071-.073-.23-.25-.142-.176-.245-.28-.27-.274-.517-.204-.248.07-.562.38l-1.656 1.631q-.643.634-.734 1.009l-.872-.885q.376-.085 1.02-.719zM50.769 207.41l-1.487-1.368q-.324.285-.461.435-.59.64-.695 1.355-.09.715.516 1.273.299.275.672.42.382.151.692.114l-.084.092q-.298.324-.966.2-.653-.125-1.126-.561-.773-.711-.653-1.675.12-.963.877-1.786.78-.847 1.757-.991.984-.153 1.806.604.573.528.632 1.164.058.637-.34 1.07-.168.182-.36.174-.176-.01-.324-.115-.14-.114-.456-.404zm-1.208-1.571.856.787.274.253q.09.068.213.135.13.058.225.022.094-.035.201-.152.23-.249.23-.6.01-.344-.28-.612-.631-.581-1.719.167zM50.853 210.256l1.666-2.108q.56-.708.515-1.032l.936.654-.245.31q-.112.141-.059.183.009.007.273 0 .272-.015.634.055.37.077.618.273.337.266.4.605.073.345.013.585-.054.231-.018.26.026.02.31-.03.29-.057.678-.038.388.019.672.243 1.01.798.099 1.95l-1.568 1.983q-.56.708-.615 1.068l-.797-.63 1.919-2.426q.42-.532.537-.971.126-.433-.272-.748-.337-.266-.677-.218-.333.039-.589.253-.24.213-.548.603l-1.093 1.381q-.56.709-.596 1.083l-.974-.77q.355-.122.915-.83l1.162-1.47q.42-.532.538-.972.126-.432-.272-.748-.337-.266-.677-.218-.333.04-.589.254-.24.213-.548.603l-1.093 1.38q-.56.71-.596 1.083l-.975-.77q.356-.122.916-.83zM61.4 216.133q-.74 1.107-1.765 1.358-1.015.258-2.056-.44-.9-.603-.952-1.52-.035-.92.536-1.774.742-1.107 1.757-1.365 1.024-.251 2.065.446.9.603.936 1.524.051.917-.52 1.771zm-3.172-2.261q-.396.59-.588 1.141-.186.542-.09 1.068t.565.84q.6.402 1.174.093.583-.302 1.047-.996.396-.591.582-1.132.192-.55.096-1.077-.096-.526-.564-.84-.6-.402-1.184-.1-.573.309-1.038 1.003zM63.108 214.447l.942.469-.199.341q-.09.156-.032.19.02.012.27-.038.257-.06.635-.036.388.029.72.222 1.19.691.454 1.96l-1.27 2.187q-.454.781-.456 1.145l-.879-.51 1.554-2.675q.158-.273.242-.486.09-.222.121-.478.047-.26-.076-.475-.113-.21-.397-.374-.917-.533-1.705.824l-.913 1.572q-.453.781-.437 1.156l-1.073-.623q.334-.172.788-.953l1.349-2.323q.453-.78.362-1.095zM68.378 215.83l.8.172-.734 1.425.823.424q.09.047.054.117-.072.14-.344.102-.267-.049-.548-.194l-.17-.088-1.588 3.081q-.155.301-.147.508.012.197.283.337.13.067.373.09.242.023.363-.016l-.262.411q-.051.075-.43.07-.374.011-.635-.123-.903-.465-.365-1.509l1.665-3.231-.422-.218.166-.32.442.176zM73.61 222.91l-2.31-.974.715-.36 2.32.977zM82.496 223.976l.473-1.543q.295-.96.186-1.49l1.468.45q-.388.377-.682 1.338l-1.244 4.058q-.295.96-.186 1.49l-1.468-.45q.388-.377.682-1.338l.639-2.083-3.195-.98-.639 2.084q-.294.96-.185 1.49l-1.468-.45q.388-.378.682-1.338l1.244-4.058q.295-.96.186-1.49l1.468.45q-.388.377-.682 1.338l-.473 1.543zM84.644 227.483q-.09.385.096.637.186.251.57.34.474.109.808-.185.348-.302.464-.808l.256-1.111-.662.16q-.796.187-1.116.368-.317.17-.416.6zm2.677 1.904-1.005-.163q.002-.161.013-.356.012-.205.006-.276.006-.08-.038-.09-.033-.008-.073.018-.25.232-.391.338-.138.096-.427.145-.281.063-.644-.021-.594-.137-.906-.545-.311-.408-.177-.99.053-.232.2-.418.159-.183.321-.285.165-.113.454-.208.29-.107.463-.148.171-.042.499-.105l.436-.085q.587-.131.711-.219.195-.14.309-.635.223-.968-.635-1.166-.352-.081-.588.038-.225.122-.326.308-.09.187-.26.322t-.4.081q-.408-.094-.319-.479.117-.506.767-.61.663-.114 1.422.06 1.452.336 1.247 1.227l-.558 2.42-.051.22-.05.22-.049.209q-.025.156-.04.222-.001.058-.02.192-.01.137-.005.22.007.07.014.188.01.107.037.194.026.087.063.177z"/><path d="m91.493 225.016 1.078.189q-.292.361-.627.898l-2.272 3.74q-.19.298-.39.584-.187.288-.562.727-.377.45-.74.753-.364.314-.845.505-.47.192-.903.116-.2-.035-.383-.101-.194-.069-.362-.224-.168-.156-.132-.356.035-.2.19-.173.067.012.276.06.199.047.299.064.6.105.95.075.335-.021.514-.127.19-.105.456-.379.82-.819.982-1.742.076-.433.022-.844l-.198-1.743q-.228-2.034-.534-2.58.68.05.835.077.133.024.175.111.055.079.08.267l.385 3.425q.041.351.097.361.044.008.225-.304l.877-1.669q.492-.91.559-1.289.035-.2-.052-.421z"/><path d="m94.813 225.477 1.29.144q-.134.189-.15.335-.032.28.11 1.148l.317 2.16q.007.034.01.114.013.081.008.126.007.046.023.105.017.047.037.072.02.025.054.029.033.004.058-.017.025-.02.054-.073.029-.054.045-.097.017-.055.051-.154.045-.097.062-.152.783-1.934.88-2.798.04-.37-.01-.626l1.01.112q-.327.282-.594.945l-1.53 3.953-.696-.077-.562-3.323q-.068-.405-.136-.412-.056-.006-.19.274l-1.48 3.197-.717-.08-.196-2.634q-.123-1.854-.452-2.572.09.01.419.013.34.004.43.014.101.01.16.097.058.086.062.154.015.07.025.287l.183 3.155q.027.47.094.477.068.007.241-.326 1.049-2.075 1.149-2.973.042-.381-.059-.597zM99.284 229.67q-.019.395.209.609.227.213.622.232.485.022.761-.327.288-.36.312-.879l.052-1.139-.623.277q-.75.327-1.032.563-.281.224-.301.664zm2.976 1.391-1.018.021q-.027-.16-.052-.353-.025-.204-.044-.273-.008-.08-.053-.081-.034-.002-.069.03-.205.274-.324.404-.118.119-.394.219-.265.112-.637.095-.61-.028-.989-.373-.38-.345-.352-.943.01-.237.122-.446.123-.21.264-.339.142-.14.409-.286.267-.157.429-.229.161-.072.472-.193l.414-.162q.553-.234.66-.342.166-.174.19-.681.045-.992-.835-1.033-.36-.016-.571.144-.2.16-.265.36-.055.201-.198.364-.143.163-.38.152-.417-.019-.399-.414.024-.518.644-.738.632-.231 1.41-.196 1.489.069 1.447.982l-.114 2.481-.01.226-.01.225-.01.214q.003.159 0 .226.01.057.014.193.016.137.035.217.02.068.048.183.03.103.071.184.042.08.094.162zM103.376 229.828l-.005-1.998q-.001-.53-.013-.801t-.08-.587q-.07-.316-.205-.429.237-.011.564-.035.328-.023.384-.023.113 0 .125.282.023.282.08.282.01 0 .146-.17.135-.17.394-.34.26-.17.553-.17.62-.001.622.427 0 .373-.394.374-.102 0-.339-.01-.226-.023-.373-.022-.383 0-.507.227-.124.226-.123.666l.005 2.325q.002.903.206 1.23l-1.241.003q.202-.327.2-1.23zM111.038 230.803l-.996.19-.069-.425q-.006-.102-.062-.098-.01 0-.172.156-.161.145-.514.311-.341.166-.803.192-.936.052-1.485-.675-.539-.739-.594-1.73-.074-1.342.672-2.152.758-.811 2.11-.887.203-.01.59.013l-.08-1.42q-.05-.902-.31-1.114l1.071-.24.371 6.673q.051.913.271 1.206zm-1.122-1.476-.137-2.457q-.024-.428-.18-.612-.158-.183-.564-.16-.913.05-1.385.698-.473.648-.418 1.64.048.868.502 1.499.464.618 1.275.573.474-.026.704-.355.23-.33.203-.826zM116.935 227.84l-2.48.364.426-.678 2.49-.365zM125.867 220.742l1.115-.29q-.032.101-.05.21-.01.097.002.234.01.126.01.219.01.079.041.246l.057.218.066.251.06.23q.068.262.24.964l.28 1.07q.096.372.266.934.167.551.342.996.377.998.712 1.342l-1.606.42q.054-.598-.316-2.018l-.947-3.626q-.063-.24-.14-.22-.076.02-.098.2l-.939 6.417-3.475-4.821q-.036-.05-.089-.117-.042-.07-.075-.109-.022-.04-.07-.087-.038-.06-.069-.087-.02-.03-.05-.057-.02-.03-.044-.035-.027-.016-.05-.01-.098.025-.003.386l.915 3.553q.146.557.228.827.08.26.22.573.14.313.295.46l-1.3.339.06-.168q.28-.761-.46-3.601l-.714-2.731q-.065-.251-.14-.36-.078-.12-.292-.18l1.354-.354q.284-.074.381.075l2.86 4.34q.02.03.048.093l.058.09q.03.027.053.068.033.038.06.054.025.005.047 0 .087-.023.128-.314l.7-5.048q.063-.39.166-.486.065-.064.163-.09zM128.35 222.195l.97-.516 1.271 3.788q.287.857.58 1.092l-1.177.395q.092-.365-.195-1.22l-.97-2.89q-.09-.232-.132-.325-.033-.096-.122-.185-.093-.1-.225-.14zm-.489-1.42.595-.783.733.552-.602.761zM131.694 221.924q.133.348.455.527.33.164.71.212.391.043.78.112.396.054.734.275.345.207.498.607.27.707-.145 1.325-.406.615-1.144.897-.559.214-1.259.216-.203.005-.268-.163-.052-.137-.132-.409-.07-.276-.11-.381.458.344.788.448.34.1.825-.086.991-.38.649-1.276-.134-.348-.452-.516-.312-.183-.682-.235l-.749-.124q-.378-.073-.716-.294-.332-.236-.498-.668-.432-1.128 1.171-1.741.422-.162 1.008-.24.153-.011.173.042.105.274.254.725-.451-.263-.717-.294-.26-.046-.629.095-.337.13-.504.387-.161.243-.04.559zM135.373 220.446q.15.34.482.503.336.147.719.176.393.024.785.073.398.034.747.237.355.19.528.581.306.692-.079 1.331-.373.634-1.096.954-.548.241-1.247.279-.203.015-.276-.15-.059-.134-.152-.401-.084-.272-.13-.375.476.32.81.407.345.082.82-.128.97-.428.583-1.306-.15-.34-.477-.493-.32-.167-.693-.2l-.754-.086q-.382-.054-.73-.257-.344-.219-.531-.642-.488-1.105 1.081-1.799.413-.182.995-.29.152-.019.175.033.119.268.29.711-.464-.24-.731-.257-.261-.033-.623.127-.33.146-.484.411-.149.251-.012.56zM137.993 218.32l.892-.641 1.766 3.585q.4.81.721 1.004l-1.114.548q.043-.373-.356-1.183l-1.347-2.735q-.12-.217-.175-.303-.045-.092-.146-.168-.105-.086-.241-.107zm-.674-1.342.485-.856.8.45-.495.834zM145.232 217.105q.647 1.165.403 2.191-.234 1.02-1.33 1.63-.947.525-1.787.152-.835-.388-1.334-1.286-.646-1.165-.412-2.186.243-1.026 1.339-1.634.947-.526 1.783-.138.84.373 1.338 1.271zm-3.46 1.792q.346.622.748 1.044.397.413.909.567.512.155 1.005-.119.632-.35.619-1.002-.003-.657-.409-1.387-.345-.622-.742-1.034-.402-.423-.914-.577-.512-.155-1.006.119-.631.35-.628 1.007.013.652.418 1.382zM144.51 214.817l.847-.625.214.333q.097.152.154.115.02-.012.09-.258.063-.256.256-.581.203-.332.526-.54 1.16-.744 1.952.491l1.367 2.128q.488.76.81.928l-.854.55-1.672-2.603q-.17-.266-.321-.438-.157-.181-.37-.326-.21-.16-.458-.148-.238.005-.514.182-.893.573-.045 1.894l.983 1.529q.488.76.83.916l-1.045.67q0-.375-.488-1.135l-1.452-2.26q-.488-.76-.81-.822zM153.305 213.142l-2.636-3.328q-.68-.858-1.113-1.005.354-.28 1.01-.871.655-.591 1-.864.814-.645 1.552-.568.732.07 1.271.75.617.78.558 1.632-.058.853-.837 1.47-.46.365-.924.415.246-.252.376-.398.13-.162.293-.448.17-.294.182-.534.02-.246-.092-.589-.112-.358-.406-.73-.463-.584-.954-.713-.491-.13-1.12.368l-.707.56 3.343 4.222q.638.805 1.149.977l-1.222.967q-.036-.446-.723-1.313zM158.246 206.692l-1.504 1.349q.253.35.389.5.58.648 1.282.822.703.158 1.317-.393.302-.27.481-.629.188-.365.181-.678l.083.093q.294.328.107.98-.187.638-.666 1.068-.781.701-1.73.49-.947-.212-1.693-1.043-.77-.858-.82-1.844-.058-.994.774-1.74.58-.52 1.22-.518.639.003 1.031.44.166.185.14.375-.026.175-.145.312-.127.13-.447.416zm-1.68 1.052.866-.777.277-.249q.077-.083.155-.199.07-.124.044-.221-.027-.098-.132-.216-.226-.252-.576-.287-.342-.042-.636.222-.638.573.002 1.727zM161.445 206.408q.28.279.591.254.312-.024.59-.304.343-.344.27-.783-.072-.455-.44-.821l-.808-.805-.215.647q-.261.775-.277 1.142-.023.36.289.67zm3.03-1.267-.668.767q-.136-.087-.296-.199-.168-.119-.232-.15-.064-.049-.095-.017-.024.024-.024.072.064.335.08.511.009.168-.102.44-.096.27-.359.535-.43.432-.94.48-.511.05-.935-.373-.168-.167-.248-.39-.073-.232-.073-.423-.008-.2.063-.495.063-.304.119-.472.055-.167.174-.479l.16-.415q.198-.567.19-.719-.017-.24-.377-.598-.704-.701-1.325-.077-.255.256-.279.52-.015.255.089.438.112.175.136.391.025.215-.142.383-.295.296-.575.018-.368-.367-.114-.974.254-.623.804-1.175 1.052-1.056 1.7-.41l1.76 1.752.16.16.159.159.152.151q.12.104.168.151.048.032.152.12.112.08.184.12.064.031.167.087.096.047.184.071.088.024.184.04zM159.244 199.428l.617-.962 3.403 3.036q.152.135.19.093.037-.042.045-.186.03-.746-.064-1.268-.095-.538-.255-.681-.118-.105-.247-.13l.759-.85.145 2.685q.653-.037 2.49.21.927.132 1.475.06l-.782.876-2.96-.447q-.273-.032-.303.001-.038.042.105.17l.986.88q.674.6 1.045.66l-.827.926q-.1-.362-.774-.963l-4.01-3.578q-.227-.203-.353-.3-.125-.096-.322-.18-.197-.086-.363-.052zM169.517 195.623l-1.504 2.005-.176-.781 1.51-2.014zM174.435 192.361l-.67 1.112q-.589-.816-2.62-2.038l-2.06-1.24q-.976-.59-1.472-.466l.588-.977q.093-.154.169-.214.066-.066.219-.08.2-.024 1.158-.04.948-.022 1.248-.039l3.877-.288q.33-.024.354-.063.041-.068-.143-.178l-3.414-2.056q-.802-.484-1.377-.514l.605-1.005q.387.628 1.267 1.158l3.868 2.329q.32.192.911.522l-.413.687-7.17.505q-.147.004-.17.043-.036.058.11.145l2.485 1.497.87.524q.267.147.81.382.544.236.97.294zM175.929 183.018l-.913 1.803q.362.234.543.326.775.393 1.493.3.712-.107 1.085-.842.183-.362.22-.76.044-.41-.076-.698l.11.056q.393.199.455.876.057.662-.233 1.236-.475.936-1.435 1.082-.96.147-1.957-.358-1.027-.52-1.431-1.422-.414-.906.09-1.903.353-.694.95-.923.597-.23 1.12.036.222.112.266.3.04.171-.022.342-.071.167-.265.55zm-1.185 1.59.526-1.038.168-.332q.041-.106.072-.242.02-.141-.04-.223-.06-.08-.2-.152-.302-.153-.641-.06-.334.085-.512.437-.388.766.627 1.61z"/><path d="m175.838 178.95.508-1.196q.143.184.278.241.26.11 1.132.224l2.159.317q.036.003.113.023.081.01.123.028.046.007.107.009.05-.003.08-.015t.043-.043q.013-.031 0-.061-.011-.03-.054-.073-.044-.042-.08-.07l-.133-.093q-.08-.071-.128-.104-1.628-1.306-2.428-1.646-.343-.145-.602-.17l.397-.935q.176.394.735.84l3.347 2.6-.274.645-3.344-.416q-.407-.05-.434.012-.022.052.208.26l2.638 2.336-.283.665-2.579-.57q-1.811-.414-2.593-.305.035-.083.132-.397.101-.325.136-.408.04-.094.14-.125.099-.032.165-.016.072.006.282.059l3.075.73q.457.11.484.047.026-.063-.243-.324-1.687-1.6-2.518-1.954-.353-.15-.589-.115zM181.137 175.872q.373.13.643-.027t.4-.53q.16-.458-.094-.822-.263-.379-.753-.55l-1.076-.376.086.676q.1.812.244 1.15.135.333.55.479zm2.185-2.454-.271.982q-.16-.02-.353-.052-.203-.035-.274-.036-.079-.015-.093.027-.012.032.01.076.203.274.293.425.08.148.097.44.032.287-.091.638-.201.576-.64.84-.44.266-1.005.068-.224-.078-.393-.244-.165-.178-.248-.35-.094-.177-.157-.474-.074-.3-.097-.476-.022-.175-.05-.508l-.036-.443q-.066-.597-.14-.73-.118-.21-.597-.377-.938-.328-1.229.504-.119.34-.026.588.096.237.27.358.177.11.292.293.115.184.037.408-.138.394-.511.264-.49-.172-.524-.83-.04-.67.217-1.406.492-1.407 1.355-1.105l2.344.82q.032.01.213.074l.214.074.202.071q.153.041.217.064.057.008.189.042.135.023.217.028.071 0 .19.006.106.002.196-.015.09-.017.182-.044zM182.459 171.998l-1.917-.566q-.508-.15-.772-.216-.263-.065-.585-.09-.322-.024-.469.074.056-.231.127-.551.071-.32.087-.375.032-.108.306-.04.277.059.293.005.003-.011-.12-.189-.125-.178-.214-.475t-.006-.578q.176-.596.587-.474.358.105.246.484-.029.098-.107.322-.085.21-.127.35-.108.369.073.552.181.183.604.307l2.23.658q.866.256 1.238.154l-.352 1.19q-.256-.287-1.122-.542zM177.033 167.44l.09-1.14 4.433 1.073q.197.047.21-.007.014-.055-.048-.186-.325-.671-.654-1.088-.337-.43-.546-.48-.153-.038-.279.002l.268-1.108 1.395 2.3q.559-.341 2.295-.99.88-.32 1.329-.642l-.276 1.141-2.821 1.002q-.257.1-.268.144-.013.055.174.1l1.283.31q.878.213 1.233.09l-.292 1.207q-.26-.272-1.137-.484l-5.223-1.264q-.296-.072-.452-.098-.157-.026-.37-.008t-.344.125z"/></g><path d="m298.014 136.973 1.124 78.346a63.296 64.768 0 0 0 56.81-55.558l-2.309.44-13.776-3.32-.376-7.45zM288.11 93.235c-5.206 1.314-9.972 3.386-9.815 12.004l-7.311 3.335 2.384 2.12 13.254-5.438v-2.213l20.105 4.425-5.85-3.027-13.194-3.115c-.575-5.723 0-7.055.428-8.091z" style="fill:#fff;fill-opacity:1;stroke-width:2.44181;stroke-linecap:round;stroke-linejoin:round" transform="translate(-189.135 -5.62)"/><path d="m278.448 110.55-2.868 1.068.617 10.6-2.98 2.95 13.777-5.162.894-1.7-.633-10.838-4.001 1.382.8 9.333-4.879 1.823zM287.9 122.432l-11.426 4.024v3.521l-4.508 2.853 3.5 5.015-.348 8.917-24.481 22.792.03 6.318-11.172 8.487-.282.116a63.296 64.768 0 0 0 51.564 31.06l-2.369-81.786-1.27-2.766v-3.27l1.017-2.263zm-5.615 35.39c1.28.02 2.468 1.109 2.502 3.512l.122 21.848-5.823.285.035-21.464c-.058-2.667 1.62-4.203 3.164-4.18z" style="fill:#fff;fill-opacity:1;stroke-width:2.44181;stroke-linecap:round;stroke-linejoin:round" transform="translate(-189.135 -5.62)"/></svg>