<?xml version="1.0" encoding="utf-8"?><!-- Uploaded to: SVG Repo, www.svgrepo.com, Generator: SVG Repo Mixer Tools -->
<svg fill="#000000" width="800px" height="800px" viewBox="0 0 512 512" id="_44_Grid_alt_" data-name="44 Grid (alt)" xmlns="http://www.w3.org/2000/svg">
  <path id="Path_57" data-name="Path 57" d="M480,512H32A31.981,31.981,0,0,1,0,480V32A31.981,31.981,0,0,1,32,0H480a31.981,31.981,0,0,1,32,32V480A31.981,31.981,0,0,1,480,512ZM448,64H64V448H448ZM224,224H128V128h96Zm0,160H128V288h96ZM384,224H288V128h96Zm0,160H288V288h96Z" fill-rule="evenodd"/>
</svg>